<?xml version="1.0" standalone="no"?>
<!DOCTYPE svg PUBLIC "-//W3C//DTD SVG 20010904//EN"
 "http://www.w3.org/TR/2001/REC-SVG-20010904/DTD/svg10.dtd">
<svg version="1.0" xmlns="http://www.w3.org/2000/svg"
 width="524.000000pt" height="524.000000pt" viewBox="0 0 524.000000 524.000000"
 preserveAspectRatio="xMidYMid meet">
<metadata>
Created by potrace 1.14, written by Peter Selinger 2001-2017
</metadata>
<g transform="translate(0.000000,524.000000) scale(0.100000,-0.100000)"
fill="#000000" stroke="none">
<path d="M1825 4291 c-22 -10 -61 -38 -86 -62 -95 -91 -319 -434 -571 -874
-16 -27 -37 -63 -47 -80 -41 -68 -281 -495 -281 -499 0 -3 -20 -47 -45 -98
-54 -113 -83 -145 -250 -270 -69 -52 -69 -52 -76 -139 -10 -136 -59 -260 -257
-656 -99 -197 -184 -371 -190 -388 -30 -80 -16 -127 51 -171 23 -15 72 -52
109 -81 l68 -54 62 86 c35 47 87 127 115 177 60 105 175 369 197 453 8 31 27
72 43 91 40 51 97 146 143 240 46 94 115 176 174 206 22 12 43 20 46 19 3 0
19 1 35 4 17 3 44 7 60 10 91 15 155 25 200 30 28 3 64 8 80 10 17 3 55 7 85
10 30 4 62 8 70 10 8 2 71 7 140 11 l126 6 -2 -64 c-5 -224 -18 -606 -29 -836
l-7 -163 26 -34 c36 -47 115 -75 235 -82 104 -6 147 4 149 34 1 10 1 52 0 93
-3 344 1 520 17 712 2 24 7 90 10 148 4 58 8 116 10 130 2 14 7 57 10 95 3 39
8 86 10 105 3 19 7 58 9 85 10 105 18 181 21 195 2 8 6 50 9 92 4 42 8 85 10
95 2 10 7 56 11 103 3 47 8 101 10 120 1 19 6 75 10 124 4 50 8 97 10 105 1 9
6 60 10 115 3 54 8 108 11 119 2 11 6 98 10 193 6 170 6 172 -19 228 -60 130
-244 272 -395 305 -71 15 -90 14 -137 -8z m175 -458 c7 -59 4 -241 -4 -308 -3
-33 -11 -94 -16 -135 -5 -41 -12 -95 -15 -120 -3 -25 -12 -94 -20 -155 -9 -60
-17 -123 -20 -140 -5 -38 -26 -185 -30 -205 -1 -8 -6 -35 -10 -60 -11 -69 -17
-74 -49 -49 -42 33 -119 30 -291 -9 -49 -12 -144 -28 -210 -37 -66 -9 -130
-19 -142 -22 -18 -4 -23 -1 -23 16 0 24 53 129 134 265 54 89 68 107 112 144
35 30 70 83 147 227 136 256 210 377 319 522 64 86 95 116 108 108 3 -2 8 -21
10 -42z"/>
<path d="M3707 4183 c-1 -1 -14 -4 -27 -6 -14 -3 -50 -16 -80 -29 -61 -27 -97
-71 -118 -144 -7 -23 -48 -112 -92 -199 -52 -103 -80 -169 -80 -191 0 -18 -5
-36 -10 -39 -11 -7 -45 -77 -121 -254 -28 -63 -56 -129 -63 -145 -16 -36 -69
-176 -72 -191 -2 -5 -17 -48 -34 -95 -18 -47 -54 -150 -82 -229 -27 -79 -62
-169 -78 -200 -17 -34 -35 -95 -45 -151 -10 -63 -29 -124 -55 -181 -22 -47
-40 -95 -40 -107 0 -21 -50 -159 -88 -242 -31 -68 -92 -288 -92 -332 0 -24 -7
-45 -19 -57 -22 -22 -31 -57 -37 -136 -2 -33 -6 -73 -8 -90 -2 -16 1 -42 6
-56 19 -54 177 -179 227 -179 15 0 35 10 45 22 39 45 106 217 187 473 58 189
78 250 144 465 37 118 73 238 82 265 8 28 29 86 45 129 l31 80 34 -105 c18
-57 40 -131 49 -164 29 -116 67 -221 113 -315 63 -126 245 -400 318 -475 156
-163 367 -315 436 -315 12 0 27 -4 32 -9 17 -16 108 -36 146 -33 57 5 112 58
134 129 26 81 26 154 -1 190 -33 45 -112 100 -170 118 -81 25 -164 85 -269
190 -123 124 -167 188 -258 370 -142 286 -168 362 -211 618 -4 25 4 34 107
107 62 43 121 80 132 80 25 1 55 25 85 70 30 46 53 65 120 99 30 16 67 42 81
57 62 68 188 168 399 314 164 114 310 224 368 278 24 22 89 63 145 92 118 61
183 103 197 130 28 52 -6 168 -76 258 -52 68 -87 85 -131 67 -32 -14 -170
-108 -336 -230 -92 -68 -206 -144 -252 -168 -16 -9 -42 -26 -57 -39 -14 -13
-35 -30 -45 -38 -139 -112 -279 -225 -283 -230 -5 -5 -198 -160 -365 -292 -39
-30 -103 -85 -143 -121 -39 -37 -74 -67 -77 -67 -4 0 15 51 35 95 5 11 48 107
94 212 47 106 121 268 164 360 158 336 158 336 135 423 -22 87 -51 138 -87
155 -26 12 -80 17 -89 8z"/>
</g>
</svg>
