<svg width="121" height="61" viewBox="0 0 121 61" fill="none" xmlns="http://www.w3.org/2000/svg">
<path d="M0.83 21.99C0.47 21.79 0.27 21.57 0.23 21.33C0.21 21.09 0.35 20.67 0.65 20.07C0.95 19.47 1.42 18.54 2.06 17.28C2.54 16.38 2.86 15.68 3.02 15.18C3.2 14.66 3.3 14.29 3.32 14.07C3.34 13.85 3.35 13.71 3.35 13.65C3.31 13.47 3.33 13.33 3.41 13.23C3.49 13.11 3.62 13.01 3.8 12.93C3.9 12.83 4.13 12.65 4.49 12.39C4.85 12.13 5.13 11.82 5.33 11.46C5.51 11.04 5.71 10.61 5.93 10.17C6.17 9.73 6.48 9.18 6.86 8.52C7.24 7.84 7.75 6.96 8.39 5.88C8.79 5.18 9.26 4.39 9.8 3.51C10.36 2.63 10.91 1.83 11.45 1.11C11.67 0.829999 11.9 0.609998 12.14 0.449998C12.38 0.289999 12.59 0.209999 12.77 0.209999C13.21 0.209999 13.65 0.329999 14.09 0.569998C14.53 0.789999 14.92 1.07 15.26 1.41C15.6 1.75 15.83 2.07 15.95 2.37C16.05 2.53 16.09 2.87 16.07 3.39C16.05 3.91 16.01 4.54 15.95 5.28C15.89 6.02 15.82 6.81 15.74 7.65C15.68 8.47 15.59 9.44 15.47 10.56C15.35 11.68 15.23 12.85 15.11 14.07C15.01 15.29 14.93 16.47 14.87 17.61C14.81 18.73 14.81 19.71 14.87 20.55C14.89 20.73 14.89 20.9 14.87 21.06C14.85 21.22 14.84 21.35 14.84 21.45C14.72 21.57 14.46 21.62 14.06 21.6C13.66 21.6 13.27 21.54 12.89 21.42C12.51 21.3 12.3 21.15 12.26 20.97C12.2 20.91 12.16 20.86 12.14 20.82C12.12 20.78 12.12 20.59 12.14 20.25C12.16 19.89 12.19 19.24 12.23 18.3L12.38 13.71L11.99 13.74C11.81 13.74 11.48 13.76 11 13.8C10.54 13.84 10.03 13.9 9.47 13.98C8.93 14.04 8.43 14.11 7.97 14.19C7.51 14.25 7.19 14.31 7.01 14.37C6.83 14.37 6.61 14.49 6.35 14.73C6.11 14.97 5.88 15.28 5.66 15.66C5.58 15.94 5.43 16.24 5.21 16.56C5.01 16.86 4.91 17.06 4.91 17.16C4.77 17.26 4.65 17.38 4.55 17.52C4.47 17.66 4.43 17.73 4.43 17.73C4.43 17.85 4.34 18.15 4.16 18.63C3.98 19.09 3.76 19.61 3.5 20.19C3.24 20.75 2.97 21.24 2.69 21.66L1.88 22.8L0.83 21.99ZM8 11.67C8 11.67 8.11 11.65 8.33 11.61C8.55 11.57 8.81 11.53 9.11 11.49C9.43 11.43 9.71 11.4 9.95 11.4C10.41 11.28 10.79 11.19 11.09 11.13C11.41 11.07 11.67 11.04 11.87 11.04C12.07 11.02 12.23 11.04 12.35 11.1C12.43 11.2 12.5 11.26 12.56 11.28C12.64 11.3 12.68 11.31 12.68 11.31C12.7 11.27 12.74 11.06 12.8 10.68C12.86 10.3 12.93 9.83 13.01 9.27C13.09 8.71 13.17 8.13 13.25 7.53C13.33 6.91 13.4 6.34 13.46 5.82C13.52 5.28 13.56 4.86 13.58 4.56C13.6 4.18 13.59 3.84 13.55 3.54C13.51 3.22 13.49 3.06 13.49 3.06C13.37 3.06 13.14 3.28 12.8 3.72C12.48 4.14 12.1 4.71 11.66 5.43C11.24 6.13 10.82 6.89 10.4 7.71C10.2 8.09 10.01 8.39 9.83 8.61C9.67 8.83 9.54 8.94 9.44 8.94C9.4 8.98 9.29 9.14 9.11 9.42C8.95 9.68 8.77 9.98 8.57 10.32C8.39 10.64 8.23 10.94 8.09 11.22C7.97 11.48 7.94 11.63 8 11.67ZM21.1923 20.82C20.7923 20.78 20.4723 20.68 20.2323 20.52C20.0123 20.34 19.8423 20.12 19.7223 19.86C19.5623 19.68 19.4623 19.54 19.4223 19.44C19.4023 19.34 19.4023 19.25 19.4223 19.17C19.5223 19.17 19.6123 19.17 19.6923 19.17C19.7723 19.15 19.8223 19.11 19.8423 19.05C19.8423 18.99 19.8723 18.95 19.9323 18.93C20.0123 18.91 20.0923 18.91 20.1723 18.93C20.5523 18.95 21.0123 18.82 21.5523 18.54C22.1123 18.26 22.7223 17.87 23.3823 17.37C24.0423 16.85 24.7023 16.29 25.3623 15.69C25.8823 15.01 26.2423 14.51 26.4423 14.19C26.6623 13.87 26.7723 13.63 26.7723 13.47C26.7923 13.29 26.7523 13.11 26.6523 12.93C26.5723 12.77 26.3823 12.69 26.0823 12.69C25.7823 12.69 25.3223 12.89 24.7023 13.29C23.8423 13.83 23.1523 14.33 22.6323 14.79C22.1123 15.25 21.6323 15.77 21.1923 16.35C21.0323 16.55 20.8523 16.77 20.6523 17.01C20.4723 17.23 20.3123 17.42 20.1723 17.58C20.0523 17.74 19.9923 17.82 19.9923 17.82C19.9923 17.9 19.8723 18 19.6323 18.12C19.4123 18.24 19.2223 18.3 19.0623 18.3C18.9823 18.26 18.8723 18.19 18.7323 18.09C18.6123 17.97 18.5323 17.82 18.4923 17.64C18.3123 17.5 18.1623 17.38 18.0423 17.28C17.9223 17.16 17.8623 16.97 17.8623 16.71C17.8623 16.55 17.8823 16.35 17.9223 16.11C17.9823 15.87 18.0623 15.56 18.1623 15.18C18.2823 14.66 18.4123 14.12 18.5523 13.56C18.6923 12.98 18.8223 12.49 18.9423 12.09C19.0823 11.67 19.1823 11.44 19.2423 11.4C19.2423 11.4 19.2823 11.31 19.3623 11.13C19.4423 10.95 19.4823 10.74 19.4823 10.5C19.5223 10.26 19.5823 10.05 19.6623 9.87C19.7623 9.69 19.8123 9.56 19.8123 9.48C19.8923 9.42 20.0123 9.18 20.1723 8.76C20.3323 8.34 20.5323 7.79 20.7723 7.11C20.7723 7.05 20.8423 6.86 20.9823 6.54C21.1223 6.2 21.2923 5.81 21.4923 5.37C21.6923 4.91 21.8923 4.44 22.0923 3.96C22.3123 3.46 22.4923 3.02 22.6323 2.64C22.8723 2.3 23.0723 1.96 23.2323 1.62C23.4123 1.26 23.5723 1.05 23.7123 0.989998C23.8123 0.969999 23.9823 1.01 24.2223 1.11C24.4823 1.21 24.7423 1.34 25.0023 1.5C25.2623 1.66 25.4423 1.82 25.5423 1.98C25.6023 2.08 25.6323 2.18 25.6323 2.28C25.6523 2.38 25.6123 2.55 25.5123 2.79C25.4123 3.01 25.2423 3.38 25.0023 3.9C24.7623 4.4 24.4223 5.11 23.9823 6.03C23.4223 7.23 22.9823 8.23 22.6623 9.03C22.3623 9.83 22.1123 10.52 21.9123 11.1C21.7323 11.68 21.5423 12.23 21.3423 12.75L21.1923 13.41L21.9723 12.54C22.1723 12.34 22.3823 12.15 22.6023 11.97C22.8223 11.79 23.0623 11.61 23.3223 11.43C23.4823 11.31 23.6923 11.19 23.9523 11.07C24.2323 10.93 24.5023 10.81 24.7623 10.71C25.0223 10.61 25.2123 10.55 25.3323 10.53C25.3923 10.51 25.5923 10.47 25.9323 10.41C26.2923 10.33 26.6423 10.29 26.9823 10.29C27.4223 10.29 27.8023 10.45 28.1223 10.77C28.4623 11.07 28.7623 11.44 29.0223 11.88C29.2423 12.3 29.3223 12.84 29.2623 13.5C29.2023 14.14 29.0323 14.69 28.7523 15.15C28.6523 15.23 28.5523 15.34 28.4523 15.48C28.3523 15.6 28.3023 15.7 28.3023 15.78C28.2823 15.92 28.1023 16.21 27.7623 16.65C27.4223 17.07 27.0823 17.47 26.7423 17.85C26.3823 18.23 25.9423 18.61 25.4223 18.99C24.9023 19.35 24.3823 19.68 23.8623 19.98C23.3623 20.26 22.9323 20.46 22.5723 20.58C22.4123 20.6 22.1823 20.64 21.8823 20.7C21.5823 20.74 21.3523 20.78 21.1923 20.82ZM39.2623 20.97C38.9623 20.99 38.6823 21 38.4223 21C38.1823 21 37.9923 20.96 37.8523 20.88C37.4923 20.58 37.2523 20.34 37.1323 20.16C37.0323 19.98 36.9823 19.78 36.9823 19.56C37.0023 19.28 37.0123 19 37.0123 18.72C37.0123 18.42 37.0123 18.19 37.0123 18.03C36.9323 17.95 36.7723 18.04 36.5323 18.3C36.2923 18.56 36.0123 18.81 35.6923 19.05C35.0723 19.75 34.5223 20.26 34.0423 20.58C33.5623 20.88 33.1223 21.05 32.7223 21.09C32.3223 21.15 31.9223 21.16 31.5223 21.12C31.1623 21.08 30.8423 20.9 30.5623 20.58C30.3023 20.26 30.1023 19.87 29.9623 19.41C29.8423 18.95 29.8023 18.5 29.8423 18.06C29.9423 17.24 30.1223 16.5 30.3823 15.84C30.6423 15.16 31.0323 14.45 31.5523 13.71C31.7923 13.39 32.1123 13.04 32.5123 12.66C32.9323 12.28 33.3823 11.93 33.8623 11.61C34.3423 11.27 34.7723 11.03 35.1523 10.89C35.7323 10.63 36.2123 10.51 36.5923 10.53C36.9923 10.55 37.3823 10.61 37.7623 10.71C38.0423 10.85 38.2623 10.92 38.4223 10.92C38.6023 10.92 38.7323 10.82 38.8123 10.62C38.9323 10.46 39.0223 10.26 39.0823 10.02C39.1423 9.78 39.2423 9.55 39.3823 9.33L40.0423 7.38C40.2623 6.84 40.5223 6.22 40.8223 5.52C41.1223 4.82 41.4623 4.04 41.8423 3.18C42.3023 2.4 42.6923 1.99 43.0123 1.95C43.3523 1.91 43.7023 2.09 44.0623 2.49C44.3023 2.73 44.4323 3.03 44.4523 3.39C44.4923 3.73 44.4023 4.13 44.1823 4.59C44.0423 4.81 43.8923 5.09 43.7323 5.43C43.5723 5.75 43.3823 6.13 43.1623 6.57C42.9423 7.09 42.7123 7.61 42.4723 8.13C42.2523 8.65 42.0223 9.22 41.7823 9.84C41.7023 10.16 41.5923 10.53 41.4523 10.95C41.3323 11.37 41.2323 11.75 41.1523 12.09C41.0923 12.41 41.0223 12.71 40.9423 12.99C40.8823 13.25 40.8123 13.38 40.7323 13.38C40.5723 13.52 40.4223 13.82 40.2823 14.28C40.1423 14.72 40.0223 15.19 39.9223 15.69C39.8423 16.19 39.7723 16.6 39.7123 16.92C39.6723 17.16 39.6423 17.5 39.6223 17.94C39.6023 18.36 39.5923 18.77 39.5923 19.17C39.5923 19.55 39.5923 19.81 39.5923 19.95C39.5923 20.33 39.5623 20.6 39.5023 20.76C39.4623 20.9 39.3823 20.97 39.2623 20.97ZM32.4823 18.6C32.9423 18.6 33.3723 18.41 33.7723 18.03C34.1923 17.63 34.6523 17.21 35.1523 16.77C35.4523 16.47 35.7623 16.14 36.0823 15.78C36.4023 15.4 36.6923 15.03 36.9523 14.67C37.2323 14.31 37.4523 14 37.6123 13.74C37.7723 13.48 37.8523 13.31 37.8523 13.23C37.8523 13.13 37.7723 13.04 37.6123 12.96C37.4723 12.88 37.3023 12.82 37.1023 12.78C36.9023 12.72 36.7223 12.71 36.5623 12.75C36.0823 12.89 35.6923 13.1 35.3923 13.38C35.1123 13.66 34.7023 14.1 34.1623 14.7C33.6223 15.36 33.1923 15.99 32.8723 16.59C32.5523 17.19 32.3523 17.68 32.2723 18.06C32.2123 18.42 32.2823 18.6 32.4823 18.6ZM49.8027 20.94C49.6027 20.74 49.4427 20.47 49.3227 20.13C49.2027 19.77 49.0827 19.36 48.9627 18.9C48.9227 18.74 48.9027 18.56 48.9027 18.36C48.9227 18.16 48.9227 18 48.9027 17.88C48.8427 18.02 48.7427 18.2 48.6027 18.42C48.4827 18.64 48.3627 18.8 48.2427 18.9C48.1627 18.98 47.9827 19.14 47.7027 19.38C47.4227 19.6 47.1427 19.78 46.8627 19.92C46.2027 20.34 45.6127 20.54 45.0927 20.52C44.5927 20.48 44.1527 20.22 43.7727 19.74C43.4527 19.48 43.1927 19.15 42.9927 18.75C42.7927 18.35 42.7527 17.87 42.8727 17.31C42.9127 16.61 43.0127 15.93 43.1727 15.27C43.3327 14.59 43.6627 13.69 44.1627 12.57C44.5827 11.75 44.9027 11.11 45.1227 10.65C45.3427 10.19 45.4827 9.92 45.5427 9.84C45.8427 9.74 46.2127 9.75 46.6527 9.87C47.0927 9.97 47.3327 10.16 47.3727 10.44C47.4927 10.64 47.4927 11.02 47.3727 11.58C47.2527 12.12 47.0127 12.74 46.6527 13.44C46.3727 14.12 46.1027 14.78 45.8427 15.42C45.6027 16.06 45.4527 16.6 45.3927 17.04C45.3527 17.48 45.4727 17.75 45.7527 17.85C45.9327 17.95 46.1927 17.94 46.5327 17.82C46.8927 17.7 47.3127 17.34 47.7927 16.74C48.2727 16.14 48.7827 15.19 49.3227 13.89C49.4827 13.49 49.6027 13.14 49.6827 12.84C49.7627 12.52 49.8127 12.17 49.8327 11.79C49.7927 11.55 49.8527 11.3 50.0127 11.04C50.1927 10.78 50.4027 10.58 50.6427 10.44C50.7227 10.34 50.8327 10.25 50.9727 10.17C51.1127 10.07 51.2027 10.07 51.2427 10.17L51.7227 10.14C51.8027 10.12 51.8927 10.2 51.9927 10.38C52.0927 10.56 52.1927 10.69 52.2927 10.77C52.5127 10.95 52.6127 11.34 52.5927 11.94C52.5727 12.54 52.3327 13.38 51.8727 14.46C51.4927 15.28 51.2327 15.9 51.0927 16.32C50.9727 16.74 50.9027 17.15 50.8827 17.55C50.8827 17.91 50.9127 18.22 50.9727 18.48C51.0327 18.72 51.2127 18.97 51.5127 19.23C51.7327 19.37 51.8527 19.61 51.8727 19.95C51.9127 20.27 51.9227 20.55 51.9027 20.79C51.8627 20.97 51.7027 21.09 51.4227 21.15C51.1627 21.23 50.8727 21.25 50.5527 21.21C50.2527 21.17 50.0027 21.08 49.8027 20.94ZM56.7962 21.21C55.7362 21.21 54.9562 20.87 54.4562 20.19C54.3162 19.87 54.2462 19.55 54.2462 19.23C54.2662 18.89 54.3462 18.65 54.4862 18.51C54.6262 18.35 54.7962 18.38 54.9962 18.6C55.2562 18.76 55.6262 18.84 56.1062 18.84C56.3462 18.84 56.5562 18.84 56.7362 18.84C56.9362 18.82 57.1662 18.8 57.4262 18.78C57.8862 18.74 58.1762 18.6 58.2962 18.36C58.4362 18.12 58.4062 17.92 58.2062 17.76H58.2362C57.6962 17.62 57.1662 17.42 56.6462 17.16C56.1262 16.9 55.6862 16.61 55.3262 16.29C54.9662 15.95 54.7562 15.63 54.6962 15.33C54.5362 14.67 54.5762 13.99 54.8162 13.29C55.0562 12.59 55.4062 11.98 55.8662 11.46C56.0462 11.34 56.2962 11.17 56.6162 10.95C56.9362 10.71 57.1662 10.58 57.3062 10.56V10.59C57.6862 10.19 58.1162 9.87 58.5962 9.63C59.0762 9.37 59.6362 9.13 60.2762 8.91L60.7562 8.85C60.9962 8.81 61.2062 8.79 61.3862 8.79C61.3662 8.79 61.4162 8.81 61.5362 8.85C61.6562 8.89 61.7562 8.92 61.8362 8.94C61.9562 9 62.0762 9.03 62.1962 9.03C62.4762 9.07 62.7462 9.22 63.0062 9.48C63.2862 9.72 63.5062 10.01 63.6662 10.35C63.8462 10.67 63.9162 10.97 63.8762 11.25C63.8162 11.71 63.6462 12.17 63.3662 12.63C63.0862 13.07 62.7862 13.32 62.4662 13.38C62.5062 13.36 62.4662 13.32 62.3462 13.26C62.2262 13.2 62.1162 13.14 62.0162 13.08L61.8962 13.14C61.8962 13.14 61.8862 13.11 61.8662 13.05C61.8662 12.99 61.8462 12.92 61.8062 12.84C61.7262 12.7 61.6662 12.55 61.6262 12.39C61.6062 12.23 61.6062 12.05 61.6262 11.85C61.6662 11.63 61.6762 11.5 61.6562 11.46C61.6362 11.42 61.5162 11.39 61.2962 11.37C61.0362 11.31 60.7062 11.34 60.3062 11.46C59.9062 11.56 59.5362 11.74 59.1962 12C58.7962 12.26 58.4962 12.47 58.2962 12.63C58.1162 12.79 57.9762 12.95 57.8762 13.11C57.7762 13.25 57.6662 13.46 57.5462 13.74C57.4662 13.88 57.3962 14.01 57.3362 14.13C57.2762 14.23 57.2462 14.33 57.2462 14.43C57.2462 14.63 57.4162 14.84 57.7562 15.06C58.0962 15.26 58.6062 15.5 59.2862 15.78C59.8262 16 60.1762 16.3 60.3362 16.68C60.5162 17.06 60.6762 17.42 60.8162 17.76C60.8562 17.84 60.8962 17.99 60.9362 18.21C60.9962 18.41 61.0062 18.53 60.9662 18.57C61.0062 18.61 61.0262 18.65 61.0262 18.69V18.66C61.1862 18.96 61.1562 19.28 60.9362 19.62C60.7362 19.94 60.4162 20.24 59.9762 20.52C59.5362 20.78 59.0362 20.97 58.4762 21.09H58.5062C58.2062 21.13 57.9062 21.16 57.6062 21.18C57.3262 21.2 57.0562 21.21 56.7962 21.21ZM65.9045 21.18C65.2245 20.9 64.7245 20.61 64.4045 20.31C64.1045 19.99 63.9845 19.71 64.0445 19.47C64.0845 19.35 64.1545 19.24 64.2545 19.14C64.3545 19.04 64.5745 19 64.9145 19.02C65.2745 19.02 65.8245 19.11 66.5645 19.29C66.7845 19.29 67.0045 19.28 67.2245 19.26C67.4445 19.24 67.6445 19.21 67.8245 19.17C68.0245 19.13 68.1845 19.08 68.3045 19.02C68.4045 18.98 68.4345 18.93 68.3945 18.87C68.3545 18.79 68.2845 18.71 68.1845 18.63C68.1045 18.53 68.0145 18.47 67.9145 18.45C67.8145 18.41 67.7245 18.39 67.6445 18.39C67.6045 18.29 67.5145 18.19 67.3745 18.09C67.2545 17.99 67.1045 17.88 66.9245 17.76C66.4845 17.4 66.0845 17.08 65.7245 16.8C65.3645 16.52 65.2245 16.31 65.3045 16.17C65.3045 16.09 65.3045 16.05 65.3045 16.05C65.3045 16.03 65.3045 16.02 65.3045 16.02C65.1645 16.02 65.0345 15.83 64.9145 15.45C64.7945 15.05 64.7345 14.69 64.7345 14.37C64.7345 13.97 64.8145 13.57 64.9745 13.17C65.1545 12.77 65.3745 12.39 65.6345 12.03C65.9145 11.67 66.1945 11.35 66.4745 11.07C66.8545 10.71 67.2545 10.36 67.6745 10.02C68.1145 9.66 68.5845 9.34 69.0845 9.06C69.6045 8.78 70.1745 8.56 70.7945 8.4C71.0745 8.34 71.3945 8.31 71.7545 8.31C72.1145 8.31 72.3745 8.36 72.5345 8.46C72.6945 8.36 72.8945 8.39 73.1345 8.55C73.3745 8.69 73.6145 8.89 73.8545 9.15C74.0945 9.41 74.2745 9.67 74.3945 9.93C74.3945 10.17 74.3845 10.47 74.3645 10.83C74.3645 11.17 74.3445 11.47 74.3045 11.73C74.2645 11.99 74.1745 12.12 74.0345 12.12C74.0345 12.12 74.0045 12.13 73.9445 12.15C73.9045 12.15 73.8845 12.2 73.8845 12.3C73.8845 12.5 73.7345 12.73 73.4345 12.99C73.0545 13.25 72.6945 13.46 72.3545 13.62C72.0145 13.78 71.7545 13.79 71.5745 13.65C71.4545 13.57 71.3445 13.49 71.2445 13.41C71.1445 13.33 71.0545 13.23 70.9745 13.11C70.9745 13.11 70.9445 13.07 70.8845 12.99C70.8445 12.89 70.8245 12.8 70.8245 12.72C70.8245 12.64 70.8545 12.57 70.9145 12.51C70.9745 12.43 71.0045 12.39 71.0045 12.39C71.2845 12.13 71.4945 11.89 71.6345 11.67C71.7945 11.45 71.9045 11.26 71.9645 11.1C72.0245 10.92 72.0545 10.78 72.0545 10.68C72.0545 10.56 72.0245 10.49 71.9645 10.47C71.9245 10.43 71.8245 10.41 71.6645 10.41C71.5645 10.41 71.3445 10.49 71.0045 10.65C70.6845 10.81 70.3445 11.01 69.9845 11.25C69.6245 11.47 69.3445 11.67 69.1445 11.85C69.0645 11.99 69.0045 12.08 68.9645 12.12C68.9445 12.16 68.8945 12.18 68.8145 12.18C68.8145 12.1 68.7645 12.11 68.6645 12.21C68.5645 12.31 68.4445 12.45 68.3045 12.63C68.1645 12.81 68.0245 13 67.8845 13.2C67.7445 13.4 67.6345 13.56 67.5545 13.68C67.5345 13.86 67.4845 14.03 67.4045 14.19C67.3445 14.33 67.3245 14.48 67.3445 14.64C67.3645 14.84 67.4645 15.03 67.6445 15.21C67.8245 15.39 68.0845 15.62 68.4245 15.9C69.1245 16.42 69.6445 16.83 69.9845 17.13C70.3445 17.43 70.5945 17.67 70.7345 17.85C70.8745 18.03 70.9645 18.21 71.0045 18.39C71.3445 19.01 71.3845 19.55 71.1245 20.01C70.8645 20.45 70.4645 20.79 69.9245 21.03C69.7245 21.13 69.3745 21.22 68.8745 21.3C68.3745 21.4 67.8445 21.44 67.2845 21.42C66.7445 21.42 66.2845 21.34 65.9045 21.18ZM77.6527 20.76C77.2327 20.84 76.9127 20.82 76.6927 20.7C76.4927 20.56 76.2827 20.39 76.0627 20.19C75.7427 20.03 75.4527 19.81 75.1927 19.53C74.9327 19.23 74.7327 18.92 74.5927 18.6C74.4527 18.28 74.3927 18.03 74.4127 17.85C74.4727 17.15 74.6327 16.39 74.8927 15.57C75.1727 14.75 75.5227 13.95 75.9427 13.17C76.3827 12.39 76.8727 11.7 77.4127 11.1C77.9727 10.48 78.5727 10.03 79.2127 9.75C79.6127 9.59 80.0427 9.53 80.5027 9.57C80.9627 9.61 81.2727 9.8 81.4327 10.14C81.7327 10.72 81.6627 11.09 81.2227 11.25C81.1627 11.25 81.0927 11.28 81.0127 11.34C80.9327 11.38 80.8927 11.44 80.8927 11.52C80.9727 11.56 81.1927 11.57 81.5527 11.55C81.9127 11.51 82.2727 11.45 82.6327 11.37C83.0127 11.27 83.2627 11.17 83.3827 11.07C83.5027 11.01 83.5927 10.98 83.6527 10.98C83.7127 10.98 83.8627 11 84.1027 11.04C84.4427 11.14 84.6127 11.26 84.6127 11.4C84.6127 11.48 84.6427 11.61 84.7027 11.79C84.7627 11.95 84.8327 12.03 84.9127 12.03C85.0527 12.05 85.0827 12.19 85.0027 12.45C84.9427 12.71 84.7127 12.98 84.3127 13.26C83.9327 13.5 83.6927 13.66 83.5927 13.74C83.5127 13.8 83.5027 13.94 83.5627 14.16C83.7227 14.54 83.7127 15 83.5327 15.54C83.3527 16.08 83.0527 16.64 82.6327 17.22C82.2127 17.8 81.7127 18.35 81.1327 18.87C80.5727 19.37 79.9827 19.8 79.3627 20.16C78.7627 20.5 78.1927 20.7 77.6527 20.76ZM77.7427 18.24C77.8227 18.24 77.9627 18.2 78.1627 18.12C78.3627 18.02 78.5227 17.94 78.6427 17.88C78.7227 17.8 78.8227 17.71 78.9427 17.61C79.0827 17.49 79.1927 17.42 79.2727 17.4C79.3527 17.4 79.4027 17.37 79.4227 17.31C79.4427 17.23 79.5127 17.08 79.6327 16.86C79.7527 16.62 79.9927 16.27 80.3527 15.81C80.7527 15.37 81.0127 15.02 81.1327 14.76C81.2527 14.48 81.2627 14.18 81.1627 13.86C81.1427 13.78 81.0827 13.73 80.9827 13.71C80.9027 13.69 80.7927 13.64 80.6527 13.56C80.4527 13.56 80.3127 13.61 80.2327 13.71C80.1727 13.79 80.0327 13.74 79.8127 13.56L79.3327 12.96L78.8227 13.47C78.5027 13.79 78.2127 14.19 77.9527 14.67C77.7127 15.15 77.5227 15.64 77.3827 16.14C77.2427 16.64 77.1527 17.08 77.1127 17.46C77.0927 17.76 77.1427 17.96 77.2627 18.06C77.3827 18.16 77.5427 18.22 77.7427 18.24ZM88.5219 20.58C88.2619 20.64 87.9219 20.6 87.5019 20.46C87.0819 20.3 86.6719 20.11 86.2719 19.89C85.8919 19.65 85.6319 19.46 85.4919 19.32C85.3519 19.16 85.3119 19.02 85.3719 18.9C85.4319 18.76 85.5319 18.69 85.6719 18.69C85.7519 18.69 85.8819 18.61 86.0619 18.45C86.2419 18.27 86.3519 17.95 86.3919 17.49C86.4319 17.21 86.4819 16.97 86.5419 16.77C86.6219 16.55 86.6619 16.4 86.6619 16.32C86.6819 16.26 86.7019 16.1 86.7219 15.84C86.7619 15.56 86.8219 15.32 86.9019 15.12C86.9819 14.76 87.1019 14.3 87.2619 13.74C87.4219 13.16 87.5819 12.6 87.7419 12.06C87.9219 11.5 88.0619 11.07 88.1619 10.77C88.2019 10.55 88.2919 10.27 88.4319 9.93C88.5719 9.59 88.6919 9.32 88.7919 9.12C88.9919 8.56 89.2619 7.88 89.6019 7.08C89.9619 6.28 90.3319 5.48 90.7119 4.68C91.0919 3.86 91.4219 3.17 91.7019 2.61C92.0019 2.03 92.1919 1.68 92.2719 1.56C92.4319 1.4 92.6919 1.34 93.0519 1.38C93.4119 1.42 93.7019 1.55 93.9219 1.77C94.1019 1.99 94.2719 2.22 94.4319 2.46C94.5919 2.7 94.5519 2.96 94.3119 3.24C94.2319 3.38 94.1019 3.6 93.9219 3.9C93.7419 4.18 93.6019 4.39 93.5019 4.53C93.3419 5.01 93.1419 5.48 92.9019 5.94C92.6819 6.4 92.4419 6.92 92.1819 7.5C91.9219 8.06 91.6419 8.76 91.3419 9.6C91.1619 9.98 91.0119 10.36 90.8919 10.74C90.7719 11.1 90.6719 11.33 90.5919 11.43C90.4719 11.87 90.3419 12.2 90.2019 12.42C90.0819 12.64 89.9819 12.99 89.9019 13.47C89.9019 13.47 90.0019 13.37 90.2019 13.17C90.4219 12.97 90.6819 12.72 90.9819 12.42C91.7619 11.58 92.4619 10.94 93.0819 10.5C93.7019 10.06 94.2719 9.83 94.7919 9.81C95.0719 9.79 95.3719 9.86 95.6919 10.02C96.0319 10.18 96.3419 10.38 96.6219 10.62C96.9019 10.84 97.0919 11.08 97.1919 11.34C97.3519 11.7 97.4319 12.17 97.4319 12.75C97.4319 13.31 97.3419 13.89 97.1619 14.49C97.0019 15.09 96.7419 15.62 96.3819 16.08C96.1619 16.46 95.8919 16.83 95.5719 17.19C95.2719 17.53 95.0119 17.78 94.7919 17.94C94.5919 18.12 94.3919 18.3 94.1919 18.48C94.0119 18.64 93.8619 18.77 93.7419 18.87C93.4819 19.05 93.2719 19.19 93.1119 19.29C92.9519 19.37 92.7319 19.46 92.4519 19.56C92.0319 19.86 91.4519 20.08 90.7119 20.22C89.9719 20.36 89.2419 20.48 88.5219 20.58ZM89.2719 18.3C89.4119 18.3 89.6619 18.27 90.0219 18.21C90.4019 18.15 90.7519 18 91.0719 17.76C92.0119 17.28 92.7619 16.75 93.3219 16.17C93.9019 15.59 94.3119 15.01 94.5519 14.43C94.7919 13.85 94.8919 13.33 94.8519 12.87C94.8119 12.41 94.5619 12.27 94.1019 12.45C93.6619 12.61 92.9719 13.16 92.0319 14.1C91.5919 14.5 91.2119 14.88 90.8919 15.24C90.5719 15.6 90.2419 15.98 89.9019 16.38C89.7619 16.6 89.6219 16.78 89.4819 16.92C89.3619 17.04 89.2919 17.18 89.2719 17.34C89.1319 17.98 89.1319 18.3 89.2719 18.3ZM101.102 19.95C100.722 19.61 100.392 19.26 100.112 18.9C99.832 18.52 99.642 17.94 99.542 17.16C99.502 16.8 99.542 16.3 99.662 15.66C99.782 15.02 99.962 14.35 100.202 13.65C100.442 12.93 100.702 12.27 100.982 11.67C101.262 11.07 101.542 10.63 101.822 10.35C102.062 10.05 102.362 9.81 102.722 9.63C103.102 9.45 103.492 9.45 103.892 9.63C104.112 9.89 104.222 10.25 104.222 10.71C104.242 11.15 104.132 11.56 103.892 11.94C103.492 12.48 103.142 13.16 102.842 13.98C102.562 14.78 102.372 15.5 102.272 16.14C102.132 16.6 102.072 16.96 102.092 17.22C102.112 17.46 102.252 17.61 102.512 17.67C102.892 17.77 103.282 17.66 103.682 17.34C104.102 17.02 104.502 16.55 104.882 15.93C105.282 15.31 105.632 14.6 105.932 13.8C106.052 13.52 106.142 13.19 106.202 12.81C106.282 12.43 106.362 12.15 106.442 11.97C106.542 11.57 106.712 11.26 106.952 11.04C107.212 10.8 107.482 10.65 107.762 10.59C108.042 10.53 108.252 10.56 108.392 10.68C108.572 10.76 108.762 10.89 108.962 11.07C109.162 11.25 109.242 11.57 109.202 12.03C109.202 12.77 109.042 13.4 108.722 13.92C108.402 14.44 108.132 14.99 107.912 15.57C107.732 15.99 107.442 16.48 107.042 17.04C106.642 17.6 106.212 18.11 105.752 18.57C105.312 19.03 104.902 19.34 104.522 19.5C103.962 19.86 103.392 20.08 102.812 20.16C102.232 20.22 101.662 20.15 101.102 19.95ZM111.005 20.55C110.865 20.55 110.675 20.45 110.435 20.25C110.215 20.05 110.085 19.87 110.045 19.71C109.985 19.55 109.985 19.32 110.045 19.02C110.125 18.7 110.235 18.33 110.375 17.91C110.535 17.25 110.645 16.77 110.705 16.47C110.765 16.17 110.825 15.91 110.885 15.69C110.945 15.47 111.025 15.15 111.125 14.73C111.245 14.47 111.335 14.22 111.395 13.98C111.475 13.72 111.555 13.46 111.635 13.2C111.735 12.94 111.845 12.68 111.965 12.42C112.105 11.9 112.275 11.41 112.475 10.95C112.695 10.47 112.905 10.07 113.105 9.75C113.145 9.69 113.235 9.58 113.375 9.42C113.515 9.26 113.625 9.18 113.705 9.18C113.865 9.02 114.085 8.97 114.365 9.03C114.645 9.07 114.885 9.17 115.085 9.33C115.325 9.59 115.455 9.9 115.475 10.26C115.515 10.6 115.375 11.08 115.055 11.7C114.815 12.32 114.585 12.81 114.365 13.17C114.165 13.51 113.965 13.91 113.765 14.37C113.985 14.05 114.255 13.72 114.575 13.38C114.895 13.04 115.145 12.77 115.325 12.57C115.585 12.29 115.825 12.07 116.045 11.91C116.285 11.73 116.605 11.51 117.005 11.25C117.345 11.01 117.685 10.79 118.025 10.59C118.385 10.39 118.815 10.33 119.315 10.41C119.515 10.39 119.725 10.49 119.945 10.71C120.185 10.93 120.365 11.22 120.485 11.58C120.625 11.92 120.625 12.29 120.485 12.69C120.025 12.59 119.615 12.61 119.255 12.75C118.895 12.87 118.585 13.02 118.325 13.2C118.085 13.38 117.895 13.52 117.755 13.62C117.555 13.74 117.325 13.9 117.065 14.1C116.805 14.28 116.525 14.49 116.225 14.73C115.925 14.95 115.605 15.2 115.265 15.48C114.785 15.88 114.425 16.23 114.185 16.53C113.945 16.83 113.755 17.15 113.615 17.49C113.495 17.79 113.345 18.15 113.165 18.57C112.985 18.99 112.815 19.37 112.655 19.71C112.495 20.03 112.365 20.23 112.265 20.31C112.165 20.51 111.955 20.62 111.635 20.64C111.335 20.66 111.125 20.63 111.005 20.55ZM2.24 60.41C1.98 60.25 1.74 60.05 1.52 59.81C1.3 59.59 1.25 59.27 1.37 58.85C1.35 58.61 1.36 58.38 1.4 58.16C1.46 57.94 1.5 57.79 1.52 57.71C1.62 57.71 1.68 57.66 1.7 57.56C1.72 57.44 1.73 57.34 1.73 57.26C1.73 57.1 1.79 56.83 1.91 56.45C2.03 56.07 2.15 55.67 2.27 55.25C2.43 54.91 2.58 54.55 2.72 54.17C2.88 53.79 2.96 53.56 2.96 53.48C2.96 53.32 3 53.16 3.08 53C3.16 52.82 3.25 52.65 3.35 52.49C3.45 52.25 3.52 51.99 3.56 51.71C3.62 51.41 3.65 51.18 3.65 51.02C3.77 50.76 3.9 50.48 4.04 50.18C4.18 49.88 4.29 49.57 4.37 49.25C4.49 48.91 4.67 48.41 4.91 47.75C5.15 47.07 5.4 46.39 5.66 45.71C5.84 45.33 6.01 44.94 6.17 44.54C6.35 44.12 6.51 43.77 6.65 43.49C6.79 43.19 6.89 43.04 6.95 43.04C6.95 43.04 6.95 43.01 6.95 42.95C6.95 42.87 6.95 42.79 6.95 42.71C6.95 42.61 7.03 42.42 7.19 42.14C7.35 41.84 7.5 41.53 7.64 41.21C7.84 40.91 7.98 40.63 8.06 40.37C8.14 40.09 8.18 39.95 8.18 39.95C8.18 39.95 8.22 39.89 8.3 39.77C8.38 39.63 8.46 39.52 8.54 39.44C9.06 39.16 9.5 39.02 9.86 39.02C10.24 39.02 10.5 39.26 10.64 39.74C10.8 40.18 10.87 40.49 10.85 40.67C10.83 40.83 10.76 41.03 10.64 41.27C10.48 41.63 10.27 42.09 10.01 42.65C9.75 43.19 9.48 43.77 9.2 44.39C8.92 45.01 8.65 45.61 8.39 46.19C8.15 46.75 7.95 47.23 7.79 47.63C7.65 48.03 7.58 48.28 7.58 48.38L6.32 51.47C6.24 51.61 6.11 51.97 5.93 52.55C5.75 53.11 5.54 53.79 5.3 54.59C5.06 55.37 4.81 56.17 4.55 56.99C4.31 57.79 4.07 58.52 3.83 59.18C3.71 59.52 3.6 59.8 3.5 60.02C3.4 60.26 3.3 60.44 3.2 60.56C3.1 60.68 2.98 60.74 2.84 60.74C2.76 60.74 2.67 60.71 2.57 60.65C2.47 60.59 2.36 60.51 2.24 60.41ZM12.86 60.35C12.68 60.37 12.43 60.28 12.11 60.08C11.81 59.9 11.48 59.67 11.12 59.39C10.78 59.11 10.45 58.82 10.13 58.52C9.83 58.22 9.59 57.96 9.41 57.74C9.09 57.28 8.68 56.66 8.18 55.88C7.7 55.1 7.34 54.28 7.1 53.42C6.96 52.78 6.81 52.27 6.65 51.89C6.51 51.49 6.44 51.14 6.44 50.84L6.47 48.98L8.66 48.83C8.76 49.91 8.92 50.81 9.14 51.53C9.36 52.23 9.62 52.86 9.92 53.42C10.16 53.94 10.42 54.45 10.7 54.95C11 55.45 11.33 55.87 11.69 56.21C12.15 56.71 12.56 57.08 12.92 57.32C13.28 57.56 13.55 57.68 13.73 57.68C14.11 57.86 14.39 58.03 14.57 58.19C14.75 58.35 14.87 58.49 14.93 58.61C14.99 58.73 15.01 58.84 14.99 58.94C15.01 59 15 59.13 14.96 59.33C14.92 59.55 14.86 59.76 14.78 59.96C14.7 60.18 14.59 60.32 14.45 60.38C14.31 60.52 14.13 60.6 13.91 60.62C13.69 60.66 13.34 60.57 12.86 60.35ZM5.9 48.89L8.09 47.27C8.15 47.21 8.32 47.05 8.6 46.79C8.9 46.51 9.47 46.05 10.31 45.41L14.27 42.2C14.77 41.94 15.23 41.65 15.65 41.33C16.07 41.01 16.42 40.76 16.7 40.58C17.04 40.34 17.39 40.09 17.75 39.83C18.11 39.57 18.33 39.45 18.41 39.47C18.57 39.39 18.76 39.47 18.98 39.71C19.2 39.93 19.38 40.2 19.52 40.52C19.68 40.82 19.75 41.05 19.73 41.21C19.77 41.41 19.74 41.58 19.64 41.72C19.54 41.86 19.28 42.05 18.86 42.29C18.36 42.51 17.96 42.72 17.66 42.92C17.38 43.12 17.22 43.27 17.18 43.37C17.18 43.37 16.97 43.53 16.55 43.85C16.13 44.17 15.63 44.53 15.05 44.93C14.25 45.47 13.59 45.95 13.07 46.37C12.57 46.77 12.24 47.09 12.08 47.33C12 47.33 11.92 47.36 11.84 47.42C11.78 47.48 11.71 47.5 11.63 47.48C11.63 47.48 11.55 47.54 11.39 47.66C11.23 47.76 11.11 47.87 11.03 47.99C10.99 48.09 10.9 48.22 10.76 48.38C10.64 48.54 10.49 48.61 10.31 48.59C10.17 48.67 9.92 48.84 9.56 49.1C9.2 49.34 8.82 49.61 8.42 49.91C8.04 50.21 7.71 50.48 7.43 50.72C7.15 50.96 7 51.1 6.98 51.14L5.9 48.89ZM16.7532 58.37C16.6732 58.21 16.4932 58.05 16.2132 57.89C15.9532 57.73 15.8232 57.61 15.8232 57.53C15.8232 57.45 15.7732 57.33 15.6732 57.17C15.5932 56.99 15.5132 56.86 15.4332 56.78C15.3332 56.66 15.3632 56.37 15.5232 55.91C15.6832 55.43 15.9232 54.85 16.2432 54.17C16.5632 53.49 16.9132 52.8 17.2932 52.1C17.4532 51.94 17.6132 51.73 17.7732 51.47C17.9332 51.21 18.0532 51.04 18.1332 50.96C18.1332 50.88 18.1632 50.81 18.2232 50.75C18.2832 50.67 18.3532 50.63 18.4332 50.63L18.6732 50.15C18.7132 50.07 18.8332 49.91 19.0332 49.67C19.2532 49.43 19.5132 49.17 19.8132 48.89C20.1132 48.59 20.4132 48.31 20.7132 48.05C21.0332 47.79 21.2932 47.6 21.4932 47.48C21.9132 47.2 22.3432 47.07 22.7832 47.09C23.2432 47.11 23.6332 47.25 23.9532 47.51C24.0132 47.57 24.1432 47.69 24.3432 47.87C24.5632 48.05 24.8032 48.25 25.0632 48.47C25.3432 48.69 25.5832 48.89 25.7832 49.07L26.8932 50.06L26.3832 51.56C26.1232 52.36 26.0532 53.06 26.1732 53.66C26.2932 54.26 26.4832 54.78 26.7432 55.22C26.8432 55.44 26.9732 55.61 27.1332 55.73C27.3132 55.85 27.5432 55.93 27.8232 55.97C27.9832 55.99 28.1332 56.05 28.2732 56.15C28.4132 56.25 28.4832 56.41 28.4832 56.63C28.4832 57.11 28.3932 57.46 28.2132 57.68C28.0532 57.88 27.8732 58 27.6732 58.04C27.0132 58.12 26.3832 58.05 25.7832 57.83C25.1832 57.61 24.6432 57.04 24.1632 56.12C24.0832 56 23.9732 55.78 23.8332 55.46C23.7132 55.12 23.6432 54.9 23.6232 54.8C23.5432 54.9 23.4332 55.03 23.2932 55.19C23.1732 55.33 23.0532 55.46 22.9332 55.58C21.5132 57.02 20.2932 57.96 19.2732 58.4C18.2732 58.82 17.4332 58.81 16.7532 58.37ZM18.4032 55.88C18.5432 55.9 18.7632 55.83 19.0632 55.67C19.3632 55.49 19.7632 55.2 20.2632 54.8C20.9432 54.22 21.5032 53.74 21.9432 53.36C22.3832 52.98 22.8132 52.49 23.2332 51.89L23.8932 50.81C23.6932 50.35 23.5132 50.05 23.3532 49.91C23.1932 49.77 23.0332 49.7 22.8732 49.7C22.6132 49.7 22.3032 49.87 21.9432 50.21C21.5832 50.53 21.1732 51.01 20.7132 51.65C20.2732 52.27 19.7732 53.05 19.2132 53.99C18.9532 54.43 18.7532 54.86 18.6132 55.28C18.4732 55.68 18.4032 55.88 18.4032 55.88ZM43.4019 58.28C43.2619 58.24 43.0419 58.11 42.7419 57.89C42.4419 57.67 42.1719 57.34 41.9319 56.9C41.7119 56.46 41.6119 55.89 41.6319 55.19C41.6519 54.59 41.6919 54.17 41.7519 53.93C41.8319 53.67 41.8019 53.53 41.6619 53.51C41.5619 53.49 41.3619 53.58 41.0619 53.78C40.7619 53.98 40.3719 54.3 39.8919 54.74C39.4119 55.18 38.8319 55.76 38.1519 56.48C37.9119 56.68 37.6419 56.93 37.3419 57.23C37.0619 57.51 36.7719 57.72 36.4719 57.86C36.1919 58 35.9419 57.97 35.7219 57.77L35.4219 57.5C35.2819 57.38 35.1619 57.22 35.0619 57.02C34.9619 56.82 34.9319 56.65 34.9719 56.51L35.8119 54.17C36.0519 53.65 36.2119 53.27 36.2919 53.03C36.3919 52.79 36.4319 52.64 36.4119 52.58C36.4119 52.52 36.3619 52.5 36.2619 52.52C36.1419 52.54 35.9719 52.65 35.7519 52.85C35.5319 53.03 35.3819 53.18 35.3019 53.3C35.2219 53.3 35.1119 53.38 34.9719 53.54C34.8519 53.7 34.7319 53.84 34.6119 53.96C34.4919 54.08 34.2819 54.31 33.9819 54.65C33.6819 54.97 33.3619 55.31 33.0219 55.67C32.7619 55.91 32.4619 56.23 32.1219 56.63C31.7819 57.03 31.4819 57.39 31.2219 57.71C30.9619 58.03 30.8019 58.19 30.7419 58.19C30.3819 58.17 30.0519 58.05 29.7519 57.83C29.4719 57.61 29.2819 57.34 29.1819 57.02C29.0619 56.8 29.0519 56.4 29.1519 55.82C29.2519 55.22 29.4419 54.27 29.7219 52.97C29.8019 52.67 29.8719 52.41 29.9319 52.19C30.0119 51.97 30.0919 51.75 30.1719 51.53C30.2519 51.31 30.3419 51.06 30.4419 50.78C30.5619 50.5 30.7119 50.16 30.8919 49.76C30.9919 49.48 31.0319 49.22 31.0119 48.98C30.9919 48.72 30.9719 48.51 30.9519 48.35C30.9519 48.05 31.0419 47.81 31.2219 47.63C31.4219 47.45 31.6419 47.33 31.8819 47.27C32.1219 47.19 32.3119 47.17 32.4519 47.21C33.0119 47.27 33.3919 47.47 33.5919 47.81C33.7919 48.15 33.9019 48.48 33.9219 48.8C33.9419 49.1 33.9019 49.37 33.8019 49.61C33.7019 49.85 33.6219 50.05 33.5619 50.21L33.2319 51.02C33.0319 51.48 32.8819 51.82 32.7819 52.04C32.7019 52.24 32.6519 52.38 32.6319 52.46C32.6319 52.52 32.6319 52.58 32.6319 52.64C32.6519 52.7 32.7419 52.67 32.9019 52.55C33.0619 52.43 33.2519 52.27 33.4719 52.07C33.7119 51.85 33.9319 51.66 34.1319 51.5C34.4919 51.2 34.8719 50.9 35.2719 50.6C35.6919 50.28 36.1019 50 36.5019 49.76C36.9019 49.52 37.2319 49.36 37.4919 49.28C37.8319 49.34 38.1419 49.51 38.4219 49.79C38.7219 50.07 38.9119 50.31 38.9919 50.51C39.0919 50.81 39.1019 51.08 39.0219 51.32C38.9619 51.56 38.9119 51.78 38.8719 51.98C38.8519 52.06 38.8119 52.21 38.7519 52.43C38.6919 52.65 38.6319 52.86 38.5719 53.06C38.5119 53.24 38.4819 53.33 38.4819 53.33C38.4819 53.33 38.5419 53.27 38.6619 53.15C38.7819 53.03 38.9419 52.89 39.1419 52.73C39.3419 52.55 39.5419 52.39 39.7419 52.25C40.7419 51.49 41.5319 51.01 42.1119 50.81C42.7119 50.59 43.2219 50.76 43.6419 51.32C43.8819 51.54 44.0319 51.84 44.0919 52.22C44.1719 52.6 44.2119 53.11 44.2119 53.75C44.2319 54.01 44.2519 54.3 44.2719 54.62C44.3119 54.94 44.3519 55.22 44.3919 55.46C44.4519 55.7 44.5019 55.85 44.5419 55.91C44.6019 55.99 44.7119 56.07 44.8719 56.15C45.0319 56.21 45.1819 56.26 45.3219 56.3C45.6019 56.44 45.7519 56.7 45.7719 57.08C45.8119 57.44 45.6719 57.72 45.3519 57.92C45.0519 58.1 44.7319 58.21 44.3919 58.25C44.0719 58.29 43.7419 58.3 43.4019 58.28ZM49.172 58.58C49.012 58.62 48.802 58.64 48.542 58.64C48.282 58.62 48.052 58.59 47.852 58.55C47.672 58.49 47.582 58.43 47.582 58.37C47.582 58.27 47.532 58.22 47.432 58.22C47.432 58.22 47.322 58.14 47.102 57.98C46.882 57.8 46.682 57.67 46.502 57.59C46.322 57.31 46.202 56.99 46.142 56.63C46.102 56.25 46.222 55.59 46.502 54.65C46.522 54.01 46.702 53.34 47.042 52.64C47.382 51.92 47.812 51.22 48.332 50.54C48.852 49.86 49.392 49.26 49.952 48.74C50.512 48.2 51.012 47.8 51.452 47.54C51.732 47.26 52.102 47.11 52.562 47.09C53.042 47.07 53.462 47.16 53.822 47.36C54.022 47.46 54.242 47.66 54.482 47.96C54.722 48.26 54.952 48.58 55.172 48.92C55.392 49.24 55.562 49.53 55.682 49.79C55.742 50.01 55.792 50.21 55.832 50.39C55.892 50.55 55.932 50.75 55.952 50.99C55.972 51.23 55.952 51.59 55.892 52.07C55.792 52.43 55.702 52.8 55.622 53.18C55.562 53.54 55.532 53.91 55.532 54.29C55.492 54.67 55.532 54.94 55.652 55.1C55.792 55.26 55.992 55.27 56.252 55.13C56.492 55.01 56.742 55 57.002 55.1C57.262 55.18 57.442 55.34 57.542 55.58C57.662 55.8 57.632 56.09 57.452 56.45C57.332 56.71 57.142 56.96 56.882 57.2C56.622 57.44 56.332 57.64 56.012 57.8C55.692 57.94 55.382 58.01 55.082 58.01C54.862 58.01 54.642 57.93 54.422 57.77C54.202 57.59 54.002 57.35 53.822 57.05C53.642 56.75 53.492 56.42 53.372 56.06L53.192 55.37L52.112 56.36C51.852 56.64 51.592 56.9 51.332 57.14C51.092 57.36 50.942 57.52 50.882 57.62C50.782 57.8 50.582 57.96 50.282 58.1C50.002 58.24 49.632 58.4 49.172 58.58ZM49.982 55.7C50.322 55.5 50.612 55.26 50.852 54.98C51.112 54.7 51.362 54.39 51.602 54.05C51.842 53.69 52.102 53.31 52.382 52.91C52.722 52.45 52.962 52.08 53.102 51.8C53.262 51.52 53.382 51.22 53.462 50.9C53.382 50.68 53.272 50.45 53.132 50.21C52.992 49.95 52.852 49.81 52.712 49.79C52.432 49.79 52.092 49.96 51.692 50.3C51.312 50.64 50.892 51.13 50.432 51.77C50.352 51.87 50.252 52.03 50.132 52.25C50.012 52.47 49.892 52.68 49.772 52.88C49.672 53.06 49.602 53.18 49.562 53.24C49.502 53.32 49.412 53.51 49.292 53.81C49.192 54.09 49.102 54.38 49.022 54.68C48.942 54.96 48.902 55.16 48.902 55.28C48.902 55.4 48.912 55.53 48.932 55.67C48.972 55.81 49.072 55.9 49.232 55.94C49.392 55.98 49.642 55.9 49.982 55.7ZM61.2066 58.37C61.1466 58.39 61.0166 58.38 60.8166 58.34C60.6366 58.3 60.4466 58.25 60.2466 58.19C60.0666 58.13 59.9566 58.08 59.9166 58.04C59.8366 57.96 59.7266 57.82 59.5866 57.62C59.4466 57.4 59.3666 57.11 59.3466 56.75C59.3466 56.39 59.5166 55.96 59.8566 55.46C59.9566 55.26 60.0766 54.96 60.2166 54.56C60.3566 54.16 60.4966 53.74 60.6366 53.3C60.7966 52.84 60.9366 52.43 61.0566 52.07C61.1966 51.71 61.2966 51.46 61.3566 51.32C61.3966 50.98 61.3766 50.74 61.2966 50.6C61.2366 50.44 61.0666 50.35 60.7866 50.33C60.5866 50.33 60.4266 50.26 60.3066 50.12C60.2066 49.98 60.1566 49.73 60.1566 49.37C60.1966 49.09 60.2666 48.85 60.3666 48.65C60.4866 48.43 60.6466 48.25 60.8466 48.11C61.0466 48.01 61.2966 47.94 61.5966 47.9C61.9166 47.86 62.2266 47.85 62.5266 47.87C62.8266 47.89 63.0366 47.96 63.1566 48.08C63.2966 48.16 63.4066 48.34 63.4866 48.62C63.5866 48.88 63.6666 49.15 63.7266 49.43C63.7866 49.71 63.8266 49.92 63.8466 50.06C64.0466 49.9 64.2666 49.68 64.5066 49.4C64.7666 49.1 65.0266 48.82 65.2866 48.56C65.6066 48.34 65.9866 48.12 66.4266 47.9C66.8666 47.66 67.1866 47.54 67.3866 47.54C67.6066 47.54 67.8766 47.65 68.1966 47.87C68.5166 48.07 68.7166 48.25 68.7966 48.41C68.9966 48.75 69.1366 49.11 69.2166 49.49C69.3166 49.85 69.2566 50.17 69.0366 50.45C68.8366 50.71 68.5566 50.97 68.1966 51.23C67.8366 51.47 67.3866 51.54 66.8466 51.44C66.7266 51.4 66.5966 51.25 66.4566 50.99C66.3366 50.73 66.2666 50.54 66.2466 50.42C66.2466 50.36 66.1566 50.42 65.9766 50.6C65.8166 50.76 65.6166 50.96 65.3766 51.2C65.1566 51.44 64.9466 51.66 64.7466 51.86C64.4066 52.28 64.0466 52.85 63.6666 53.57C63.2866 54.29 62.8366 55.16 62.3166 56.18C62.0766 56.68 61.8766 57.16 61.7166 57.62C61.5566 58.06 61.3866 58.31 61.2066 58.37ZM77.3272 59.36C77.1072 59.44 76.8572 59.48 76.5772 59.48C76.3172 59.5 76.0172 59.38 75.6772 59.12C75.4772 58.9 75.3372 58.67 75.2572 58.43C75.1972 58.19 75.1672 57.82 75.1672 57.32C75.2072 57.02 75.2872 56.59 75.4072 56.03C75.5272 55.45 75.6572 54.85 75.7972 54.23C75.9572 53.59 76.0972 53.02 76.2172 52.52C76.3572 52 76.4672 51.65 76.5472 51.47C76.6872 50.99 76.7172 50.69 76.6372 50.57C76.5572 50.45 76.3172 50.38 75.9172 50.36C75.4572 50.34 74.9772 50.56 74.4772 51.02C73.9772 51.48 73.4072 52.21 72.7672 53.21C72.2872 53.95 71.9972 54.56 71.8972 55.04C71.7972 55.5 71.7872 55.82 71.8672 56C71.9072 56.08 71.9772 56.13 72.0772 56.15C72.1972 56.15 72.3372 56.12 72.4972 56.06C72.6772 56 72.8672 55.92 73.0672 55.82C73.2072 55.74 73.3772 55.66 73.5772 55.58C73.7972 55.48 74.0072 55.39 74.2072 55.31C74.3272 55.31 74.4072 55.38 74.4472 55.52C74.5072 55.66 74.5372 55.83 74.5372 56.03C74.5372 56.11 74.5572 56.26 74.5972 56.48C74.6572 56.7 74.7572 56.85 74.8972 56.93C74.9772 57.01 74.8072 57.18 74.3872 57.44C73.9872 57.68 73.4672 57.98 72.8272 58.34C72.2272 58.48 71.7772 58.55 71.4772 58.55C71.1972 58.55 70.8872 58.42 70.5472 58.16C69.9872 57.82 69.6272 57.19 69.4672 56.27C69.3272 55.35 69.4472 54.33 69.8272 53.21C70.2072 52.31 70.6272 51.54 71.0872 50.9C71.5672 50.24 72.0672 49.64 72.5872 49.1C72.6672 49.02 72.9172 48.86 73.3372 48.62C73.7572 48.38 74.1872 48.19 74.6272 48.05C75.1272 47.89 75.5472 47.83 75.8872 47.87C76.2472 47.89 76.5872 48.01 76.9072 48.23C77.2672 48.31 77.5072 48.3 77.6272 48.2C77.7672 48.1 77.9272 47.82 78.1072 47.36C78.4672 46.36 78.8472 45.35 79.2472 44.33C79.6472 43.29 80.0672 42.24 80.5072 41.18C80.7072 40.8 80.8272 40.51 80.8672 40.31C80.9272 40.09 80.9972 39.94 81.0772 39.86L81.9172 39.59C82.1372 39.53 82.3872 39.63 82.6672 39.89C82.9672 40.15 83.1572 40.4 83.2372 40.64C83.2372 40.82 83.1572 41.22 82.9972 41.84C82.8372 42.44 82.5772 43.16 82.2172 44C81.8972 44.74 81.5772 45.49 81.2572 46.25C80.9572 46.99 80.6672 47.78 80.3872 48.62C80.1672 49.24 79.9672 49.74 79.7872 50.12C79.6072 50.5 79.4872 50.83 79.4272 51.11C79.3072 51.63 79.1572 52.1 78.9772 52.52C78.8172 52.92 78.7072 53.2 78.6472 53.36C78.3872 54.12 78.1872 54.75 78.0472 55.25C77.9072 55.73 77.8172 56.15 77.7772 56.51C77.7372 56.85 77.7272 57.19 77.7472 57.53C77.7672 57.85 77.8072 58.22 77.8672 58.64C77.8672 58.72 77.8072 58.84 77.6872 59C77.5872 59.14 77.4672 59.26 77.3272 59.36ZM83.6975 58.73C82.9175 58.41 82.3775 57.89 82.0775 57.17C81.7775 56.45 81.6975 55.49 81.8375 54.29C81.8775 53.67 81.8575 53.26 81.7775 53.06C81.6975 52.84 81.5475 52.63 81.3275 52.43C81.2675 52.35 81.1275 52.22 80.9075 52.04C80.6875 51.84 80.5875 51.69 80.6075 51.59C80.5875 51.45 80.6175 51.28 80.6975 51.08C80.7775 50.86 80.8475 50.74 80.9075 50.72C81.0475 50.66 81.1875 50.59 81.3275 50.51C81.4875 50.43 81.6075 50.41 81.6875 50.45C81.7675 50.45 81.8875 50.5 82.0475 50.6C82.2275 50.7 82.3175 50.79 82.3175 50.87C82.3975 51.01 82.5175 50.95 82.6775 50.69C82.8575 50.43 83.0475 50.1 83.2475 49.7C83.4475 49.38 83.6975 49.08 83.9975 48.8C84.2975 48.52 84.5975 48.27 84.8975 48.05C85.2175 47.81 85.4875 47.63 85.7075 47.51C85.8075 47.47 85.9975 47.41 86.2775 47.33C86.5775 47.25 86.8875 47.19 87.2075 47.15C87.5275 47.09 87.7675 47.07 87.9275 47.09C88.2875 47.11 88.6675 47.26 89.0675 47.54C89.4675 47.82 89.7775 48.08 89.9975 48.32C90.2575 48.5 90.4275 48.78 90.5075 49.16C90.6075 49.52 90.6475 49.9 90.6275 50.3C90.6075 50.7 90.5275 51.04 90.3875 51.32C90.3275 51.52 90.1175 51.8 89.7575 52.16C89.3975 52.52 88.9975 52.87 88.5575 53.21C88.1375 53.53 87.7775 53.75 87.4775 53.87C87.2175 53.93 86.9075 53.98 86.5475 54.02C86.1875 54.04 85.8475 54.04 85.5275 54.02C85.2275 53.98 85.0175 53.93 84.8975 53.87C84.7575 53.79 84.6375 53.82 84.5375 53.96C84.4575 54.08 84.3875 54.42 84.3275 54.98C84.3075 55.2 84.3075 55.39 84.3275 55.55C84.3675 55.71 84.4075 55.83 84.4475 55.91C84.5875 56.15 84.7275 56.33 84.8675 56.45C85.0075 56.55 85.2675 56.58 85.6475 56.54C86.0275 56.5 86.4075 56.27 86.7875 55.85C87.1875 55.41 87.5475 55.06 87.8675 54.8C87.9475 54.66 88.1175 54.57 88.3775 54.53C88.6575 54.47 88.9875 54.49 89.3675 54.59C89.5875 54.73 89.6875 54.95 89.6675 55.25C89.6675 55.55 89.5075 55.99 89.1875 56.57C89.1275 56.71 88.9575 56.92 88.6775 57.2C88.4175 57.46 88.1275 57.73 87.8075 58.01C87.5075 58.27 87.2575 58.46 87.0575 58.58C86.4575 58.9 85.8675 59.05 85.2875 59.03C84.7075 59.01 84.1775 58.91 83.6975 58.73ZM85.9175 51.98C86.2175 51.9 86.4675 51.82 86.6675 51.74C86.8875 51.66 87.0975 51.53 87.2975 51.35C87.4975 51.17 87.7275 50.9 87.9875 50.54C88.0675 50.32 88.1075 50.13 88.1075 49.97C88.1275 49.81 88.1175 49.71 88.0775 49.67C87.9175 49.51 87.7375 49.46 87.5375 49.52C87.3575 49.56 87.1575 49.66 86.9375 49.82C86.7975 49.88 86.5975 50.01 86.3375 50.21C86.0975 50.39 85.8575 50.6 85.6175 50.84C85.3975 51.06 85.2175 51.27 85.0775 51.47C84.9575 51.65 84.9375 51.76 85.0175 51.8C84.9775 51.88 85.0875 51.93 85.3475 51.95C85.6275 51.97 85.8175 51.98 85.9175 51.98ZM97.497 58.4C96.897 58.74 96.257 58.94 95.577 59C94.917 59.04 94.297 58.95 93.717 58.73C93.137 58.49 92.667 58.14 92.307 57.68C92.107 57.42 91.917 57.01 91.737 56.45C91.557 55.87 91.527 55.09 91.647 54.11C91.767 53.19 92.047 52.26 92.487 51.32C92.947 50.38 93.507 49.55 94.167 48.83C94.827 48.11 95.547 47.62 96.327 47.36C96.607 47.26 96.887 47.19 97.167 47.15C97.467 47.09 97.857 47.08 98.337 47.12C98.797 47.18 99.207 47.3 99.567 47.48C99.927 47.64 100.187 47.82 100.347 48.02C100.667 48.34 100.877 48.65 100.977 48.95C101.077 49.25 101.117 49.54 101.097 49.82C100.997 50.46 100.707 51.15 100.227 51.89C99.767 52.63 99.117 53.18 98.277 53.54C97.937 53.68 97.537 53.77 97.077 53.81C96.617 53.85 95.987 53.79 95.187 53.63C94.707 53.53 94.387 53.58 94.227 53.78C94.087 53.98 94.027 54.37 94.047 54.95C94.087 55.31 94.167 55.63 94.287 55.91C94.427 56.17 94.677 56.35 95.037 56.45C95.497 56.53 95.827 56.54 96.027 56.48C96.227 56.4 96.477 56.29 96.777 56.15C96.937 56.05 97.087 55.94 97.227 55.82C97.387 55.7 97.537 55.58 97.677 55.46C97.837 55.34 97.967 55.25 98.067 55.19C98.167 55.11 98.267 55.06 98.367 55.04C98.467 55.02 98.567 55.01 98.667 55.01C98.887 55.03 99.097 55.15 99.297 55.37C99.497 55.59 99.627 55.8 99.687 56C99.687 56.16 99.587 56.39 99.387 56.69C99.187 56.97 98.917 57.27 98.577 57.59C98.257 57.89 97.897 58.16 97.497 58.4ZM97.107 51.71C97.247 51.65 97.447 51.51 97.707 51.29C97.987 51.07 98.237 50.84 98.457 50.6C98.677 50.34 98.787 50.14 98.787 50C98.787 49.78 98.637 49.59 98.337 49.43C98.057 49.27 97.687 49.24 97.227 49.34C97.067 49.38 96.877 49.49 96.657 49.67C96.437 49.85 96.217 50.06 95.997 50.3C95.777 50.52 95.587 50.74 95.427 50.96C95.267 51.16 95.157 51.32 95.097 51.44C95.177 51.54 95.337 51.62 95.577 51.68C95.817 51.74 96.077 51.77 96.357 51.77C96.657 51.77 96.907 51.75 97.107 51.71ZM112.017 58.28C111.577 58.24 111.207 58.15 110.907 58.01C110.627 57.85 110.397 57.54 110.217 57.08C110.137 56.76 110.097 56.43 110.097 56.09C110.117 55.73 110.147 55.39 110.187 55.07C110.227 54.73 110.247 54.44 110.247 54.2C110.247 54.16 110.247 54.08 110.247 53.96C110.247 53.84 110.247 53.73 110.247 53.63C110.207 53.33 110.127 53.15 110.007 53.09C109.907 53.01 109.727 53.02 109.467 53.12C109.047 53.32 108.587 53.59 108.087 53.93C107.607 54.25 107.097 54.63 106.557 55.07C106.037 55.49 105.497 55.94 104.937 56.42C104.497 56.9 104.167 57.29 103.947 57.59C103.747 57.89 103.537 58.04 103.317 58.04C103.157 58.12 102.987 58.1 102.807 57.98C102.627 57.86 102.437 57.72 102.237 57.56C102.097 57.4 101.927 57.2 101.727 56.96C101.547 56.7 101.437 56.53 101.397 56.45C101.397 56.13 101.417 55.84 101.457 55.58C101.517 55.32 101.597 55.05 101.697 54.77C101.817 54.49 101.957 54.17 102.117 53.81C102.197 53.67 102.267 53.53 102.327 53.39C102.407 53.23 102.497 53.06 102.597 52.88C102.677 52.6 102.787 52.28 102.927 51.92C103.087 51.56 103.237 51.22 103.377 50.9C103.597 50.38 103.767 49.93 103.887 49.55C104.007 49.17 104.107 48.76 104.187 48.32C104.167 48.28 104.177 48.22 104.217 48.14C104.257 48.06 104.317 48.01 104.397 47.99H104.427H104.457C104.597 47.89 104.857 47.88 105.237 47.96C105.637 48.02 105.937 48.13 106.137 48.29C106.557 48.65 106.757 49.12 106.737 49.7C106.717 50.28 106.417 51.04 105.837 51.98C105.697 52.3 105.547 52.6 105.387 52.88C105.247 53.14 105.177 53.32 105.177 53.42C105.177 53.42 105.257 53.36 105.417 53.24C105.577 53.12 105.767 52.98 105.987 52.82C106.207 52.64 106.397 52.5 106.557 52.4C106.657 52.3 106.877 52.12 107.217 51.86C107.557 51.58 107.927 51.29 108.327 50.99C108.727 50.69 109.047 50.46 109.287 50.3C109.507 50.14 109.787 49.98 110.127 49.82C110.467 49.64 110.677 49.55 110.757 49.55C110.957 49.55 111.197 49.62 111.477 49.76C111.777 49.9 112.047 50.07 112.287 50.27C112.547 50.45 112.697 50.62 112.737 50.78C112.737 50.86 112.727 50.97 112.707 51.11C112.687 51.23 112.677 51.34 112.677 51.44C112.657 51.76 112.647 52.15 112.647 52.61C112.667 53.05 112.677 53.5 112.677 53.96C112.677 54.4 112.637 54.8 112.557 55.16C112.557 55.16 112.567 55.18 112.587 55.22C112.607 55.24 112.627 55.28 112.647 55.34C112.627 55.36 112.617 55.4 112.617 55.46C112.637 55.5 112.647 55.52 112.647 55.52C112.687 55.66 112.727 55.8 112.767 55.94C112.827 56.08 112.897 56.24 112.977 56.42C113.057 56.58 113.147 56.79 113.247 57.05C113.227 57.31 113.077 57.57 112.797 57.83C112.537 58.07 112.277 58.22 112.017 58.28Z" fill="white"/>
</svg>
