<svg width="40" height="41" viewBox="0 0 40 41" fill="none" xmlns="http://www.w3.org/2000/svg">
<rect y="0.5" width="40" height="40" rx="15" fill="black"/>
<path d="M18.5889 19.8986C18.5889 19.8986 20.4819 19.7547 20.4819 17.4896C20.4819 15.2264 19.198 14.1107 17.2356 14.1107L10.5128 14.1001V26.6076H17.3919C17.3919 26.6076 20.8315 26.7164 20.8315 22.8553C20.8315 22.8553 21.0842 19.8986 18.5889 19.8986ZM13.0143 15.9762H16.4539C16.4539 15.9762 17.6308 15.9956 17.6308 17.5215C17.6308 19.1031 16.4539 19.1031 16.4539 19.1031H13.0143V15.9762ZM16.7666 24.7315H13.0143V20.9792H16.7666C16.7666 20.9792 18.6427 20.9986 18.6427 22.8553C18.6427 24.7121 17.0367 24.7315 16.7666 24.7315Z" fill="#93CCC6"/>
<path d="M26.1473 17.2273C21.4489 17.2273 21.457 21.9176 21.457 21.9176C21.457 21.9176 21.1443 26.6079 26.1473 26.6079C26.1473 26.6079 30.525 26.6079 30.525 22.8556H28.0235C28.0235 22.8556 28.0235 24.7318 26.1473 24.7318C26.1473 24.7318 24.2712 24.7318 24.2712 22.2303C24.2712 22.2303 29.2742 22.2303 30.525 22.2303C30.525 20.9795 30.525 17.2273 26.1473 17.2273ZM24.2712 20.9795C24.2712 20.9795 24.2299 19.1034 26.1473 19.1034C28.0641 19.1034 28.0235 20.9795 28.0235 20.9795H24.2712Z" fill="#93CCC6"/>
<path d="M28.649 15.351H23.646V16.6017H28.649V15.351Z" fill="#93CCC6"/>
</svg>
