<svg width="40" height="41" viewBox="0 0 40 41" fill="none" xmlns="http://www.w3.org/2000/svg">
<rect y="0.5" width="40" height="40" rx="15" fill="black"/>
<path d="M16.8008 20.4945C16.8008 18.7283 18.2331 17.2961 20.0004 17.2961C21.7677 17.2961 23.2008 18.7283 23.2008 20.4945C23.2008 22.2608 21.7677 23.693 20.0004 23.693C18.2331 23.693 16.8008 22.2608 16.8008 20.4945ZM15.0707 20.4945C15.0707 23.2156 17.2777 25.4213 20.0004 25.4213C22.7231 25.4213 24.9301 23.2156 24.9301 20.4945C24.9301 17.7735 22.7231 15.5678 20.0004 15.5678C17.2777 15.5678 15.0707 17.7735 15.0707 20.4945ZM23.9732 15.3725C23.9731 15.6002 24.0406 15.8228 24.1671 16.0122C24.2936 16.2016 24.4735 16.3492 24.6839 16.4365C24.8944 16.5237 25.126 16.5466 25.3495 16.5022C25.573 16.4579 25.7783 16.3483 25.9395 16.1874C26.1007 16.0264 26.2105 15.8213 26.255 15.598C26.2996 15.3747 26.2769 15.1432 26.1898 14.9327C26.1026 14.7223 25.9551 14.5424 25.7657 14.4159C25.5762 14.2893 25.3535 14.2217 25.1257 14.2216H25.1252C24.8198 14.2217 24.5269 14.343 24.3109 14.5588C24.0949 14.7746 23.9734 15.0672 23.9732 15.3725V15.3725ZM16.1218 28.3043C15.1858 28.2617 14.6771 28.1059 14.339 27.9743C13.8908 27.7999 13.571 27.5922 13.2347 27.2566C12.8985 26.921 12.6903 26.6017 12.5166 26.1537C12.3848 25.816 12.2289 25.3074 12.1864 24.372C12.1398 23.3606 12.1305 23.0568 12.1305 20.4946C12.1305 17.9324 12.1406 17.6294 12.1864 16.6172C12.229 15.6818 12.386 15.1742 12.5166 14.8355C12.6911 14.3875 12.8989 14.0679 13.2347 13.7319C13.5705 13.3958 13.89 13.1878 14.339 13.0142C14.6769 12.8825 15.1858 12.7266 16.1218 12.6841C17.1338 12.6376 17.4378 12.6283 20.0004 12.6283C22.563 12.6283 22.8673 12.6384 23.8801 12.6841C24.8161 12.7267 25.324 12.8837 25.6629 13.0142C26.1111 13.1878 26.431 13.3963 26.7672 13.7319C27.1034 14.0674 27.3108 14.3875 27.4853 14.8355C27.6171 15.1732 27.773 15.6818 27.8156 16.6172C27.8621 17.6294 27.8714 17.9324 27.8714 20.4946C27.8714 23.0568 27.8621 23.3598 27.8156 24.372C27.7729 25.3074 27.6163 25.8159 27.4853 26.1537C27.3108 26.6017 27.103 26.9213 26.7672 27.2566C26.4314 27.5919 26.1111 27.7999 25.6629 27.9743C25.325 28.106 24.8161 28.2618 23.8801 28.3043C22.8681 28.3508 22.5641 28.3601 20.0004 28.3601C17.4366 28.3601 17.1335 28.3508 16.1218 28.3043V28.3043ZM16.0423 10.958C15.0203 11.0045 14.3219 11.1665 13.7121 11.4037C13.0804 11.6486 12.5457 11.9772 12.0114 12.5103C11.4771 13.0435 11.1491 13.5787 10.9041 14.21C10.6667 14.8199 10.5047 15.5175 10.4581 16.5389C10.4108 17.5619 10.4 17.8889 10.4 20.4945C10.4 23.1001 10.4108 23.4272 10.4581 24.4502C10.5047 25.4717 10.6667 26.1692 10.9041 26.7791C11.1491 27.41 11.4772 27.9458 12.0114 28.4787C12.5456 29.0116 13.0804 29.3398 13.7121 29.5854C14.3231 29.8226 15.0203 29.9845 16.0423 30.0311C17.0665 30.0776 17.3932 30.0892 20.0004 30.0892C22.6075 30.0892 22.9348 30.0783 23.9584 30.0311C24.9805 29.9845 25.6784 29.8226 26.2887 29.5854C26.92 29.3398 27.455 29.0119 27.9894 28.4787C28.5237 27.9456 28.8509 27.41 29.0967 26.7791C29.334 26.1692 29.4969 25.4716 29.5426 24.4502C29.5892 23.4264 29.6 23.1001 29.6 20.4945C29.6 17.8889 29.5892 17.5619 29.5426 16.5389C29.4961 15.5174 29.334 14.8195 29.0967 14.21C28.8509 13.5791 28.5228 13.0443 27.9894 12.5103C27.4559 11.9763 26.92 11.6486 26.2895 11.4037C25.6784 11.1665 24.9805 11.0038 23.9592 10.958C22.9356 10.9115 22.6083 10.8999 20.0012 10.8999C17.394 10.8999 17.0665 10.9107 16.0423 10.958Z" fill="#93CCC6"/>
</svg>
