<svg width="943" height="224" viewBox="0 0 943 224" fill="none" xmlns="http://www.w3.org/2000/svg">
<path d="M127.432 155.997V155.471C127.432 152.979 132.161 152.979 132.161 148.371V109.19C132.161 104.057 127.432 103.006 127.432 101.039V100.783C127.432 99.8669 128.227 99.4627 129.399 98.816L139.518 93.8174C142.28 92.4971 143.586 93.8174 143.586 95.6633V148.384C143.586 152.992 148.841 152.992 148.841 155.485V156.01C148.841 157.061 147.655 157.721 146.079 157.721H129.911C128.362 157.708 127.432 157.048 127.432 155.997ZM128.752 73.9578C128.752 69.094 132.175 65.6718 137.564 65.6718C142.697 65.6718 146.106 69.094 146.106 73.9578C146.106 78.8217 142.684 82.1092 137.564 82.1092C132.175 82.1092 128.752 78.8217 128.752 73.9578Z" fill="black"/>
<path d="M201.454 125.763C201.454 106.038 215.911 93.4133 233.804 93.292C248.139 93.1573 259.443 102.238 259.443 109.595C259.443 112.222 257.867 114.324 254.189 114.203C246.563 113.933 246.697 97.6304 231.702 97.5091C220.788 97.5091 213.028 107.628 213.028 120.643C213.028 139.047 223.416 150.756 238.007 150.756C247.209 150.756 253.259 144.976 256.277 138.401C257.328 136.433 260.615 136.824 260.09 139.451C258.244 149.044 249.567 159.042 234.315 159.042C216.046 159.028 201.454 144.827 201.454 125.763Z" fill="black"/>
<path d="M399.067 140.219C397.356 148.101 389.204 159.028 373.036 159.028C354.767 159.028 341.482 145.622 341.482 125.628C341.482 106.563 354.632 93.4133 372.902 93.2785C386.052 93.1438 396.049 99.4628 396.049 110.767C396.049 119.834 387.763 127.204 375.408 129.697C366.987 131.273 359.631 130.882 353.19 130.357C356.087 142.712 364.494 150.607 376.068 150.607C386.065 150.607 392.371 145.474 395.133 139.169C396.305 137.323 399.336 137.727 399.067 140.219ZM352.126 120.899C352.126 122.475 352.261 124.052 352.395 125.628C358.31 126.019 366.205 126.288 373.171 124.833C380.528 123.257 385.001 119.174 384.879 110.767C384.745 103.141 379.099 97.7517 370.948 97.7517C359.617 97.7517 352.126 108.14 352.126 120.899Z" fill="black"/>
<path d="M474.8 155.606V156.131C474.8 157.182 473.749 157.842 472.038 157.842H456.396C454.685 157.842 453.634 157.182 453.634 156.131V155.606C453.634 153.113 458.632 153.113 458.363 148.371L457.042 122.071C456.382 106.024 449.942 98.3984 440.874 98.3984C431.147 98.3984 424.437 106.159 424.437 116.547V148.505C424.437 153.113 429.692 153.113 429.692 155.606V156.131C429.692 157.182 428.641 157.842 426.93 157.842H410.492C408.916 157.842 407.865 157.182 407.865 156.131V155.606C407.865 153.113 412.998 153.113 412.998 148.505V108.665C412.998 103.006 407.474 103.276 407.474 100.904V100.514C407.474 99.5975 408.269 99.072 409.576 98.5466L419.438 93.8174C421.931 92.4971 423.117 93.8174 423.117 95.7845V105.378C426.93 98.0211 434.555 93.2785 443.623 93.2785C456.503 93.2785 467.296 101.955 468.602 122.34L470.044 148.25C470.327 153.113 474.8 153.113 474.8 155.606Z" fill="black"/>
<path d="M511.609 143.898C511.609 140.745 513.711 139.034 516.729 139.034C524.88 139.034 520.677 155.08 538.3 155.08C546.721 155.08 553.282 150.998 553.282 143.507C553.282 124.173 513.051 137.201 513.051 111.292C513.051 101.16 523.304 93.2785 537.774 93.2785C554.077 93.2785 563.414 101.699 563.414 108.8C563.414 111.427 561.312 113.408 558.685 113.408C551.194 113.408 554.481 97.3744 538.3 97.3744C530.674 97.3744 524.759 102.238 524.759 108.813C524.759 127.743 564.856 114.863 564.856 141.163C564.856 151.025 554.602 158.92 538.3 158.92C520.811 158.893 511.609 150.082 511.609 143.898Z" fill="black"/>
<path d="M619.409 125.237C619.409 106.954 633.34 93.2785 651.354 93.2785C671.079 93.2785 684.754 108.261 684.754 126.679C684.754 144.827 672.265 159.028 653.725 159.028C632.828 159.028 619.409 143.116 619.409 125.237ZM673.194 130.626C673.194 112.222 663.467 97.6304 650.047 97.6304C638.878 97.6304 631.117 106.833 631.117 121.559C631.117 138.387 640.845 154.69 655.315 154.69C665.568 154.69 673.194 145.353 673.194 130.626Z" fill="black"/>
<path d="M737.88 103.41C737.88 106.833 736.303 109.595 732.625 109.595C725.781 109.595 729.068 100.392 720.917 100.392C713.681 100.392 709.734 108.678 709.734 118.541V148.519C709.734 153.127 715.258 153.248 715.258 155.619V156.145C715.258 157.196 714.342 157.721 712.631 157.721H696.328C694.617 157.721 693.701 157.196 693.701 156.145V155.619C693.701 153.248 698.564 153.127 698.564 148.519V108.53C698.564 103.532 693.31 103.397 693.31 100.904V100.648C693.31 99.7322 694.105 98.9373 695.277 98.2771L705.274 93.804C707.767 92.6183 708.696 93.6692 708.696 95.6498V106.172C711.593 97.7516 717.643 93.292 725.794 93.292C733.662 93.2785 737.88 97.8864 737.88 103.41Z" fill="black"/>
<path d="M745.896 155.997V155.471C745.896 152.979 750.625 152.979 750.625 148.371V109.19C750.625 104.057 745.896 103.006 745.896 101.039V100.783C745.896 99.8669 746.691 99.4627 747.863 98.816L757.982 93.8174C760.744 92.4971 762.064 93.8174 762.064 95.6633V148.384C762.064 152.992 767.319 152.992 767.319 155.485V156.01C767.319 157.061 766.133 157.721 764.557 157.721H748.389C746.812 157.708 745.896 157.048 745.896 155.997ZM747.203 73.9578C747.203 69.094 750.625 65.6718 756.015 65.6718C761.148 65.6718 764.557 69.094 764.557 73.9578C764.557 78.8217 761.134 82.1092 756.015 82.1092C750.625 82.1092 747.203 78.8217 747.203 73.9578Z" fill="black"/>
<path d="M833.324 140.219C831.613 148.101 823.462 159.028 807.294 159.028C789.011 159.028 775.739 145.622 775.739 125.628C775.739 106.563 788.889 93.4133 807.159 93.2785C820.309 93.1438 830.306 99.4628 830.306 110.767C830.306 119.834 822.02 127.204 809.665 129.697C801.244 131.273 793.888 130.882 787.448 130.357C790.344 142.712 798.752 150.607 810.325 150.607C820.323 150.607 826.628 145.474 829.39 139.169C830.562 137.323 833.58 137.727 833.324 140.219ZM786.383 120.899C786.383 122.475 786.518 124.052 786.653 125.628C792.568 126.019 800.463 126.288 807.429 124.833C814.785 123.257 819.258 119.174 819.137 110.767C819.002 103.141 813.357 97.7517 805.192 97.7517C793.874 97.7517 786.383 108.14 786.383 120.899Z" fill="black"/>
<path d="M841.866 143.898C841.866 140.745 843.968 139.034 846.999 139.034C855.151 139.034 850.947 155.08 868.57 155.08C876.991 155.08 883.553 150.998 883.553 143.507C883.553 124.173 843.321 137.201 843.321 111.292C843.321 101.16 853.574 93.2785 868.045 93.2785C884.347 93.2785 893.684 101.699 893.684 108.8C893.684 111.427 891.583 113.408 888.955 113.408C881.464 113.408 884.752 97.3744 868.57 97.3744C860.944 97.3744 855.03 102.238 855.03 108.813C855.03 127.743 895.126 114.863 895.126 141.163C895.126 151.025 884.873 158.92 868.57 158.92C851.068 158.893 841.866 150.082 841.866 143.898Z" fill="black"/>
<path d="M112.975 150.082L92.9942 121.95C104.959 114.849 108.771 103.666 108.771 98.6813C108.771 95.6498 107.06 93.4132 103.382 93.4132C92.7383 93.4132 102.466 121.559 69.8471 122.475V86.3263V68.2451C69.8471 66.3993 68.4055 65.0924 66.0342 66.278L54.9861 71.4114C53.6792 71.9234 53.019 72.4488 53.019 73.4997V73.6345C53.019 76.0058 58.1523 77.0567 58.1523 82.0553V92.4162V148.115C58.1523 152.723 53.2885 152.723 53.2885 155.471V155.997C53.2885 157.048 54.3394 157.708 56.0505 157.708H72.3532C74.0643 157.708 75.1152 157.048 75.1152 155.997V155.471C75.1152 152.709 69.8606 152.709 69.8606 148.115V127.999C75.1152 127.864 79.5883 127.083 83.6707 125.897L100.499 150.095C102.345 152.992 98.0063 152.857 98.0063 155.485V155.875C98.0063 156.926 98.6665 157.721 99.9734 157.721H116.936C118.257 157.721 118.903 157.061 118.903 156.01V155.619C118.89 152.844 114.821 152.709 112.975 150.082Z" fill="black"/>
<path d="M330.434 148.236L328.992 121.801C327.807 101.955 317.028 93.265 304.148 93.265C295.727 93.265 288.626 97.3474 284.557 103.653L284.733 82.2708H284.706L284.827 68.0026C284.827 66.0355 283.385 65.1059 281.014 66.2915L270.235 71.0207C269.05 71.5461 268.389 72.2063 268.389 73.2572V73.6479C268.389 75.7498 273.388 76.0192 273.388 81.1391V83.0792H273.375V148.465C273.375 153.073 268.511 152.938 268.511 155.565V155.956C268.511 157.007 269.427 157.667 271.003 157.667H287.441C289.017 157.667 290.203 157.007 290.203 155.956V155.565C290.203 152.938 284.948 153.073 284.948 148.465V116.56C284.948 106.172 291.658 98.4118 301.386 98.4118C310.453 98.4118 316.907 106.038 317.553 121.559L318.874 148.384C319.143 152.992 314.145 153.113 314.145 155.619V156.145C314.145 157.196 315.196 157.721 316.772 157.721H332.549C334.126 157.721 335.177 157.196 335.177 156.145V155.619C335.177 153.113 330.838 152.979 330.434 148.236Z" fill="black"/>
<path d="M194.354 99.8535C195.405 99.8535 196.321 99.0586 196.321 97.8864V96.566C196.321 95.5151 195.405 94.5989 194.354 94.5989H176.219L176.084 82.1092C176.084 80.3981 175.559 79.4819 173.982 79.4819H172.662C171.476 79.4819 170.56 80.3981 170.425 82.1092C169.765 89.6003 166.747 94.5989 160.428 94.5989H155.699C154.379 94.5989 153.732 95.3938 153.732 96.566V97.8864C153.732 99.072 154.527 99.8535 155.699 99.8535H164.376V139.169C164.376 151.982 170.627 158.422 180.005 158.974C180.207 158.988 180.409 158.988 180.611 159.001C180.854 159.015 181.096 159.028 181.339 159.028C181.446 159.028 181.541 159.015 181.648 159.015C181.824 159.015 182.012 159.001 182.187 158.988C183.925 158.907 185.313 158.624 186.351 158.193C190.958 156.657 194.529 153.1 196.186 148.708C197.021 146.498 194.111 145.258 192.683 146.821C191.012 150.068 187.779 151.941 183.737 151.47C179.291 150.971 176.219 146.134 176.219 139.29V99.8535H194.354Z" fill="black"/>
<path d="M612.578 99.8535C613.629 99.8535 614.545 99.0586 614.545 97.8864V96.566C614.545 95.5151 613.629 94.5989 612.578 94.5989H594.429L594.295 82.1092C594.295 80.3981 593.769 79.4819 592.193 79.4819H590.872C589.687 79.4819 588.771 80.3981 588.636 82.1092C587.976 89.6003 584.958 94.5989 578.639 94.5989H573.91C572.589 94.5989 571.942 95.3938 571.942 96.566V97.8864C571.942 99.072 572.737 99.8535 573.91 99.8535H582.586V139.169C582.586 151.982 588.838 158.422 598.215 158.974C598.417 158.988 598.62 158.988 598.822 159.001C599.064 159.015 599.307 159.028 599.549 159.028C599.657 159.028 599.751 159.015 599.859 159.015C600.034 159.015 600.223 159.001 600.398 158.988C602.136 158.907 603.524 158.624 604.561 158.193C609.169 156.657 612.74 153.1 614.397 148.708C615.232 146.498 612.322 145.258 610.894 146.821C609.223 150.068 605.989 151.941 601.947 151.47C597.501 150.971 594.429 146.134 594.429 139.29V99.8535H612.578Z" fill="black"/>
</svg>
