<svg width="258" height="61" viewBox="0 0 258 61" fill="none" xmlns="http://www.w3.org/2000/svg">
<path d="M34.8647 42.4813V42.338C34.8647 41.6594 36.1586 41.6594 36.1586 40.4046V29.7347C36.1586 28.3369 34.8647 28.0507 34.8647 27.515V27.4453C34.8647 27.1958 35.0823 27.0858 35.4029 26.9097L38.1714 25.5484C38.9271 25.1889 39.2844 25.5484 39.2844 26.0511V40.4081C39.2844 41.6629 40.7221 41.6629 40.7221 42.3418V42.4848C40.7221 42.771 40.3977 42.9508 39.9665 42.9508H35.543C35.1192 42.9472 34.8647 42.7675 34.8647 42.4813ZM35.2259 20.1402C35.2259 18.8157 36.1624 17.8838 37.6368 17.8838C39.0412 17.8838 39.9739 18.8157 39.9739 20.1402C39.9739 21.4648 39.0376 22.36 37.6368 22.36C36.1624 22.36 35.2259 21.4648 35.2259 20.1402Z" fill="white"/>
<path d="M55.1168 34.248C55.1168 28.8764 59.0722 25.4385 63.9676 25.4054C67.8896 25.3688 70.9823 27.8416 70.9823 29.8451C70.9823 30.5605 70.5511 31.1329 69.5448 31.0999C67.4584 31.0264 67.4951 26.5869 63.3925 26.5538C60.4065 26.5538 58.2834 29.3094 58.2834 32.8537C58.2834 37.8655 61.1255 41.0541 65.1175 41.0541C67.6352 41.0541 69.2904 39.4801 70.1161 37.6896C70.4037 37.1537 71.303 37.2601 71.1593 37.9755C70.6543 40.5879 68.2803 43.3106 64.1074 43.3106C59.1091 43.3068 55.1168 39.4395 55.1168 34.248Z" fill="white"/>
<path d="M109.183 38.1846C108.715 40.331 106.484 43.3067 102.061 43.3067C97.0624 43.3067 93.4277 39.656 93.4277 34.2112C93.4277 29.0194 97.0255 25.4384 102.024 25.4017C105.622 25.365 108.357 27.0858 108.357 30.1642C108.357 32.6333 106.09 34.6403 102.71 35.3192C100.406 35.7484 98.3932 35.6419 96.631 35.499C97.4236 38.8635 99.7237 41.0135 102.89 41.0135C105.625 41.0135 107.351 39.6157 108.106 37.8987C108.427 37.396 109.256 37.506 109.183 38.1846ZM96.3399 32.9234C96.3399 33.3525 96.3768 33.782 96.4135 34.2112C98.0318 34.3176 100.192 34.3909 102.098 33.9947C104.111 33.5655 105.334 32.4536 105.301 30.1642C105.264 28.0875 103.72 26.6198 101.489 26.6198C98.3894 26.6198 96.3399 29.4488 96.3399 32.9234Z" fill="white"/>
<path d="M129.903 42.375V42.5179C129.903 42.8041 129.615 42.9839 129.147 42.9839H124.868C124.4 42.9839 124.112 42.8041 124.112 42.5179V42.375C124.112 41.6961 125.479 41.6961 125.406 40.4047L125.044 33.2427C124.864 28.8727 123.102 26.7961 120.621 26.7961C117.96 26.7961 116.124 28.9095 116.124 31.7384V40.4412C116.124 41.6961 117.562 41.6961 117.562 42.375V42.5179C117.562 42.8041 117.274 42.9839 116.806 42.9839H112.309C111.877 42.9839 111.59 42.8041 111.59 42.5179V42.375C111.59 41.6961 112.994 41.6961 112.994 40.4412V29.5919C112.994 28.0509 111.483 28.1244 111.483 27.4784V27.3722C111.483 27.1227 111.7 26.9795 112.058 26.8365L114.756 25.5486C115.438 25.1891 115.763 25.5486 115.763 26.0843V28.6968C116.806 26.6934 118.892 25.4019 121.373 25.4019C124.897 25.4019 127.85 27.7647 128.207 33.3159L128.602 40.3718C128.679 41.6961 129.903 41.6961 129.903 42.375Z" fill="white"/>
<path d="M139.974 39.1866C139.974 38.328 140.549 37.8621 141.374 37.8621C143.605 37.8621 142.455 42.2317 147.276 42.2317C149.58 42.2317 151.375 41.1201 151.375 39.0802C151.375 33.8151 140.368 37.3629 140.368 30.3073C140.368 27.5482 143.173 25.4019 147.132 25.4019C151.593 25.4019 154.147 27.6949 154.147 29.6287C154.147 30.3441 153.572 30.8835 152.853 30.8835C150.804 30.8835 151.703 26.5173 147.276 26.5173C145.19 26.5173 143.571 27.8417 143.571 29.6322C143.571 34.7873 154.542 31.2798 154.542 38.4418C154.542 41.1275 151.736 43.2774 147.276 43.2774C142.491 43.2701 139.974 40.8707 139.974 39.1866Z" fill="white"/>
<path d="M169.467 34.1048C169.467 29.126 173.279 25.4019 178.207 25.4019C183.604 25.4019 187.345 29.4819 187.345 34.4975C187.345 39.4396 183.928 43.3069 178.856 43.3069C173.139 43.3069 169.467 38.9737 169.467 34.1048ZM184.183 35.5724C184.183 30.5606 181.521 26.587 177.85 26.587C174.794 26.587 172.671 29.093 172.671 33.1032C172.671 37.6859 175.332 42.1255 179.291 42.1255C182.096 42.1255 184.183 39.5829 184.183 35.5724Z" fill="white"/>
<path d="M201.88 28.1609C201.88 29.093 201.449 29.8452 200.442 29.8452C198.57 29.8452 199.469 27.339 197.239 27.339C195.259 27.339 194.18 29.5955 194.18 32.2814V40.445C194.18 41.6999 195.691 41.7328 195.691 42.3785V42.5217C195.691 42.808 195.44 42.9509 194.972 42.9509H190.512C190.044 42.9509 189.793 42.808 189.793 42.5217V42.3785C189.793 41.7328 191.124 41.6999 191.124 40.445V29.5552C191.124 28.1941 189.686 28.1573 189.686 27.4784V27.4087C189.686 27.1593 189.904 26.9429 190.224 26.7631L192.959 25.545C193.641 25.2221 193.896 25.5082 193.896 26.0476V28.913C194.688 26.62 196.343 25.4055 198.573 25.4055C200.726 25.4018 201.88 26.6567 201.88 28.1609Z" fill="white"/>
<path d="M204.073 42.4813V42.338C204.073 41.6594 205.367 41.6594 205.367 40.4046V29.7347C205.367 28.3369 204.073 28.0507 204.073 27.515V27.4453C204.073 27.1958 204.291 27.0858 204.611 26.9097L207.38 25.5484C208.136 25.1889 208.497 25.5484 208.497 26.0511V40.4081C208.497 41.6629 209.934 41.6629 209.934 42.3418V42.4848C209.934 42.771 209.61 42.9508 209.179 42.9508H204.755C204.324 42.9472 204.073 42.7675 204.073 42.4813ZM204.431 20.1402C204.431 18.8157 205.367 17.8838 206.842 17.8838C208.246 17.8838 209.179 18.8157 209.179 20.1402C209.179 21.4648 208.242 22.36 206.842 22.36C205.367 22.36 204.431 21.4648 204.431 20.1402Z" fill="white"/>
<path d="M227.993 38.1846C227.525 40.331 225.295 43.3067 220.872 43.3067C215.869 43.3067 212.238 39.656 212.238 34.2112C212.238 29.0194 215.836 25.4384 220.835 25.4017C224.432 25.365 227.168 27.0858 227.168 30.1642C227.168 32.6333 224.901 34.6403 221.52 35.3192C219.216 35.7484 217.204 35.6419 215.442 35.499C216.234 38.8635 218.535 41.0135 221.701 41.0135C224.436 41.0135 226.161 39.6157 226.917 37.8987C227.238 37.396 228.063 37.506 227.993 38.1846ZM215.15 32.9234C215.15 33.3525 215.187 33.782 215.224 34.2112C216.843 34.3176 219.003 34.3909 220.909 33.9947C222.921 33.5655 224.145 32.4536 224.112 30.1642C224.075 28.0875 222.53 26.6198 220.296 26.6198C217.2 26.6198 215.15 29.4488 215.15 32.9234Z" fill="white"/>
<path d="M230.33 39.1866C230.33 38.328 230.905 37.8621 231.735 37.8621C233.965 37.8621 232.815 42.2317 237.636 42.2317C239.94 42.2317 241.736 41.1201 241.736 39.0802C241.736 33.8151 230.728 37.3629 230.728 30.3073C230.728 27.5482 233.534 25.4019 237.493 25.4019C241.953 25.4019 244.507 27.6949 244.507 29.6287C244.507 30.3441 243.933 30.8835 243.214 30.8835C241.164 30.8835 242.064 26.5173 237.636 26.5173C235.55 26.5173 233.932 27.8417 233.932 29.6322C233.932 34.7873 244.902 31.2798 244.902 38.4418C244.902 41.1275 242.097 43.2774 237.636 43.2774C232.848 43.2701 230.33 40.8707 230.33 39.1866Z" fill="white"/>
<path d="M30.9094 40.8705L25.4427 33.2096C28.7163 31.2758 29.7592 28.2304 29.7592 26.873C29.7592 26.0474 29.2911 25.4384 28.2848 25.4384C25.3727 25.4384 28.0342 33.1031 19.1098 33.3525V23.5085V18.5846C19.1098 18.0819 18.7154 17.726 18.0666 18.0489L15.0439 19.4468C14.6864 19.5862 14.5057 19.7293 14.5057 20.0155V20.0522C14.5057 20.698 15.9102 20.9841 15.9102 22.3454V25.1669V40.3348C15.9102 41.5897 14.5795 41.5897 14.5795 42.338V42.4813C14.5795 42.7675 14.867 42.9472 15.3351 42.9472H19.7955C20.2636 42.9472 20.5511 42.7675 20.5511 42.4813V42.338C20.5511 41.5859 19.1135 41.5859 19.1135 40.3348V34.8568C20.5511 34.8201 21.775 34.6074 22.8919 34.2844L27.496 40.874C28.0011 41.663 26.814 41.6262 26.814 42.3419V42.4481C26.814 42.7343 26.9947 42.9508 27.3522 42.9508H31.9931C32.3545 42.9508 32.5313 42.771 32.5313 42.4848V42.3783C32.5277 41.6227 31.4145 41.5859 30.9094 40.8705Z" fill="white"/>
<path d="M90.4051 40.3679L90.0106 33.1691C89.6864 27.7646 86.7373 25.3981 83.2134 25.3981C80.9095 25.3981 78.9667 26.5099 77.8534 28.227L77.9016 22.4042H77.8942L77.9273 18.5186C77.9273 17.983 77.5328 17.7298 76.8841 18.0527L73.935 19.3405C73.6108 19.4836 73.4299 19.6634 73.4299 19.9496V20.056C73.4299 20.6284 74.7976 20.7017 74.7976 22.096V22.6243H74.7941V40.4303C74.7941 41.6851 73.4633 41.6484 73.4633 42.3638V42.4702C73.4633 42.7564 73.7139 42.9362 74.1451 42.9362H78.6425C79.0736 42.9362 79.3981 42.7564 79.3981 42.4702V42.3638C79.3981 41.6484 77.9604 41.6851 77.9604 40.4303V31.7419C77.9604 28.913 79.7962 26.7997 82.4577 26.7997C84.9384 26.7997 86.7042 28.8765 86.881 33.1032L87.2424 40.4082C87.316 41.6631 85.9485 41.696 85.9485 42.3785V42.5217C85.9485 42.8079 86.2361 42.9509 86.6673 42.9509H90.9838C91.4152 42.9509 91.7028 42.8079 91.7028 42.5217V42.3785C91.7028 41.696 90.5157 41.6595 90.4051 40.3679Z" fill="white"/>
<path d="M53.1743 27.1922C53.4618 27.1922 53.7124 26.9757 53.7124 26.6565V26.2969C53.7124 26.0107 53.4618 25.7612 53.1743 25.7612H48.2126L48.1757 22.36C48.1757 21.894 48.0321 21.6445 47.6006 21.6445H47.2395C46.915 21.6445 46.6644 21.894 46.6274 22.36C46.4469 24.4 45.6211 25.7612 43.8923 25.7612H42.5985C42.2373 25.7612 42.0603 25.9777 42.0603 26.2969V26.6565C42.0603 26.9793 42.2778 27.1922 42.5985 27.1922H44.9725V37.8986C44.9725 41.3879 46.6827 43.1416 49.2485 43.2919C49.3037 43.2957 49.359 43.2957 49.4143 43.2993C49.4807 43.3031 49.547 43.3066 49.6134 43.3066C49.6427 43.3066 49.6687 43.3031 49.698 43.3031C49.7461 43.3031 49.7976 43.2993 49.8454 43.2957C50.321 43.2737 50.7007 43.1966 50.9847 43.0792C52.2451 42.661 53.2222 41.6923 53.6755 40.4963C53.904 39.8944 53.1078 39.5568 52.7171 39.9824C52.2599 40.8666 51.3754 41.3767 50.2695 41.2484C49.0531 41.1125 48.2126 39.7953 48.2126 37.9316V27.1922H53.1743Z" fill="white"/>
<path d="M167.598 27.1922C167.886 27.1922 168.136 26.9757 168.136 26.6565V26.2969C168.136 26.0107 167.886 25.7612 167.598 25.7612H162.633L162.596 22.36C162.596 21.894 162.452 21.6445 162.021 21.6445H161.66C161.335 21.6445 161.085 21.894 161.048 22.36C160.867 24.4 160.042 25.7612 158.313 25.7612H157.019C156.657 25.7612 156.48 25.9777 156.48 26.2969V26.6565C156.48 26.9793 156.698 27.1922 157.019 27.1922H159.393V37.8986C159.393 41.3879 161.103 43.1416 163.669 43.2919C163.724 43.2957 163.779 43.2957 163.835 43.2993C163.901 43.3031 163.967 43.3066 164.034 43.3066C164.063 43.3066 164.089 43.3031 164.118 43.3031C164.166 43.3031 164.218 43.2993 164.266 43.2957C164.741 43.2737 165.121 43.1966 165.405 43.0792C166.666 42.661 167.643 41.6923 168.096 40.4963C168.324 39.8944 167.528 39.5568 167.138 39.9824C166.68 40.8666 165.796 41.3767 164.69 41.2484C163.473 41.1125 162.633 39.7953 162.633 37.9316V27.1922H167.598Z" fill="white"/>
</svg>
