<svg width="40" height="41" viewBox="0 0 40 41" fill="none" xmlns="http://www.w3.org/2000/svg">
<rect y="0.5" width="40" height="40" rx="15" fill="black"/>
<path fill-rule="evenodd" clip-rule="evenodd" d="M11.3153 9.7002C10.4235 9.7002 9.7 10.4016 9.7 11.2658V29.9914C9.7 30.8556 10.4236 31.5565 11.3153 31.5565H29.941C30.8331 31.5565 31.5563 30.8555 31.5563 29.9911V11.2658C31.5563 10.4016 30.8331 9.7002 29.941 9.7002H11.3153ZM16.3417 18.1513V27.9911H13.0711V18.1513H16.3417ZM16.5573 15.1082C16.5573 16.0525 15.8474 16.8081 14.7071 16.8081L14.6857 16.808C13.588 16.808 12.8784 16.0524 12.8784 15.1082C12.8784 14.1425 13.6094 13.408 14.7288 13.408C15.8474 13.408 16.536 14.1425 16.5573 15.1082ZM21.4224 27.9911H18.152C18.152 27.9911 18.1949 19.0747 18.1522 18.1516H21.4226V19.5444C21.8574 18.8741 22.6355 17.9206 24.3702 17.9206C26.522 17.9206 28.1352 19.327 28.1352 22.3493V27.9911H24.865V22.7276C24.865 21.4047 24.3914 20.5025 23.2083 20.5025C22.3046 20.5025 21.7664 21.111 21.5301 21.6988C21.4437 21.9085 21.4224 22.203 21.4224 22.4967V27.9911Z" fill="#93CCC6"/>
</svg>
