<svg width="1080" height="1080" viewBox="0 0 1080 1080" fill="none" xmlns="http://www.w3.org/2000/svg">
<path d="M546.995 429.727C545.55 428.132 544.202 426.33 542.462 425.788C519.176 418.538 496.736 409.339 476.034 396.36C460.25 386.464 445.97 374.847 437.379 357.693C427.875 338.718 431.369 317.602 445.797 300.673C461.78 281.918 482.432 270.132 504.346 260.209C531.411 247.955 559.806 239.553 588.87 233.804C609.511 229.721 630.417 226.85 651.29 224.086C688.296 219.186 725.537 218.014 762.797 219.292C780.509 219.899 798.222 221.744 815.826 223.91C836.392 226.44 856.997 229.154 877.293 233.237C895.976 236.996 914.513 241.926 932.664 247.747C947.474 252.498 961.965 258.612 975.977 265.401C996.948 275.562 1016.25 288.318 1029.2 308.494C1043.06 330.086 1039.1 352.842 1023.03 371.398C1005.71 391.398 983.159 403.631 959.217 413.745C932.463 425.048 904.728 433.313 876.238 438.463C851.62 442.913 826.722 445.925 801.871 448.946C770.246 452.789 738.412 452.595 706.653 451.687C686.933 451.124 667.275 448.596 647.57 447.222C643.341 446.927 638.853 447.148 634.785 448.247C596.93 458.47 559.142 468.938 521.33 479.32C520.432 479.566 519.484 479.631 517.218 479.998C527.508 462.707 537.209 446.407 546.995 429.727ZM706.74 264.991C712.094 263.79 711.051 259.7 710.788 255.284C709.23 253.945 707.549 251.418 706.144 251.564C704.347 251.75 701.644 253.864 701.311 255.541C700.303 260.622 702.841 264.877 706.74 264.991ZM903.574 328.618C903.708 322.601 903.935 316.584 903.886 310.568C903.878 309.577 902.665 308.596 901.971 306.897C901.343 306.316 900.715 305.735 900.087 305.155C899.412 306.333 898.184 307.497 898.153 308.692C897.968 315.967 898.014 323.249 898.07 330.528C898.096 333.932 899.961 335.464 902.664 335.406C902.779 333.12 902.876 331.195 903.574 328.618ZM688.816 255.229C687.35 254.315 685.884 253.4 684.419 252.486C683.757 254.218 682.601 255.928 682.521 257.686C682.226 264.201 682.185 270.733 682.271 277.256C682.298 279.33 682.911 281.428 683.528 283.43C683.626 283.75 685.164 283.626 686.809 283.882C687.641 283.094 689.191 282.308 689.194 281.516C689.227 272.984 689.017 264.45 688.816 255.229ZM886.813 315.18C884.431 312.041 876.414 310.703 873.662 313.046C873.069 313.552 872.318 314.367 872.336 315.02C872.506 321.361 872.744 327.703 873.222 334.025C873.27 334.66 875.026 335.165 876.809 335.82C877.536 334.809 878.748 333.862 878.893 332.773C879.214 330.36 879.073 327.873 878.987 325.421C878.853 321.598 880.177 319.261 884.393 318.869C885.304 318.784 886.052 316.943 886.813 315.18ZM571.434 325.619C576.182 325.976 580.927 326.416 585.681 326.563C586.158 326.578 586.69 324.816 587.885 324.013C589.225 324.324 590.566 324.634 592.366 325.585C594.434 326.001 596.495 326.735 598.57 326.775C606.192 326.919 613.819 326.917 621.443 326.809C630.203 326.686 638.962 326.427 647.719 326.152C650.034 326.079 654.194 326.104 654.325 325.447C654.859 322.779 654.155 319.864 653.822 316.287C651.421 315.552 649.027 314.212 646.617 314.182C631.216 313.985 615.812 314.046 600.409 314.09C595.41 314.104 589.763 312.638 587.022 318.52C586.648 318.016 586.275 317.513 585.83 316.254C582.197 312.141 577.409 314.555 573.169 314.24C571.561 314.12 568.387 315.855 568.394 316.724C568.418 319.556 565.874 323.693 571.434 325.619ZM827.683 330.934C829.069 331.942 830.455 332.95 832.029 334.638C833.936 335.041 835.825 335.62 837.753 335.813C844.16 336.455 847.657 333.323 848.688 326.976C850.069 327.959 851.45 328.941 853.03 330.603C855.832 335.19 859.912 336.415 865.14 335.995C868.273 335.743 869.055 334.669 868.958 331.832C868.778 326.575 868.833 321.309 868.811 315.328C867.253 314.191 865.694 313.053 863.531 311.475C863.04 315.833 861.873 319.219 862.492 322.239C863.588 327.594 860.959 328.282 856.83 327.211C856.834 325.394 857.097 323.529 856.776 321.771C856.405 319.74 855.52 317.803 854.837 315.179C853.985 314.115 853.132 313.051 852.28 311.987C851.785 312.063 851.289 312.139 850.794 312.216C850.527 313.935 850.392 315.688 849.96 317.364C849.447 319.354 848.679 321.278 847.944 322.475C846.253 320.273 844.562 318.071 842.835 315.19C840.356 313.843 837.877 312.495 835.168 310.524C834.733 310.048 834.299 309.571 833.849 308.389C832.916 307.79 831.347 306.517 831.152 306.701C829.96 307.825 828.554 309.156 828.204 310.649C827.476 313.761 827.362 317.017 826.403 319.879C824.89 318.526 823.377 317.174 821.877 315.059C819.862 311.364 815.771 311.006 811.584 313.751C809.331 315.228 806.668 316.079 803.85 316.644C803.51 316.37 803.169 316.095 802.887 315.083C800.723 311.87 793.797 310.948 789.765 313.337C786.587 315.22 786.122 320.001 788.726 325.672C787.531 326.171 786.344 326.667 784.749 326.562C784.334 325.535 783.304 323.859 783.596 323.583C786.746 320.613 784.426 318.355 782.811 315.245C778.384 310.166 769.607 310.765 766.611 316.303C766.355 316.776 765.55 316.951 764.755 316.7C764.455 316.428 764.155 316.157 763.827 315.201C762.698 314.066 761.568 312.931 760.439 311.796C759.959 311.975 759.479 312.154 759 312.333C758.716 315.359 757.606 318.597 758.318 321.367C759.831 327.245 756.224 328.117 752.071 328.113C751.683 324.013 751.295 319.913 750.858 315.173C749.995 314.123 749.132 313.073 748.304 312.065C746.538 313.382 745.27 314.328 743.922 314.435C743.28 312.816 742.638 311.197 741.968 308.942C741.425 307.727 740.882 306.512 740.339 305.297C740.643 305.915 740.947 306.532 741.251 307.15C738.847 308.78 736.614 311.371 734.002 311.837C728.61 312.799 725.921 316.512 722.359 320.078C721.513 319.356 720.667 318.634 719.586 317.492C719.136 317.354 718.686 317.216 718.112 316.481C718.071 316.282 718.03 316.083 717.874 315.19C715.319 314.158 712.763 313.126 710.1 311.401C709.426 310.645 708.752 309.89 707.945 308.471C704.772 304.517 704.237 307.897 704.163 310.095C703.933 316.901 703.943 323.725 704.195 330.529C704.238 331.699 705.919 332.809 707.024 334.628C713.942 337.612 718.793 336.144 723.738 329.962C725.117 330.267 726.496 330.572 728.323 331.431C732.111 337.18 737.817 335.757 744.008 335.37C744.008 330.536 744.008 325.64 744.767 321.036C745.185 322.655 745.415 324.355 746.069 325.873C746.809 327.592 747.928 329.148 749.325 331.342C752.322 336.538 757.278 336.382 762.187 335.742C763.227 335.606 764.052 333.827 765.672 332.799C767.002 332.515 768.331 332.231 769.911 332.678C772.271 335.555 778.565 337.249 781.921 335.587C784.558 334.281 786.342 332.205 785.864 329.048C786.973 330.91 788.021 332.812 789.252 334.589C789.441 334.862 790.47 334.553 791.898 334.792C800.925 338.268 805.689 336.256 806.9 328.875C808.303 329.818 809.706 330.762 811.783 331.953C814.37 334.17 816.848 337.362 820.679 335.764C823.085 334.76 824.938 332.429 827.683 330.934ZM722.573 283.931C723.418 283.57 724.264 283.21 725.781 282.929C726.453 282.921 727.126 282.913 728.249 283.439C729.247 283.246 730.244 283.052 731.906 282.935C732.578 282.925 733.251 282.916 734.412 283.5C735.154 283.44 736.325 283.656 736.57 283.276C738.526 280.243 736.619 266.857 733.849 263.179C731.542 260.957 721.494 260.162 719.534 262.191C718.8 262.951 718.129 264.197 718.16 265.198C718.327 270.609 718.603 276.024 719.158 281.405C719.25 282.293 720.908 283.019 722.573 283.931ZM686.083 334.589C689.102 335.868 689.102 335.868 690.63 330.42C696.797 326.684 696.32 336.425 701.738 335.555C701.813 333.985 702.284 332.302 701.895 330.849C700.312 324.947 698.543 319.092 696.678 313.272C695.994 311.141 694.854 309.156 693.836 306.366C691.354 303.913 689.947 304.996 689.086 307.819C687.215 313.957 685.13 320.043 683.59 326.263C682.931 328.925 681.129 332.594 686.083 334.589ZM653.772 257.993C649.867 257.341 645.971 256.194 642.056 256.126C628.829 255.895 628.504 256.345 630.172 269.526C630.331 270.779 631.858 271.86 633.077 273.767C635.096 274.136 637.101 274.694 639.135 274.834C643.715 275.149 648.7 275.906 648.827 268.844C648.832 268.604 649.833 268.381 650.402 268.137C652.183 274.087 654.968 276.284 659.488 274.698C664.32 273.003 661.223 268.903 661.868 265.916C661.366 266.176 660.865 266.437 660.364 266.697C658.216 264.023 656.068 261.349 653.772 257.993ZM565.055 372.777C566.705 373.179 568.349 373.901 570.005 373.929C580.696 374.115 591.389 374.149 602.052 375.124C602.058 382.273 601.896 389.426 602.127 396.567C602.28 401.297 600.421 403.212 595.678 403.032C585.48 402.645 575.272 402.488 565.067 402.333C564.217 402.32 563.057 402.798 562.553 403.446C560.851 405.636 562.339 411.869 565.502 414.532C566.64 414.678 567.778 414.949 568.915 414.95C596.137 414.974 623.358 414.973 650.579 414.955C651.872 414.954 653.165 414.757 655.731 414.546C655.054 411.336 654.462 408.526 653.906 404.943C652.291 404.286 650.696 403.12 649.057 403.055C637.641 402.601 626.216 402.376 614.805 401.131C614.815 393.503 614.947 385.872 614.778 378.248C614.706 375.017 615.779 373.877 619.051 373.939C628.003 374.109 636.96 373.994 645.914 373.993C648.828 373.992 651.741 373.993 656.204 373.993C654.873 370.168 653.954 367.527 652.907 364.123C650.896 363.431 648.881 362.126 646.874 362.138C620.335 362.294 593.797 362.63 567.259 362.943C565.402 362.965 562.444 360.873 562.215 364.532C562.054 367.098 560.288 370.795 565.055 372.777Z" fill="#9CD0CA"/>
<path d="M451.887 505.116C454.187 503.136 456.497 501.471 457.925 499.24C461.15 494.206 463.921 488.883 466.91 483.696C470.855 476.848 477.726 476.482 481.878 483.208C486.318 490.401 490.223 497.922 494.466 505.238C495.17 506.451 496.25 507.603 497.429 508.355C506.493 514.132 515.319 517.68 526.22 511.298C533.115 507.261 538.563 512.128 537.71 520.343C537.215 525.118 535.882 529.818 535.55 534.596C535.356 537.38 535.993 540.395 536.957 543.051C538.989 548.647 541.319 554.152 543.869 559.533C544.817 561.534 546.389 563.71 548.261 564.701C551.906 566.632 556.002 567.69 559.84 569.278C565.494 571.617 566.469 578.196 561.852 582.218C560.124 583.723 558.429 585.264 556.718 586.788C557.126 587.246 557.533 587.703 557.941 588.161C559.205 587.098 560.322 585.519 561.772 585.103C563.596 584.58 565.694 585.007 567.673 585.024C567.371 586.801 567.242 588.634 566.695 590.331C566.419 591.188 565.213 591.705 564.747 592.551C564.315 593.335 563.904 594.962 564.192 595.153C565.019 595.701 566.296 596.084 567.226 595.851C568.812 595.452 570.233 594.082 571.789 593.962C573.363 593.84 575.016 594.74 576.634 595.193C576.124 596.818 576.078 598.931 574.998 599.958C573.195 601.673 570.731 602.694 568.545 604.007C568.684 604.524 568.823 605.04 568.962 605.557C570.686 605.438 572.491 604.952 574.113 605.304C575.788 605.667 577.287 606.846 578.862 607.668C577.723 609.175 576.74 611.797 575.414 611.984C571.062 612.595 569.647 614.966 568.536 618.882C567.627 622.087 565.133 624.842 563.3 627.866C569.945 635.954 566.527 640.682 559.662 643.178C545.691 648.258 541.695 659.806 539.015 672.365C534.181 695.024 534.635 717.522 541.898 739.709C543.826 745.597 541.306 748.973 534.932 748.981C498.614 749.027 462.295 748.951 425.977 749.079C421.465 749.094 418.21 747.175 417 743.365C414.355 735.037 411.408 726.593 410.447 717.988C408.546 700.954 408.737 683.885 413.695 667.118C414.477 664.472 413.166 660.527 411.562 657.974C404.913 647.393 395.261 639.689 385.522 632.117C384.003 630.936 382.525 629.404 381.686 627.709C380.137 624.581 379.105 621.349 374.891 620.649C373.899 620.484 372.34 618.232 372.586 617.39C372.957 616.115 374.547 614.981 375.877 614.274C376.761 613.804 378.097 614.185 378.238 614.185C376.973 611.855 375.674 609.463 374.374 607.072C376.951 606.294 379.528 605.517 382.506 604.619C382.538 604.71 382.053 603.917 382.004 603.098C381.903 601.407 382.035 599.702 382.071 598.003C383.892 598.113 385.739 598.074 387.526 598.381C388.857 598.609 390.111 599.285 391.399 599.761C391.621 598.189 392.295 596.523 391.991 595.06C390.034 585.659 390.177 576.337 392.029 566.926C395.669 548.426 404.653 533.129 419.142 521.129C428.636 513.267 439.48 507.994 451.887 505.116ZM492.249 649.939C499.354 627.526 510.939 607.874 530.176 593.983C537.806 588.474 540.447 583.494 539.507 573.785C536.336 541.016 507.852 511.331 471.797 510.074C449.783 509.307 431.18 517.37 416.426 533.844C397.658 554.801 393.146 578.745 402.064 605.238C405.626 615.819 412.046 624.647 419.866 632.602C425.299 638.128 429.427 644.669 425.916 652.756C417.119 673.024 415.514 694.258 417.199 715.863C417.749 722.918 419.773 729.88 421.401 736.82C422.291 740.615 424.67 742.256 429.019 742.23C462.502 742.031 495.986 742.127 529.47 742.109C531.181 742.108 532.892 741.901 534.712 741.783C525.812 709.843 526.636 678.972 538.613 648.329C533.733 653.603 529.811 659.296 525.496 664.673C524.197 666.291 521.171 668.424 520.03 667.907C516.755 666.423 518.009 663.415 519.684 661.177C524.452 654.805 528.848 648.032 534.379 642.386C541.329 635.292 549.141 629.015 556.81 622.662C562.359 618.065 564.175 614.591 561.924 608.521C560.321 604.2 558.047 600.017 555.429 596.215C552.552 592.038 546.055 590.95 541.99 593.671C531.129 600.941 521.059 609.318 514.327 620.587C508.671 630.056 504.568 640.444 499.536 650.301C498.459 652.411 496.339 653.988 494.7 655.81C493.841 654.121 492.982 652.432 492.249 649.939ZM393.17 607.476C391.76 609.705 390.174 611.844 388.972 614.181C385.252 621.415 386.489 624.236 392.766 629.391C399.789 635.158 406.126 641.764 412.698 648.071C414.408 649.711 415.881 651.598 417.553 653.472C421.829 647.488 421.572 643.969 416.102 638.587C407.563 630.186 400.875 620.621 396.309 609.541C395.908 608.568 394.679 607.937 393.17 607.476ZM484.861 501.71C481.687 496.355 478.514 491 474.607 484.41C470.652 491.176 467.406 496.727 464.015 502.527C471.077 503.369 477.456 504.171 483.853 504.777C484.213 504.811 484.727 503.218 484.861 501.71ZM546.191 573.223C546.191 577.023 546.191 580.824 546.191 584.624C546.672 584.79 547.154 584.955 547.635 585.121C550.846 582.287 554.057 579.453 558.536 575.5C553.591 574.259 550.09 573.381 546.191 573.223ZM530.085 522.736C530.361 521.029 530.636 519.322 531.068 516.652C526.544 518.392 522.98 519.763 520.42 520.747C523.03 523.989 525.473 527.023 528.582 530.885C529.211 527.667 529.613 525.608 530.085 522.736ZM549.812 636.489C548.735 637.948 547.658 639.407 546.581 640.867C547.072 641.355 547.564 641.844 548.055 642.333C551.964 639.993 555.872 637.653 559.872 635.258C555.622 630.418 553.006 633.283 549.812 636.489ZM384.65 606.522L384.357 606.372C384.357 606.372 384.413 606.697 384.65 606.522Z" fill="#9DCEC8"/>
<path d="M374.375 484.626C370.476 480.733 366.598 477.283 363.289 473.355C361.974 471.794 360.72 468.163 361.512 467.224C363.84 464.465 366.475 466.259 368.636 468.426C379.441 479.259 390.269 490.07 401.09 500.888C402.619 502.416 404.494 503.735 405.574 505.532C406.419 506.94 406.28 508.938 406.579 510.673C404.515 510.656 401.783 511.476 400.514 510.463C396.638 507.37 393.325 503.572 389.796 500.045C384.737 494.99 379.681 489.932 374.375 484.626Z" fill="#9DCEC8"/>
<path d="M363.769 540.223C351.427 537.351 339.48 534.619 327.535 531.882C326.405 531.623 324.982 531.66 324.226 530.975C322.958 529.826 322.118 528.207 321.098 526.785C322.695 525.956 324.432 524.232 325.865 524.456C331.574 525.345 337.191 526.832 342.837 528.116C354.473 530.764 366.14 533.284 377.704 536.214C379.625 536.701 382.584 539.122 382.474 540.431C382.176 543.968 379.086 543.607 376.298 542.956C372.271 542.015 368.211 541.219 363.769 540.223Z" fill="#9DCEC8"/>
<path d="M590.703 483.66C579.614 493.675 568.865 503.534 557.85 513.089C556.578 514.193 553.834 513.601 551.772 513.795C552.214 511.742 551.959 508.967 553.214 507.758C559.769 501.443 566.701 495.519 573.514 489.472C578.468 485.076 583.422 480.68 588.419 476.334C589.394 475.486 590.57 474.289 591.653 474.289C593.103 474.291 594.97 474.954 595.85 476.008C596.393 476.659 595.803 478.835 595.062 479.842C594.015 481.267 592.36 482.245 590.703 483.66Z" fill="#9DCEC8"/>
<path d="M601.996 553.794C591.498 553.793 581.499 553.819 571.501 553.763C569.863 553.754 567.982 553.806 566.663 553.048C565.505 552.382 564.448 550.648 564.377 549.331C564.338 548.595 566.339 547.183 567.524 547.058C570.656 546.73 573.844 546.935 577.01 546.933C590.009 546.927 603.009 546.83 616.004 547.03C617.692 547.055 619.356 548.61 621.031 549.457C619.352 550.896 617.81 553.32 615.965 553.577C611.551 554.192 606.994 553.787 601.996 553.794Z" fill="#9DCEC8"/>
<path d="M360.996 560.997C351.533 561.254 342.569 561.549 333.604 561.729C331.981 561.762 330.2 561.649 328.773 560.993C327.778 560.536 326.696 559.039 326.692 558.002C326.687 556.969 327.771 555.59 328.759 554.989C329.801 554.354 331.293 554.281 332.59 554.271C345.568 554.172 358.547 554.129 371.526 554.089C374.041 554.081 376.874 553.793 376.856 557.562C376.839 561.35 373.964 560.958 371.477 560.982C368.15 561.015 364.822 560.994 360.996 560.997Z" fill="#9DCEC8"/>
<path d="M578.275 522.283C585.702 520.284 592.685 518.167 599.792 516.617C601.573 516.229 604.826 517.079 605.528 518.375C607.058 521.201 604.728 522.899 602.029 523.604C590.496 526.616 578.987 529.741 567.371 532.399C565.576 532.81 563.273 531.004 561.205 530.223C562.598 528.679 563.709 526.404 565.44 525.737C569.425 524.202 573.712 523.447 578.275 522.283Z" fill="#9DCEC8"/>
<path d="M378.118 512.009C382.601 514.235 386.898 516.094 390.763 518.614C392.041 519.448 392.207 521.986 392.881 523.745C390.99 524.125 388.66 525.409 387.277 524.739C377.424 519.969 367.698 514.921 358.12 509.621C356.744 508.859 355.382 506.006 355.756 504.577C356.538 501.593 359.273 502.086 361.499 503.236C366.955 506.056 372.345 509.003 378.118 512.009Z" fill="#9DCEC8"/>
<path d="M653.035 364.887C653.954 367.527 654.873 370.168 656.204 373.993C651.741 373.993 648.828 373.992 645.914 373.993C636.959 373.994 628.003 374.109 619.051 373.939C615.779 373.877 614.706 375.017 614.778 378.248C614.947 385.872 614.815 393.503 614.586 401.887C613.496 405.661 615.307 405.961 617.607 405.943C629.694 405.845 641.782 405.788 653.87 405.717C654.462 408.526 655.054 411.336 655.731 414.546C653.165 414.757 651.872 414.954 650.579 414.955C623.358 414.973 596.137 414.974 568.915 414.95C567.778 414.949 566.64 414.678 565.223 413.801C565.103 405.944 565.103 405.936 572.025 405.934C581.808 405.93 591.593 405.862 601.376 405.987C604.502 406.027 605.921 405.05 605.863 401.726C605.722 393.769 605.817 385.808 605.823 377.848C605.825 375.341 605.218 373.482 602.081 374.233C591.389 374.149 580.696 374.115 570.005 373.929C568.349 373.901 566.705 373.179 564.973 371.942C565.023 369.201 565.154 367.294 565.308 365.058C580.333 365.058 594.762 365.081 609.191 365.052C623.806 365.023 638.421 364.944 653.035 364.887Z" fill="#FAFAF9"/>
<path d="M653.908 317.04C654.155 319.864 654.859 322.779 654.325 325.447C654.194 326.104 650.034 326.079 647.719 326.152C638.962 326.427 630.203 326.686 621.443 326.809C613.819 326.917 606.192 326.919 598.57 326.775C596.495 326.735 594.434 326.001 592.174 324.825C592.076 321.95 592.17 319.835 592.294 317.04C613.089 317.04 633.499 317.04 653.908 317.04Z" fill="#FAFAF9"/>
<path d="M653.92 258.675C656.068 261.349 658.216 264.023 660.364 266.697C660.865 266.437 661.366 266.176 661.867 265.916C661.223 268.903 664.32 273.003 659.488 274.698C654.968 276.284 652.183 274.087 650.402 268.137C649.833 268.381 648.832 268.604 648.827 268.844C648.7 275.906 643.715 275.149 639.135 274.834C637.101 274.694 635.096 274.136 632.988 272.93C632.927 269.127 633.125 266.152 632.937 263.201C632.733 260.016 633.848 258.824 637.14 258.912C642.728 259.059 648.326 258.777 653.92 258.675Z" fill="#FAFAF9"/>
<path d="M652.971 364.505C638.421 364.944 623.806 365.023 609.191 365.052C594.762 365.081 580.332 365.058 565.308 365.058C565.154 367.294 565.023 369.201 564.832 371.548C560.288 370.795 562.054 367.098 562.215 364.532C562.444 360.873 565.402 362.965 567.259 362.943C593.797 362.63 620.335 362.294 646.874 362.138C648.881 362.126 650.896 363.431 652.971 364.505Z" fill="#D2B7A6"/>
<path d="M602.067 374.678C605.218 373.482 605.825 375.341 605.823 377.848C605.817 385.808 605.722 393.769 605.863 401.726C605.921 405.05 604.502 406.027 601.376 405.987C591.593 405.862 581.808 405.93 572.025 405.933C565.103 405.936 565.103 405.944 564.918 413.504C562.339 411.869 560.851 405.636 562.553 403.446C563.057 402.798 564.217 402.32 565.067 402.333C575.272 402.488 585.48 402.645 595.678 403.032C600.421 403.212 602.28 401.297 602.127 396.567C601.896 389.426 602.058 382.273 602.067 374.678Z" fill="#D2B7A6"/>
<path d="M653.865 316.664C633.499 317.04 613.089 317.04 592.294 317.04C592.17 319.835 592.076 321.95 591.944 324.505C590.566 324.635 589.225 324.324 587.496 323.555C587.144 321.779 587.181 320.462 587.218 319.145C589.763 312.638 595.41 314.104 600.409 314.09C615.812 314.046 631.216 313.985 646.617 314.182C649.027 314.213 651.421 315.553 653.865 316.664Z" fill="#D2B7A6"/>
<path d="M693.922 307.104C694.854 309.156 695.994 311.141 696.678 313.272C698.543 319.092 700.312 324.947 701.895 330.849C702.284 332.302 701.813 333.985 701.738 335.555C696.32 336.425 696.797 326.684 690.63 330.42C689.102 335.868 689.102 335.868 686.035 333.836C688.632 324.423 691.277 315.763 693.922 307.104ZM692.758 326.003C698.062 325.521 698.196 323.934 693.312 315.214C692.827 319.057 692.403 322.412 692.758 326.003Z" fill="#F4F5F0"/>
<path d="M725.109 282.85C724.264 283.21 723.418 283.57 722.223 283.428C721.873 276.757 721.873 270.59 721.873 265.949C726.415 262.82 730.387 267.457 733.94 263.882C736.619 266.857 738.526 280.243 736.57 283.276C736.325 283.656 735.154 283.44 734.199 282.747C733.986 277.356 733.986 272.717 733.986 267.198C729.236 272.476 731.669 277.887 731.242 282.859C730.244 283.052 729.247 283.246 728.074 282.718C727.899 277.36 727.899 272.724 727.899 267.452C722.968 272.319 725.712 277.881 725.109 282.85Z" fill="#F4F5F0"/>
<path d="M842.87 315.87C844.562 318.071 846.253 320.273 847.972 323.204C848.012 324.879 848.025 325.825 848.039 326.772C847.657 333.323 844.16 336.455 837.753 335.813C835.825 335.62 833.936 335.041 832.001 333.837C832.002 326.625 831.917 320.21 832.143 313.805C832.199 312.217 833.264 310.664 833.864 309.095C834.299 309.571 834.733 310.048 835.188 311.219C835.208 313.536 835.208 315.159 835.208 316.532C837.854 316.303 840.362 316.086 842.87 315.87ZM842.715 320.246C840.205 317.87 837.664 318.708 836.247 321.102C834.57 323.934 833.691 327.287 837.069 330.734C839.128 334.229 841.325 333.057 843.42 330.837C845.771 328.347 845.448 323.405 842.715 320.246Z" fill="#F4F5F0"/>
<path d="M717.988 315.884C718.03 316.083 718.071 316.282 718.271 317.003C718.894 317.654 719.357 317.783 719.82 317.913C720.667 318.634 721.513 319.356 722.678 320.489C723.01 321.534 723.024 322.167 723.007 323.162C722.992 323.766 723.007 324.008 723.01 324.649C723.01 326.627 723.022 328.205 723.033 329.783C718.793 336.144 713.942 337.612 706.989 333.827C706.976 329.579 706.878 326.125 707.052 322.686C707.281 318.163 707.726 313.651 708.078 309.135C708.752 309.89 709.426 310.645 710.103 312.126C710.106 314.277 710.106 315.703 710.106 316.713C712.972 316.411 715.48 316.148 717.988 315.884ZM716.921 320.082C714.044 317.413 711.337 319.549 710.769 321.65C710.044 324.328 707.626 328.351 712.728 330.929C714.021 331.43 716.274 332.59 716.453 332.328C717.827 330.325 719.214 328.143 719.766 325.82C720.233 323.852 720.821 320.934 716.921 320.082Z" fill="#F4F5F0"/>
<path d="M744.008 320.744C744.008 325.64 744.008 330.536 744.008 335.37C737.817 335.757 732.111 337.18 728.121 330.711C727.946 328.503 727.982 327.016 727.998 325.529C728.083 317.469 732.802 314.285 740.334 317.074C740.885 314.587 741.44 312.083 741.996 309.579C742.638 311.197 743.28 312.816 743.952 315.239C743.992 317.61 744 319.177 744.008 320.744ZM737.922 320.139C735.45 317.696 733.066 319.005 732.011 321.201C730.643 324.05 729.56 327.471 732.96 330.865C734.222 331.393 736.255 332.683 736.613 332.32C738.293 330.619 740.132 328.624 740.704 326.42C741.189 324.548 742.335 321.101 737.922 320.139Z" fill="#F4F5F0"/>
<path d="M806.195 328.756C805.689 336.256 800.925 338.268 791.424 334.359C791.582 331.932 792.213 329.938 792.982 328.19C793.399 328.681 793.679 328.926 793.967 329.582C795.169 334.012 798.407 331.559 800.683 331.928C801.285 332.026 802.175 330.35 802.933 329.488C801.989 328.74 801.046 327.991 799.655 327.175C797.108 327.081 795.009 327.054 792.736 326.737C788.936 324.845 790.418 321.629 791.231 319.63C791.894 318 794.435 316.752 796.394 316.139C798.378 315.518 800.671 315.885 802.828 315.82C803.169 316.095 803.51 316.369 804.242 317.191C804.983 319.39 805.332 321.043 805.682 322.696C805.113 322.808 804.544 322.921 803.975 323.034C803.654 322.526 803.177 322.058 803.036 321.505C801.825 316.748 798.129 319.891 795.643 319.309C795.347 319.239 794.576 321.198 794.025 322.217C795.839 322.827 797.657 323.951 799.466 323.938C803.084 323.912 805.56 324.89 806.195 328.756Z" fill="#F4F5F0"/>
<path d="M868.789 316.046C868.833 321.309 868.778 326.575 868.958 331.832C869.055 334.669 868.273 335.743 865.14 335.995C859.912 336.415 855.831 335.19 852.985 329.81C852.966 326.259 852.78 323.477 853.095 320.752C853.29 319.064 854.244 317.464 854.858 315.825C855.519 317.803 856.405 319.74 856.775 321.771C857.097 323.529 856.834 325.394 856.904 328.033C858.623 329.886 860.267 330.916 861.912 331.946C862.983 330.134 864.549 328.437 864.998 326.483C865.538 324.133 865.235 321.559 865.103 319.092C864.952 316.278 866.407 315.664 868.789 316.046Z" fill="#F4F5F0"/>
<path d="M785.2 328.88C786.342 332.205 784.558 334.281 781.921 335.587C778.565 337.249 772.271 335.555 769.869 331.948C770.146 330.244 770.465 329.27 770.784 328.297C770.848 328.83 770.912 329.363 770.976 329.896C773.871 330.622 776.742 331.522 779.682 331.939C780.314 332.028 781.587 330.466 781.814 329.49C781.958 328.877 780.845 327.511 780.042 327.244C778.846 326.847 777.422 327.053 776.102 327.122C772.108 327.333 769.752 325.906 769.905 321.482C770.055 317.162 772.484 315.815 776.393 315.99C778.541 316.086 780.698 315.982 782.85 315.967C784.426 318.355 786.746 320.613 783.596 323.583C783.304 323.859 784.334 325.535 784.922 327.147C785.13 328.115 785.165 328.498 785.2 328.88ZM773.012 321.541C774.317 323.873 780.282 325.245 781.352 323.267C781.865 322.32 780.79 319.357 780.625 319.373C778.093 319.607 775.593 320.182 773.012 321.541Z" fill="#F4F5F0"/>
<path d="M782.831 315.606C780.698 315.982 778.541 316.086 776.393 315.99C772.484 315.815 770.055 317.162 769.905 321.482C769.752 325.906 772.108 327.333 776.102 327.122C777.422 327.053 778.846 326.847 780.042 327.244C780.845 327.511 781.958 328.877 781.814 329.49C781.587 330.466 780.314 332.028 779.682 331.939C776.742 331.522 773.871 330.622 770.976 329.896C770.912 329.363 770.848 328.83 770.784 328.297C770.465 329.271 770.147 330.244 769.744 331.582C768.331 332.231 767.002 332.515 765.319 332.451C764.977 331.147 764.988 330.191 765.188 329.081C765.252 328.531 765.127 328.134 764.986 327.498C764.95 326.938 764.949 326.618 765.332 326.167C768.571 323.302 766.698 321.035 764.974 318.502C764.958 317.922 764.97 317.593 765.001 317.264C765.55 316.951 766.355 316.776 766.611 316.303C769.607 310.765 778.384 310.166 782.831 315.606Z" fill="#D2B7A6"/>
<path d="M806.547 328.815C805.56 324.89 803.084 323.912 799.466 323.938C797.657 323.951 795.839 322.827 794.025 322.217C794.576 321.198 795.347 319.239 795.643 319.309C798.13 319.891 801.825 316.748 803.036 321.505C803.177 322.058 803.654 322.526 803.975 323.034C804.544 322.921 805.113 322.808 805.682 322.696C805.332 321.043 804.983 319.39 804.411 317.475C806.667 316.079 809.331 315.228 811.584 313.751C815.771 311.006 819.862 311.364 821.458 315.488C816.557 315.201 812.973 317.373 811.579 321.057C810.384 324.214 811.189 328.127 811.109 331.705C809.706 330.762 808.303 329.818 806.547 328.815ZM807.529 323.772C807.361 324.566 807.193 325.36 807.025 326.154C807.273 326.189 807.522 326.224 807.771 326.259C807.822 325.568 807.873 324.877 807.529 323.772Z" fill="#D2B7A6"/>
<path d="M764.878 316.982C764.97 317.593 764.958 317.922 764.939 318.977C764.931 321.9 764.948 324.099 764.965 326.297C764.949 326.618 764.95 326.938 764.96 327.874C764.967 328.738 764.983 328.987 764.999 329.235C764.988 330.191 764.977 331.147 764.971 332.454C764.052 333.827 763.227 335.606 762.187 335.742C757.278 336.382 752.321 336.538 749.124 330.618C748.943 326.487 748.786 323.066 749.067 319.681C749.177 318.35 750.265 317.1 750.908 315.813C751.295 319.913 751.683 324.013 752.274 328.883C754.464 330.354 756.945 332.112 758.305 331.475C759.789 330.78 760.612 327.945 761.031 325.901C761.485 323.683 760.847 321.247 761.266 319.015C761.485 317.851 762.952 316.921 763.855 315.886C764.155 316.157 764.455 316.428 764.878 316.982Z" fill="#F4F5F0"/>
<path d="M811.446 331.829C811.189 328.127 810.384 324.214 811.579 321.057C812.973 317.373 816.557 315.201 821.452 315.869C823.377 317.174 824.89 318.526 826.704 320.478C827.016 324.282 827.028 327.488 827.039 330.693C824.938 332.429 823.085 334.76 820.679 335.764C816.848 337.362 814.37 334.17 811.446 331.829ZM820.931 320.074C818.319 317.605 815.622 319.3 815.094 321.372C814.417 324.028 815.515 327.137 816.108 330.762C819.283 333.963 821.605 331.435 823.398 329.255C825.256 326.996 823.646 322.06 820.931 320.074Z" fill="#F4F5F0"/>
<path d="M741.982 309.26C741.44 312.083 740.885 314.587 740.334 317.074C732.802 314.285 728.083 317.469 727.998 325.529C727.982 327.016 727.946 328.503 727.898 330.434C726.496 330.572 725.117 330.267 723.385 329.873C723.021 328.205 723.01 326.627 723.191 324.494C723.454 323.8 723.62 323.61 723.578 323.531C723.438 323.266 723.223 323.041 723.037 322.8C723.024 322.167 723.01 321.534 723.003 320.592C725.921 316.512 728.61 312.799 734.002 311.837C736.614 311.371 738.846 308.78 741.251 307.15C740.947 306.532 740.643 305.915 740.339 305.297C740.882 306.512 741.425 307.727 741.982 309.26Z" fill="#D2B7A6"/>
<path d="M587.12 318.833C587.181 320.462 587.144 321.779 587.151 323.488C586.69 324.816 586.158 326.578 585.681 326.563C580.927 326.416 576.182 325.976 571.254 324.864C570.322 319.471 572.579 317.435 576.993 317.282C579.962 317.18 582.932 317.099 585.902 317.009C586.275 317.513 586.648 318.016 587.12 318.833Z" fill="#FAFAF9"/>
<path d="M785.532 328.964C785.165 328.498 785.13 328.115 785.126 327.448C786.344 326.667 787.531 326.171 788.726 325.672C786.122 320.001 786.587 315.22 789.765 313.337C793.797 310.948 800.723 311.87 802.858 315.451C800.671 315.885 798.378 315.518 796.394 316.139C794.435 316.752 791.894 318 791.231 319.63C790.418 321.629 788.936 324.845 792.733 326.967C792.903 327.487 792.845 327.943 792.845 327.943C792.213 329.938 791.582 331.932 791.03 334.22C790.47 334.553 789.441 334.862 789.252 334.589C788.021 332.812 786.973 330.91 785.532 328.964Z" fill="#D2B7A6"/>
<path d="M875.99 335.73C875.026 335.165 873.27 334.66 873.222 334.026C872.744 327.703 872.506 321.361 872.336 315.02C872.318 314.367 873.068 313.552 873.662 313.046C876.414 310.703 884.431 312.041 886.438 315.559C882.868 316.146 879.672 316.354 875.99 316.595C875.99 322.962 875.99 329.346 875.99 335.73Z" fill="#D2B7A6"/>
<path d="M733.895 263.53C730.387 267.457 726.415 262.82 721.873 265.949C721.873 270.59 721.873 276.757 721.858 283.372C720.908 283.019 719.25 282.293 719.158 281.405C718.603 276.024 718.327 270.609 718.16 265.198C718.129 264.197 718.8 262.951 719.534 262.191C721.494 260.162 731.542 260.957 733.895 263.53Z" fill="#D2B7A6"/>
<path d="M653.888 405.33C641.782 405.788 629.694 405.845 617.607 405.943C615.307 405.961 613.496 405.661 614.581 402.36C626.216 402.376 637.641 402.601 649.057 403.055C650.696 403.12 652.291 404.286 653.888 405.33Z" fill="#D2B7A6"/>
<path d="M827.361 330.813C827.028 327.488 827.016 324.282 827 320.645C827.362 317.017 827.476 313.761 828.204 310.649C828.554 309.156 829.96 307.825 831.152 306.701C831.347 306.517 832.916 307.79 833.857 308.742C833.264 310.664 832.199 312.217 832.143 313.805C831.917 320.21 832.002 326.625 831.907 333.497C830.455 332.95 829.069 331.942 827.361 330.813Z" fill="#D2B7A6"/>
<path d="M693.879 306.735C691.277 315.763 688.632 324.423 685.948 333.484C681.129 332.594 682.931 328.925 683.59 326.263C685.13 320.043 687.215 313.957 689.086 307.819C689.947 304.996 691.354 303.913 693.879 306.735Z" fill="#D2B7A6"/>
<path d="M686.037 283.706C685.164 283.626 683.626 283.75 683.528 283.43C682.911 281.428 682.298 279.33 682.271 277.256C682.185 270.733 682.226 264.201 682.521 257.686C682.601 255.928 683.757 254.218 684.419 252.486C685.884 253.4 687.35 254.315 688.442 255.605C687.41 257.417 686.22 258.839 686.182 260.292C685.975 268.093 686.056 275.901 686.037 283.706Z" fill="#D2B7A6"/>
<path d="M653.846 258.334C648.326 258.777 642.728 259.059 637.14 258.911C633.848 258.824 632.733 260.016 632.937 263.201C633.125 266.152 632.927 269.127 632.825 272.556C631.858 271.86 630.33 270.779 630.172 269.526C628.504 256.345 628.829 255.895 642.056 256.126C645.971 256.194 649.867 257.341 653.846 258.334Z" fill="#D2B7A6"/>
<path d="M686.423 283.794C686.056 275.901 685.975 268.093 686.182 260.292C686.22 258.839 687.41 257.417 688.471 255.949C689.017 264.45 689.227 272.984 689.194 281.517C689.191 282.308 687.641 283.094 686.423 283.794Z" fill="#F4F5F0"/>
<path d="M902.972 329.269C902.876 331.195 902.779 333.12 902.664 335.406C899.961 335.464 898.096 333.932 898.07 330.528C898.014 323.249 897.968 315.967 898.153 308.692C898.184 307.497 899.412 306.333 900.087 305.155C900.715 305.735 901.343 306.316 901.701 307.605C901.285 314.507 901.068 320.701 901.085 326.893C901.088 327.687 902.313 328.477 902.972 329.269Z" fill="#D2B7A6"/>
<path d="M876.399 335.775C875.99 329.346 875.99 322.962 875.99 316.595C879.672 316.354 882.868 316.146 886.469 315.924C886.052 316.943 885.304 318.784 884.393 318.869C880.177 319.261 878.853 321.598 878.987 325.421C879.073 327.873 879.214 330.36 878.893 332.773C878.748 333.862 877.536 334.809 876.399 335.775Z" fill="#F4F5F0"/>
<path d="M708.011 308.803C707.726 313.651 707.281 318.163 707.052 322.686C706.878 326.125 706.976 329.579 706.899 333.486C705.919 332.809 704.238 331.7 704.194 330.53C703.943 323.725 703.933 316.901 704.163 310.095C704.237 307.897 704.772 304.517 708.011 308.803Z" fill="#D2B7A6"/>
<path d="M705.964 264.893C702.841 264.877 700.303 260.622 701.311 255.541C701.644 253.864 704.347 251.75 706.144 251.564C707.549 251.418 709.23 253.945 710.409 255.631C707.726 255.896 705.697 256.007 706.036 259.283C706.227 261.13 706.002 263.021 705.964 264.893Z" fill="#D2B7A6"/>
<path d="M585.866 316.632C582.932 317.1 579.962 317.18 576.993 317.282C572.579 317.435 570.322 319.472 571.059 324.526C565.874 323.693 568.417 319.556 568.394 316.724C568.387 315.855 571.561 314.12 573.169 314.24C577.409 314.555 582.197 312.141 585.866 316.632Z" fill="#D2B7A6"/>
<path d="M763.841 315.543C762.952 316.921 761.485 317.851 761.266 319.015C760.847 321.247 761.485 323.683 761.031 325.901C760.612 327.945 759.789 330.78 758.305 331.475C756.945 332.112 754.464 330.355 752.32 329.345C756.224 328.118 759.831 327.246 758.318 321.367C757.606 318.597 758.716 315.359 759 312.333C759.479 312.154 759.959 311.975 760.438 311.797C761.568 312.931 762.698 314.066 763.841 315.543Z" fill="#D2B7A6"/>
<path d="M868.8 315.687C866.407 315.664 864.952 316.278 865.103 319.092C865.235 321.559 865.539 324.133 864.998 326.483C864.549 328.437 862.983 330.134 861.912 331.946C860.268 330.916 858.623 329.886 856.932 328.502C860.959 328.282 863.588 327.594 862.492 322.239C861.873 319.219 863.04 315.833 863.531 311.475C865.694 313.053 867.253 314.191 868.8 315.687Z" fill="#D2B7A6"/>
<path d="M750.883 315.493C750.265 317.1 749.177 318.35 749.067 319.681C748.786 323.066 748.943 326.487 748.904 330.334C747.928 329.148 746.809 327.592 746.069 325.873C745.415 324.355 745.185 322.655 744.388 320.89C744 319.177 743.992 317.61 743.992 315.658C745.269 314.328 746.538 313.382 748.304 312.065C749.132 313.073 749.995 314.123 750.883 315.493Z" fill="#D2B7A6"/>
<path d="M854.847 315.502C854.244 317.464 853.29 319.064 853.095 320.752C852.78 323.477 852.966 326.259 852.886 329.471C851.45 328.941 850.069 327.959 848.363 326.874C848.025 325.825 848.012 324.879 848.01 323.581C848.679 321.278 849.447 319.354 849.96 317.364C850.392 315.688 850.527 313.935 850.794 312.216C851.289 312.139 851.784 312.063 852.28 311.987C853.132 313.051 853.984 314.115 854.847 315.502Z" fill="#D2B7A6"/>
<path d="M903.273 328.944C902.313 328.477 901.088 327.687 901.085 326.893C901.068 320.701 901.285 314.507 901.719 307.962C902.665 308.596 903.878 309.577 903.886 310.568C903.935 316.584 903.708 322.601 903.273 328.944Z" fill="#F5FCFC"/>
<path d="M731.574 282.897C731.669 277.887 729.236 272.476 733.986 267.198C733.986 272.717 733.986 277.356 733.954 282.451C733.251 282.916 732.578 282.925 731.574 282.897Z" fill="#D2B7A6"/>
<path d="M725.445 282.889C725.712 277.881 722.968 272.319 727.899 267.452C727.899 272.724 727.899 277.36 727.849 282.451C727.126 282.913 726.453 282.921 725.445 282.889Z" fill="#D2B7A6"/>
<path d="M706.352 264.942C706.002 263.021 706.227 261.13 706.036 259.282C705.697 256.007 707.726 255.896 710.422 255.976C711.051 259.7 712.094 263.79 706.352 264.942Z" fill="#FAFAF9"/>
<path d="M842.853 315.53C840.362 316.086 837.854 316.303 835.208 316.532C835.208 315.159 835.208 313.536 835.303 311.531C837.877 312.495 840.356 313.843 842.853 315.53Z" fill="#D2B7A6"/>
<path d="M717.931 315.537C715.48 316.147 712.972 316.411 710.106 316.713C710.106 315.703 710.106 314.277 710.157 312.472C712.763 313.126 715.319 314.158 717.931 315.537Z" fill="#D2B7A6"/>
<path d="M719.703 317.702C719.357 317.783 718.894 317.654 718.333 317.302C718.686 317.216 719.136 317.354 719.703 317.702Z" fill="#D2B7A6"/>
<path d="M492.186 650.341C492.982 652.432 493.841 654.121 494.7 655.81C496.339 653.988 498.459 652.411 499.536 650.301C504.568 640.444 508.671 630.056 514.327 620.587C521.059 609.318 531.129 600.94 541.99 593.671C546.055 590.95 552.552 592.038 555.429 596.215C558.047 600.017 560.321 604.2 561.924 608.521C564.175 614.591 562.359 618.065 556.81 622.662C549.141 629.015 541.329 635.292 534.379 642.386C528.847 648.032 524.452 654.805 519.684 661.177C518.009 663.415 516.755 666.423 520.03 667.907C521.171 668.424 524.197 666.291 525.495 664.673C529.811 659.296 533.733 653.603 538.613 648.328C526.636 678.972 525.812 709.843 534.712 741.783C532.892 741.901 531.181 742.108 529.47 742.109C495.986 742.127 462.502 742.031 429.019 742.23C424.67 742.256 422.291 740.615 421.401 736.82C419.773 729.88 417.749 722.918 417.199 715.863C415.514 694.258 417.119 673.024 425.916 652.756C429.427 644.669 425.299 638.128 419.866 632.602C412.046 624.647 405.626 615.819 402.064 605.238C393.146 578.745 397.658 554.801 416.426 533.844C431.18 517.37 449.783 509.307 471.797 510.074C507.852 511.331 536.336 541.016 539.507 573.785C540.446 583.494 537.806 588.474 530.176 593.983C510.938 607.874 499.354 627.526 492.186 650.341ZM426.573 567.09C423.91 567.127 421.2 566.889 418.604 567.326C417.408 567.528 416.105 568.881 415.494 570.049C415.168 570.672 416.032 572.146 416.669 573.004C418.802 575.875 421.367 578.46 423.234 581.483C427.564 588.495 427.437 588.573 435.395 587.5C436.414 591.151 437.072 594.957 438.553 598.411C440.046 601.891 442.11 605.202 444.352 608.274C452.784 619.828 469.364 619.752 478.197 608.621C486.254 598.467 488.144 586.814 487.85 574.43C487.703 568.295 486.568 567.13 480.506 567.12C462.855 567.09 445.203 567.098 426.573 567.09ZM482.921 563.354C484.555 562.459 486.189 561.564 487.823 560.669C486.654 559.348 485.638 557.83 484.268 556.769C483.135 555.891 481.583 555.554 479.223 554.557C481.887 553.326 483.701 552.973 484.744 551.882C486.049 550.517 486.721 548.545 487.666 546.836C485.777 546.421 483.591 545.189 482.053 545.746C477.388 547.433 472.888 549.654 468.512 552.018C467.144 552.756 465.42 554.751 465.594 555.91C465.781 557.152 467.855 558.513 469.381 559.076C473.576 560.624 477.916 561.781 482.921 563.354ZM421.603 547.865C419.643 546.972 417.747 545.627 415.702 545.341C414.297 545.145 412.687 546.421 411.169 547.039C411.93 548.641 412.345 550.606 413.544 551.747C414.856 552.994 416.894 553.479 419.605 554.766C417.003 555.655 415.131 555.782 414.097 556.778C412.786 558.041 412.155 560.012 411.231 561.677C412.924 562.212 414.777 563.476 416.279 563.146C420.791 562.153 425.217 560.678 429.564 559.082C430.874 558.6 432.644 557.155 432.706 556.067C432.776 554.815 431.465 553.044 430.258 552.253C427.778 550.627 424.968 549.504 421.603 547.865Z" fill="#FDFEFE"/>
<path d="M393.502 607.311C394.679 607.937 395.908 608.568 396.309 609.541C400.875 620.621 407.563 630.186 416.102 638.587C421.571 643.969 421.829 647.488 417.553 653.472C415.881 651.598 414.408 649.711 412.698 648.071C406.126 641.764 399.788 635.158 392.766 629.391C386.489 624.236 385.252 621.415 388.972 614.181C390.174 611.844 391.76 609.705 393.502 607.311Z" fill="#F5FCFC"/>
<path d="M485.015 502.046C484.727 503.218 484.213 504.811 483.853 504.777C477.456 504.171 471.077 503.368 464.015 502.527C467.406 496.727 470.652 491.176 474.607 484.41C478.514 491 481.687 496.355 485.015 502.046Z" fill="#F5FCFC"/>
<path d="M546.39 572.863C550.09 573.381 553.591 574.259 558.536 575.5C554.057 579.453 550.846 582.287 547.635 585.121C547.154 584.955 546.672 584.79 546.191 584.624C546.191 580.824 546.191 577.023 546.39 572.863Z" fill="#F5FCFC"/>
<path d="M530.05 523.142C529.613 525.608 529.211 527.667 528.582 530.885C525.473 527.023 523.03 523.989 520.42 520.747C522.98 519.763 526.544 518.392 531.068 516.652C530.636 519.322 530.361 521.029 530.05 523.142Z" fill="#F5FCFC"/>
<path d="M550.09 636.248C553.006 633.283 555.622 630.418 559.872 635.258C555.872 637.653 551.964 639.993 548.055 642.333C547.564 641.844 547.072 641.355 546.581 640.867C547.658 639.407 548.735 637.948 550.09 636.248Z" fill="#F5FCFC"/>
<path d="M384.531 606.609C384.413 606.697 384.357 606.372 384.357 606.372C384.357 606.372 384.65 606.522 384.531 606.609Z" fill="white"/>
<path d="M692.368 325.885C692.403 322.412 692.827 319.057 693.312 315.214C698.196 323.934 698.062 325.521 692.368 325.885Z" fill="#D2B7A6"/>
<path d="M836.88 330.047C833.691 327.287 834.57 323.934 836.247 321.102C837.664 318.708 840.205 317.87 842.541 320.876C842.215 325.431 841.317 328.876 836.88 330.047Z" fill="#9DCEC8"/>
<path d="M836.975 330.391C841.317 328.876 842.215 325.431 842.622 321.233C845.448 323.405 845.771 328.347 843.42 330.837C841.325 333.057 839.128 334.229 836.975 330.391Z" fill="#D2B7A6"/>
<path d="M712.567 330.218C707.626 328.351 710.044 324.328 710.769 321.65C711.337 319.549 714.044 317.413 716.963 320.875C717.448 325.515 716.222 328.497 712.567 330.218Z" fill="#9DCEC8"/>
<path d="M712.648 330.573C716.222 328.497 717.448 325.515 717.047 321.239C720.821 320.934 720.233 323.851 719.766 325.82C719.214 328.143 717.827 330.325 716.453 332.328C716.274 332.59 714.021 331.43 712.648 330.573Z" fill="#D2B7A6"/>
<path d="M723.007 323.162C723.223 323.041 723.438 323.266 723.578 323.531C723.62 323.61 723.454 323.8 723.202 324.094C723.007 324.007 722.992 323.766 723.007 323.162Z" fill="#9CD0CA"/>
<path d="M732.855 330.154C729.56 327.471 730.643 324.05 732.011 321.201C733.066 319.005 735.45 317.696 737.978 320.936C738.752 326.044 736.923 328.788 732.855 330.154Z" fill="#9DCEC8"/>
<path d="M732.907 330.51C736.923 328.788 738.752 326.044 738.075 321.299C742.335 321.101 741.189 324.548 740.704 326.42C740.132 328.624 738.293 330.619 736.613 332.32C736.255 332.683 734.222 331.393 732.907 330.51Z" fill="#D2B7A6"/>
<path d="M800.102 327.243C801.046 327.991 801.989 328.74 802.933 329.488C802.175 330.35 801.285 332.026 800.683 331.928C798.407 331.559 795.169 334.012 794.375 329.54C796.552 328.472 798.327 327.857 800.102 327.243Z" fill="#D2B7A6"/>
<path d="M799.655 327.175C798.327 327.857 796.552 328.472 794.368 329.128C793.679 328.926 793.399 328.681 792.982 328.19C792.845 327.943 792.903 327.487 792.906 327.257C795.009 327.054 797.108 327.081 799.655 327.175Z" fill="#9CD0CA"/>
<path d="M773.048 321.109C775.593 320.182 778.093 319.607 780.625 319.373C780.79 319.357 781.865 322.32 781.352 323.267C780.282 325.245 774.317 323.873 773.048 321.109Z" fill="#D2B7A6"/>
<path d="M765.332 326.167C764.948 324.099 764.931 321.9 764.949 319.227C766.698 321.035 768.571 323.302 765.332 326.167Z" fill="#9CD0CA"/>
<path d="M765.188 329.081C764.983 328.987 764.967 328.739 764.976 328.114C765.127 328.134 765.252 328.531 765.188 329.081Z" fill="#9CD0CA"/>
<path d="M807.727 323.979C807.873 324.877 807.822 325.568 807.771 326.259C807.522 326.224 807.273 326.189 807.025 326.154C807.193 325.36 807.361 324.566 807.727 323.979Z" fill="#9CD0CA"/>
<path d="M815.849 330.051C815.515 327.137 814.417 324.028 815.094 321.372C815.622 319.3 818.319 317.605 820.974 320.866C821.619 325.887 819.964 328.726 815.849 330.051Z" fill="#9DCEC8"/>
<path d="M815.978 330.406C819.964 328.726 821.619 325.887 821.061 321.228C823.646 322.06 825.256 326.996 823.398 329.255C821.605 331.435 819.283 333.963 815.978 330.406Z" fill="#D2B7A6"/>
<path d="M427.063 567.09C445.203 567.098 462.855 567.09 480.506 567.12C486.568 567.13 487.704 568.295 487.85 574.43C488.144 586.814 486.254 598.467 478.197 608.621C469.364 619.752 452.784 619.828 444.352 608.274C442.11 605.202 440.046 601.891 438.553 598.411C437.072 594.957 436.414 591.151 435.395 587.5C427.437 588.573 427.564 588.495 423.234 581.483C421.367 578.46 418.802 575.875 416.669 573.004C416.032 572.146 415.168 570.672 415.494 570.049C416.105 568.881 417.408 567.528 418.605 567.326C421.2 566.889 423.91 567.127 427.063 567.09ZM449.524 603.903C457.682 612.347 466.566 612.752 473.307 603.907C479.822 595.36 482.359 585.292 480.652 574.528C476.383 573.295 473.264 573.502 471.696 578.174C470.865 580.649 469.223 582.876 467.802 585.122C465.279 589.11 460.122 589.184 457.486 585.276C456.608 583.975 455.986 582.501 454.652 579.986C452.172 585.783 449.157 589.528 442.641 587.867C442.458 588.37 442.275 588.872 442.092 589.375C444.432 594.018 446.771 598.662 449.524 603.903ZM449.445 575.916C449.5 576 444 575.5 444 575.5H442.5L446.422 580.94L449.445 575.916ZM431.803 579.102C432.491 577.655 433.18 576.209 434.079 574.318C431.471 574.318 429.476 574.318 427.48 574.318C427.248 574.665 427.015 575.011 426.783 575.358C428.287 576.766 429.79 578.174 431.803 579.102ZM461.744 573.98C458.663 575.382 458.697 575.667 462.826 579.927C463.922 578.112 464.937 576.431 466.229 574.293C464.449 574.14 463.477 574.057 461.744 573.98Z" fill="#9DCEC8"/>
<path d="M482.56 563.224C477.916 561.781 473.576 560.624 469.381 559.076C467.855 558.513 465.781 557.152 465.594 555.91C465.42 554.751 467.144 552.756 468.512 552.018C472.888 549.654 477.388 547.433 482.053 545.746C483.592 545.189 485.777 546.421 487.666 546.836C486.721 548.545 486.049 550.517 484.744 551.882C483.701 552.973 481.887 553.326 479.223 554.558C481.583 555.554 483.135 555.891 484.268 556.769C485.638 557.83 486.654 559.348 487.823 560.669C486.189 561.564 484.555 562.459 482.56 563.224Z" fill="#9DCEC8"/>
<path d="M421.948 548.019C424.968 549.504 427.778 550.627 430.258 552.253C431.465 553.044 432.776 554.815 432.706 556.067C432.644 557.155 430.875 558.6 429.564 559.082C425.217 560.678 420.791 562.153 416.279 563.146C414.777 563.476 412.924 562.212 411.231 561.677C412.155 560.012 412.786 558.042 414.097 556.778C415.131 555.782 417.003 555.655 419.605 554.766C416.894 553.479 414.856 552.994 413.544 551.747C412.345 550.606 411.93 548.641 411.169 547.039C412.687 546.421 414.297 545.145 415.702 545.341C417.747 545.627 419.643 546.972 421.948 548.019Z" fill="#9DCEC8"/>
<path d="M449.318 603.604C446.771 598.662 444.432 594.018 442.092 589.375C442.275 588.872 442.458 588.37 442.641 587.867C449.157 589.528 452.172 585.783 454.652 579.986C455.986 582.501 456.608 583.975 457.486 585.276C460.122 589.184 465.279 589.11 467.802 585.122C469.223 582.876 470.865 580.649 471.696 578.174C473.264 573.502 476.383 573.295 480.652 574.528C482.359 585.292 479.822 595.36 473.307 603.907C466.566 612.752 457.682 612.347 449.318 603.604Z" fill="#F5FCFC"/>
<path d="M431.548 579.342C429.79 578.174 428.287 576.766 426.783 575.358C427.015 575.011 427.248 574.665 427.48 574.318C429.475 574.318 431.471 574.318 434.079 574.318C433.179 576.209 432.491 577.655 431.548 579.342Z" fill="#F4F5F0"/>
<path d="M462.125 573.977C463.477 574.057 464.449 574.14 466.229 574.293C464.937 576.431 463.922 578.112 462.826 579.927C458.697 575.667 458.663 575.382 462.125 573.977Z" fill="#F5FCFC"/>
</svg>
