<svg width="351" height="621" viewBox="0 0 351 621" fill="none" xmlns="http://www.w3.org/2000/svg">
<path d="M151.816 381.358C143.437 371.831 135.2 362.608 127.137 353.23C124.789 350.499 122.294 349.362 118.646 349.379C86.5122 349.527 54.3773 349.471 22.2427 349.464C8.90601 349.461 0.992553 341.446 0.991732 327.921C0.985628 226.094 0.984479 124.268 0.991595 22.4411C0.992471 9.6718 9.51807 0.981586 22.0329 0.980923C124.714 0.975501 227.396 1.04004 330.077 0.893576C341.417 0.877401 351.017 9.962 350.987 21.9973C350.726 124.28 350.741 226.565 350.96 328.848C350.988 341.662 341.75 349.949 330.257 349.767C301.268 349.308 272.267 349.587 243.272 349.642C238.955 349.65 234.625 349.9 230.331 350.339C229.005 350.475 227.465 351.313 226.553 352.326C216.47 363.535 206.476 374.828 196.488 386.126C190.597 392.79 184.731 399.477 178.915 406.208C177.193 408.202 175.707 408.63 173.796 406.431C166.577 398.121 159.288 389.874 151.816 381.358ZM216.627 106.644C217.958 106.996 219.289 107.348 221.26 107.849C222.584 108.818 223.908 109.787 225.169 111.552C225.196 113.411 225.223 115.271 225.19 117.869C225.207 118.856 225.225 119.843 225.176 121.68C225.174 127.091 225.052 132.507 225.256 137.91C225.304 139.201 226.437 140.45 227.139 142.39C228.558 143.395 230.284 145.462 231.321 145.15C232.799 144.704 233.771 142.513 235.653 141.084C236.11 141.155 236.567 141.227 236.989 141.918C237.383 144.794 239.392 146.139 241.69 145.173C243.129 144.568 244.263 142.287 244.763 140.53C245.279 138.715 244.949 136.618 244.831 134.654C244.671 131.974 245.862 130.694 248.796 131.217C249.661 131.436 250.526 131.655 251.305 132.556C251.279 134.807 251.543 136.627 254.575 135.647C255.677 135.291 256.931 135.42 258.564 135.836C260.673 137.826 262.782 139.815 264.789 142.55C264.532 146.474 267.516 145.593 269.339 145.251C270.578 145.019 272.201 143.441 272.492 142.185C273.039 139.829 272.908 137.152 269.159 136.69C267.671 135.271 265.76 134.104 264.777 132.386C262.251 127.973 259.217 124.783 253.504 124.741C251.594 121.391 254.483 116.473 258.47 116.128C260.141 115.984 262.24 116.045 263.349 115.071C266.03 112.718 268.086 109.64 270.684 107.171C273.87 104.145 273.41 100.977 269.051 98.3551C267.289 97.7685 265.526 97.1819 263.479 96.5002C263.022 98.6214 262.749 99.8908 262.686 100.182C260.56 101.701 259.154 102.744 257.708 103.727C256.454 104.579 255.235 105.827 253.859 106.072C251.395 106.511 248.286 105.322 248.219 109.734C248.213 110.109 246.023 110.45 244.866 109.937C244.868 102.863 244.862 95.7883 244.877 88.7138C244.882 86.278 244.776 83.9835 241.202 83.7445C239.153 83.1842 237.105 82.624 234.201 81.83C234.201 91.6758 234.201 100.368 233.517 109.009C232.833 109.03 232.149 109.052 231.33 108.534C231.28 108.357 231.229 108.179 231.279 107.437C230.762 106.985 230.246 106.533 229.384 105.578C228.295 104.584 227.21 103.587 226.118 102.598C224.068 100.743 222.1 97.4614 219.943 97.3257C214.7 96.9958 208.967 95.173 205.087 98.6815C202.022 97.8838 199.686 97.2758 196.924 96.557C196.924 98.5907 196.934 99.6062 196.923 100.621C196.791 112.583 196.656 124.545 195.849 136.459C194.962 136.487 194.075 136.515 192.87 135.963C192.551 135.668 192.232 135.373 191.948 134.29C191.954 125.545 191.959 116.799 191.966 108.054C191.968 105.695 192.076 103.255 188.448 103.025C186.298 101.022 184.336 97.6266 181.961 97.2924C176.036 96.459 169.923 97.0178 163.886 97.0178C164.093 97.4816 164.3 97.9454 164.507 98.4092C162.86 99.8693 161.214 101.329 159.018 103.277C158.956 104.307 158.841 106.255 158.078 108.13C157.216 108.157 156.354 108.183 155.354 107.512C155.263 107.047 155.173 106.582 155.069 105.502C153.668 104.604 152.267 103.707 150.594 102.285C150.309 102.022 150.024 101.76 149.711 100.89C148.61 100.273 147.508 99.656 146.207 98.285C144.936 97.8485 143.677 97.0897 142.39 97.0361C138.598 96.8783 134.794 96.9999 130.99 96.176C130.974 93.7427 131.372 91.2023 130.803 88.9117C130.389 87.2447 128.698 85.9074 127.388 83.7035C124.724 81.9512 122.131 80.5105 120.315 85.2162C119.427 85.2206 118.539 85.225 117.572 84.4636C116.334 83.7804 115.122 82.5735 113.853 82.5079C109.241 82.2694 104.609 82.4127 99.9852 82.4125C94.3741 82.4122 88.7631 82.4124 82.8881 82.4124C83.1306 85.4037 81.1992 88.469 85.4265 89.6452C86.7412 90.5571 87.9653 92.0125 89.3909 92.26C91.8311 92.6835 94.3974 92.351 96.9687 93.2068C96.9898 107.728 96.9485 122.25 97.1177 136.77C97.1371 138.435 98.3322 140.086 98.9564 142.425C99.7979 145.555 102.358 146.06 104.579 145.134C105.755 144.643 106.696 142.141 106.746 140.516C106.967 133.23 106.826 125.934 106.824 118.642C106.822 111.653 106.781 104.664 106.853 97.6766C106.887 94.2931 107.768 91.7921 112.045 92.2931C114.979 92.6369 117.992 92.2823 121.081 93.1176C121.1 107.852 121.101 122.586 121.159 137.32C121.167 139.27 120.34 141.961 123.917 142.406C125.244 143.413 126.844 145.445 127.831 145.173C129.126 144.815 130.756 142.675 130.818 141.239C131.124 134.116 130.855 126.97 131.008 119.837C131.082 116.426 129.246 112.005 134.702 110.754C134.989 110.688 135.308 110.029 135.334 109.627C135.526 106.679 137.586 106.983 139.546 106.99C141.181 106.996 142.817 106.89 144.829 107.394C148.222 108.354 149.251 110.604 149.137 114.15C148.895 121.688 148.97 129.243 149.158 136.784C149.197 138.317 150.307 139.821 150.977 141.911C154.046 147.87 154.393 147.81 161.606 139.73C162.189 141.385 162.692 142.813 163.323 144.603C165.409 144.603 167.509 144.603 170.185 144.644C170.57 144.636 170.955 144.628 171.566 145.284C176.286 147.333 180.388 146.148 183.403 142.307C184.134 141.375 185.888 141.277 187.946 141.039C188.202 141.128 188.457 141.218 188.583 141.957C189.448 143.101 190.179 145.05 191.205 145.227C193.685 145.656 196.758 146.347 197.389 143.7C200.236 144.228 203.216 145.658 205.403 144.852C206.683 144.379 207.13 140.353 207.202 137.902C207.409 130.789 207.192 123.665 207.268 116.546C207.278 115.615 207.913 114.614 208.457 113.78C210.124 111.223 211.888 108.731 214.264 106.242C214.915 106.223 215.565 106.205 216.627 106.644ZM212.86 259.759C213.638 262.053 214.586 264.143 217.593 263.126C220.195 262.245 222.167 260.82 221.504 257.552C220.46 252.404 220.737 247.323 221.05 242.058C221.772 229.911 221.444 217.695 221.383 205.507C221.366 202.104 222.117 198.038 217.048 196.22C212.452 193.666 210.87 194.469 210.86 199.447C210.83 213.066 210.806 226.686 210.88 240.305C210.887 241.688 211.571 243.067 211.862 245.11C211.899 246.003 211.937 246.896 211.347 248.287C211.349 251.969 208.815 256.009 212.86 259.759ZM250.457 259.785C252.253 260.962 254.049 262.139 255.845 263.316C256.716 261.82 258.273 260.347 258.319 258.825C258.427 255.296 257.499 251.741 257.531 248.202C257.676 232.171 258.069 216.143 258.131 200.113C258.135 199.062 256.116 198.002 254.802 196.232C252.888 195.763 250.973 195.294 248.586 194.71C248.586 211.411 248.573 227.003 248.629 242.595C248.632 243.228 249.276 243.858 249.529 245.066C249.301 246.01 249.072 246.955 248.635 248.731C248.602 250.646 248.302 252.608 248.614 254.463C248.886 256.079 249.847 257.575 250.457 259.785ZM121.072 230.333C121.095 234.245 121.083 238.158 121.154 242.07C121.195 244.308 120.514 247.315 121.653 248.633C124.989 252.497 129.074 255.687 132.893 259.834C133.88 260.723 134.814 262.294 135.864 262.38C139.565 262.685 143.312 262.598 147.028 262.394C148.066 262.337 149.152 261.491 150.051 260.787C153.284 258.252 154.405 253.569 158.667 251.979C159.189 251.784 159.285 250.401 160.244 249.653C163.457 252.824 166.67 255.995 169.857 259.784C170.941 260.676 171.992 262.279 173.115 262.334C177.484 262.544 181.874 262.216 186.257 262.189C187.949 262.178 189.749 262.108 191.316 262.635C195.371 264.001 197.265 262.859 197.284 258.437C197.339 245.856 197.302 233.275 197.3 220.694C197.3 217.868 196.355 215.945 192.923 215.466C191.128 214.934 189.333 214.402 186.751 213.636C186.751 216.321 186.752 217.944 186.751 219.567C186.749 227.772 186.796 235.978 186.692 244.182C186.677 245.377 186.246 246.851 185.477 247.692C184.112 249.184 182.34 250.29 179.711 252.37C176.779 252.277 171.616 254.126 169.348 247.144C169.118 245.508 168.655 243.865 168.698 242.236C168.864 236.045 169.309 229.86 169.412 223.669C169.465 220.531 170.372 216.625 165.148 215.416C163.227 214.942 161.306 214.468 158.719 213.83C158.719 218.738 158.719 222.507 158.072 226.152C157.2 226.191 156.328 226.229 155.293 225.595C153.895 224.357 152.032 223.385 151.182 221.835C147.806 215.679 143.008 213.84 136.089 213.873C130.386 213.899 128.808 218.399 126.121 221.143C124.477 222.822 123.562 224.262 121.177 223.466C122.245 219.924 121.835 217.108 117.505 215.406C112.815 212.873 111.545 213.617 111.285 218.701C111.201 220.346 110.682 223.159 109.859 223.367C106.231 224.282 106.791 226.871 106.797 229.394C106.803 232.09 106.799 234.785 106.799 237.48C106.363 237.242 105.927 237.004 105.491 236.766C103.659 238.674 101.827 240.582 99.7575 242.737C99.377 241.245 98.9503 239.571 98.5317 237.15C98.2979 234.618 97.9362 232.091 97.8669 229.555C97.7996 227.089 96.8601 225.863 94.204 225.442C92.6367 222.046 91.1377 218.613 89.4389 215.287C89.1361 214.694 87.9392 214.15 87.2694 214.266C85.8085 214.52 83.2056 215.205 83.2017 215.73C83.1774 219.045 82.5492 223.726 84.3691 225.376C87.4171 228.139 88.3917 230.8 87.9569 234.402C87.2421 240.324 94.5252 243.203 93.3085 249.291C93.2989 249.338 94.7284 249.45 94.8848 249.807C95.6816 251.623 96.5413 253.501 96.7475 255.427C96.7937 255.858 94.3479 256.887 92.9735 257.08C90.9305 257.368 88.7957 256.962 86.7469 257.228C85.437 257.398 83.1535 258.236 83.148 258.794C83.1316 260.443 84.0304 262.102 84.6001 264.352C86.5129 265.55 88.3278 267.49 90.3616 267.768C93.3594 268.179 96.8464 268.158 99.5089 266.931C102.315 265.637 105.308 263.136 106.548 260.38C107.871 257.438 108.446 254.737 110.833 251.899C113.124 249.174 114.093 244.47 116.413 240.875C117.437 239.286 116.808 236.414 116.541 234.172C116.114 230.579 117.464 229.055 121.072 230.333Z" fill="#94CCC6"/>
<path d="M145.956 444.224C148.103 444.069 149.935 443.874 151.717 443.459C161.383 441.204 164.333 432.512 168.574 425.064C169.397 423.619 170.143 422.121 171.056 420.737C174.432 415.619 178.608 415.585 181.945 420.823C184.38 424.645 186.202 428.893 188.817 432.566C190.246 434.571 192.547 436.626 194.813 437.206C216.618 442.787 235.564 463.411 237.826 487.759C239.582 506.67 234.015 522.786 220.885 536.201C217.531 539.628 215.749 543.588 216.215 548.512C216.697 553.619 217.087 558.736 217.597 564.8C220.901 563.642 223.661 562.767 226.355 561.716C236.957 557.578 247.891 556.79 258.884 559.166C262.757 560.003 266.276 562.541 270.446 564.536C270.885 564.13 271.833 562.774 273.117 562.199C274.367 561.64 275.962 561.882 277.405 561.773C277.243 563.138 277.533 564.876 276.815 565.785C275.666 567.241 273.848 568.148 272.312 569.286C272.666 569.815 273.02 570.344 273.374 570.872C275.239 570.872 277.17 570.575 278.948 570.977C280.129 571.245 281.092 572.514 282.153 573.334C281.138 574.258 280.254 575.648 279.076 575.991C277.494 576.453 275.685 576.106 273.973 576.106C273.465 576.865 272.956 577.623 272.448 578.382C273.777 578.993 275.561 579.262 276.318 580.305C277.186 581.501 277.144 583.385 277.498 584.97C275.986 584.701 274.394 584.644 272.99 584.091C271.965 583.688 271.186 582.632 270 581.61C265.169 589.096 258.523 589.265 250.649 588.505C244.706 587.932 238.357 589.993 232.406 591.677C224.801 593.83 224.807 594.21 227.692 601.873C229.129 605.692 230.856 609.409 232.635 613.08C235.415 618.816 234.557 620.281 228.444 620.347C221.291 620.424 214.14 620.847 206.987 620.868C186.845 620.927 166.703 620.875 146.561 620.817C143.715 620.809 141.472 619.819 140.227 616.78C137.125 609.204 133.613 601.798 130.659 594.166C129.418 590.959 128.037 590.27 124.988 591.542C114.268 596.015 103.116 597.738 91.7394 595.175C87.5485 594.231 83.7018 591.698 79.0321 589.589C78.6728 589.903 77.687 591.108 76.4262 591.763C75.2783 592.359 73.8319 592.357 72.5171 592.619C72.5936 591.082 72.3215 589.403 72.8478 588.047C73.3416 586.775 74.6794 585.843 76.4815 583.826C73.6424 583.639 71.8983 583.793 70.3325 583.326C69.2872 583.015 68.4955 581.818 67.5903 581.017C68.5227 580.083 69.3327 578.582 70.4143 578.339C72.3668 577.901 74.4816 578.215 76.9201 577.31C75.8556 576.42 74.3941 575.738 73.8199 574.592C72.9617 572.881 72.7282 570.843 72.229 568.945C73.8571 569.409 75.512 569.797 77.1003 570.376C77.7529 570.613 78.2618 571.262 79.1083 571.942C80.8225 570.423 82.3734 568.826 84.1356 567.529C89.0716 563.894 94.678 564.797 100.072 565.685C108.284 567.035 115.073 562.569 122.467 560.582C122.851 560.478 123.233 560.077 123.464 559.714C124.748 557.693 122.364 546.379 120.322 545.054C117.556 543.259 114.709 541.596 111.918 539.84C107.666 537.166 107.64 532.304 111.861 529.578C113.247 528.684 114.575 527.52 116.099 527.055C122.458 525.114 123.013 520.573 123.359 514.506C123.838 506.119 121.057 500.737 114.272 496.438C112.332 495.21 110.744 491.728 110.854 489.37C110.933 487.668 113.948 485.895 115.921 484.569C117.37 483.596 119.296 483.397 120.934 482.672C123.576 481.503 125.738 480.063 126.086 476.567C126.304 474.385 127.294 472.088 128.517 470.242C132.528 464.189 132.436 457.792 130.776 451.093C130.006 447.984 129.165 444.68 132.166 442.231C135.283 439.687 138.341 441.313 141.385 442.664C142.741 443.266 144.204 443.618 145.956 444.224ZM147.138 560.523C147.459 564.068 145.021 563.469 142.957 563.408C140.307 563.33 137.533 562.674 135.03 563.251C128.367 564.787 121.754 566.636 115.247 568.762C108.549 570.951 101.851 571.53 94.9589 570.242C89.3443 569.193 84.3147 572.347 82.882 577.772C81.5823 582.693 84.6842 588.353 90.3399 589.332C96.4192 590.384 102.867 591.163 108.876 590.219C116.898 588.958 124.593 585.662 132.55 583.772C135.892 582.978 139.565 583.326 143.043 583.651C143.891 583.73 144.563 585.767 145.316 586.904C144.147 587.376 143.005 588.145 141.803 588.259C139.512 588.477 137.187 588.322 134.273 588.322C134.871 590.654 135.114 592.455 135.787 594.07C138.234 599.947 140.936 605.715 143.317 611.619C144.581 614.753 146.493 615.733 149.814 615.712C173.862 615.562 197.912 615.629 221.961 615.627C223.54 615.627 225.119 615.627 226.525 615.627C226.778 614.704 226.968 614.393 226.914 614.136C226.761 613.401 226.584 612.653 226.284 611.97C218.907 595.21 214.048 577.726 212.2 559.45C211.097 548.534 210.59 538.455 220.017 529.365C231.257 518.524 234.98 503.482 233.03 487.823C229.571 460.045 205.231 439.691 178.653 440.69C152.253 441.682 128.633 465.057 128.362 492.073C128.186 509.591 128.262 527.111 128.229 544.63C128.22 549.291 128.228 553.953 128.228 557.442C135.092 558.311 141 559.059 147.138 560.523ZM225.133 588.398C235.691 584.469 246.255 581.409 257.818 583.548C262.52 584.417 266.652 579.726 267.045 574.879C267.427 570.157 264.183 565.717 259.441 564.388C245.871 560.584 233.182 564.239 220.69 569.243C219.875 569.57 218.87 571.189 219.031 571.976C220.157 577.462 221.55 582.891 222.947 588.314C223.005 588.541 223.954 588.528 225.133 588.398ZM178.337 435.977C180.155 435.876 181.973 435.776 184.696 435.625C181.903 430.744 179.467 426.486 176.438 421.193C173.06 427.095 170.387 431.764 167.41 436.965C171.472 436.644 174.538 436.402 178.337 435.977ZM123.746 536.258C123.746 533.932 123.746 531.606 123.746 528.289C119.782 530.701 116.791 532.521 113.036 534.807C116.981 537.075 119.954 538.785 123.37 540.749C123.541 539.039 123.641 538.036 123.746 536.258ZM118.435 493.557C119.857 494.676 121.279 495.795 123.463 497.514C123.463 493.442 123.463 490.51 123.463 487.016C120.817 487.983 118.291 488.906 115.765 489.828C115.413 490.452 115.06 491.075 114.707 491.699C115.789 492.165 116.87 492.631 118.435 493.557ZM141.836 451.461C142.367 450.65 142.899 449.839 143.632 448.72C140.519 447.637 137.847 446.708 134.61 445.582C135.355 449.673 135.928 452.815 136.501 455.958C136.94 456.161 137.379 456.363 137.819 456.566C139.006 455.012 140.193 453.457 141.836 451.461Z" fill="#9FCEC8"/>
<path d="M268.13 538.2C265.946 542.549 262.841 545.079 258.259 543.828C253.681 542.579 252.248 538.768 252.246 534.264C252.242 524.054 252.314 513.843 252.193 503.634C252.152 500.218 253.853 498.894 256.804 498.869C266.174 498.79 275.545 498.792 284.916 498.812C290.391 498.823 291.364 499.856 291.38 505.525C291.4 512.664 291.385 519.802 291.385 526.924C298.432 527.188 301.941 529.729 302.279 534.57C302.634 539.66 299.425 543.766 294.84 544.089C290.254 544.412 286.414 540.718 286.288 535.564C286.147 529.777 286.258 523.984 286.23 518.193C286.223 516.698 286.109 515.204 286.016 513.056C277.024 513.056 268.272 512.989 259.526 513.177C258.797 513.193 257.562 514.883 257.491 515.865C257.24 519.327 257.394 522.819 257.394 525.253C261.102 527.401 264.518 528.66 266.871 531.021C268.208 532.361 267.806 535.505 268.13 538.2ZM276.747 507.787C278.978 507.782 281.225 507.932 283.433 507.699C284.377 507.599 285.241 506.701 286.142 506.166C285.233 505.485 284.335 504.232 283.413 504.213C275.681 504.056 267.945 504.073 260.213 504.198C259.301 504.213 258.404 505.202 257.5 505.739C258.413 506.416 259.306 507.643 260.242 507.678C265.441 507.875 270.65 507.781 276.747 507.787ZM295.318 532.435C292.699 532.093 290.577 533.009 291.108 535.895C291.324 537.07 293.719 538.619 295.116 538.613C297.908 538.6 298.239 535.879 295.318 532.435ZM263.676 536.337C262.828 535.032 262.224 533.302 261.035 532.598C260.41 532.228 258.12 533.396 257.749 534.344C257.341 535.388 258.242 538.117 258.628 538.128C260.248 538.174 261.889 537.479 263.676 536.337Z" fill="#9FCEC8"/>
<path d="M87.2961 482.915C84.6303 480.734 81.4736 479.006 80.1605 476.336C76.7643 469.429 74.2384 462.081 71.2492 454.96C69.8119 451.536 70.2104 449.494 74.0564 448.004C81.2891 445.203 88.3991 442.024 95.3836 438.625C98.6202 437.049 100.423 437.72 101.727 440.855C104.05 446.438 106.366 452.025 108.676 457.59C116.026 456.293 118.795 457.341 120.366 461.965C121.619 465.655 120.128 469.227 116.568 471.061C113.467 472.659 109.523 471.54 107.786 468.083C105.48 463.492 103.412 458.757 101.567 453.953C100.506 451.193 99.3868 450.509 96.6152 451.823C90.846 454.557 84.915 456.937 78.6624 459.629C80.1314 462.943 81.4026 465.81 82.6483 468.62C91.0854 468.054 94.2687 469.725 94.8996 474.946C95.4081 479.154 92.8548 481.967 87.2961 482.915ZM93.2294 444.835C87.2765 447.494 81.3236 450.153 75.3707 452.811C75.695 453.521 76.0193 454.23 76.3435 454.94C83.598 451.827 90.8524 448.715 98.1069 445.602C97.8799 444.979 97.6528 444.357 97.4258 443.734C96.2474 444.036 95.069 444.337 93.2294 444.835Z" fill="#A0CEC8"/>
<path d="M62.1551 530.342C61.985 525.718 64.7205 523.333 67.8235 521.373C70.1954 519.875 71.0759 518.13 71.229 515.146C71.5831 508.25 72.9023 501.5 78.6958 496.8C79.6223 496.049 80.6024 494.935 81.6333 494.84C83.6361 494.655 85.6924 495.074 87.7266 495.242C86.5671 496.763 85.7067 498.795 84.1957 499.716C77.8352 503.594 74.6722 511.18 78.0863 518.05C78.8867 515.074 79.148 512.957 80.0145 511.14C81.463 508.102 83.119 505.118 85.0984 502.426C85.5833 501.767 87.658 502.323 89.0018 502.32C88.8656 503.674 89.1984 505.381 88.516 506.323C84.5108 511.851 84.4309 511.791 84.716 515.617C87.0923 516.089 89.645 516.285 91.9554 517.153C93.8256 517.855 95.7769 519.068 96.9738 520.627C97.7059 521.581 97.0807 523.618 97.065 525.169C95.7934 524.885 94.4746 524.733 93.2601 524.287C90.9301 523.43 88.6592 522.406 85.9102 521.263C86.1985 528.04 88.8162 531.53 93.7519 533.657C94.9663 534.181 95.6976 535.87 96.651 537.023C95.0736 537.756 93.3032 539.377 91.9518 539.071C85.6844 537.654 83.3432 532.152 80.9704 526.885C80.3624 525.536 80.1138 524.018 78.6479 522.346C78.2969 523.299 77.5239 524.321 77.6601 525.196C79.0835 534.338 85.9965 540.718 95.0956 541.778C96.245 541.912 97.2535 543.304 98.3272 544.113C97.2345 545.064 96.2297 546.694 95.0347 546.855C87.3761 547.886 79.9626 543.127 75.8949 534.699C74.4572 531.72 73.407 528.546 71.7132 524.288C69.966 526.602 68.6005 528.511 67.1231 530.325C66.3214 531.31 65.4376 532.369 64.3568 532.885C64.0336 533.039 62.9197 531.471 62.1551 530.342Z" fill="#A0CEC8"/>
<path d="M268.547 447.584C269.51 445.749 270.276 444.184 271.042 442.619C270.814 442.348 270.586 442.077 270.358 441.805C268.224 442.658 266.096 443.53 263.952 444.358C261.73 445.216 259.543 446.247 257.248 446.808C254.454 447.492 253.743 446.045 254.592 443.444C258.133 432.605 267.574 426.65 278.698 428.269C282.57 428.833 283.613 430.597 281.678 434.264C277.517 442.145 273.224 449.959 268.746 457.657C267.155 460.393 266.519 461.815 270.175 463.409C275.059 465.537 276.653 471.795 274.246 476.705C271.968 481.349 266.117 483.431 261.593 481.206C257.245 479.068 255.034 472.573 257.47 467.774C260.894 461.027 264.705 454.484 268.547 447.584ZM265.371 438.184C268.757 436.235 273.74 438.013 276.609 433.605C271.042 432.152 266.944 433.872 264.407 438.266C264.491 438.24 264.576 438.215 265.371 438.184ZM269.916 469.836C268.075 467.068 265.376 466.419 263.142 468.531C261.892 469.714 261.074 472.972 261.804 474.293C262.564 475.668 265.539 476.627 267.337 476.351C270.247 475.905 271.157 473.412 269.916 469.836Z" fill="#9FCEC8"/>
<path d="M251.391 131.874C250.526 131.655 249.661 131.436 248.641 130.582C248.256 129.117 248.269 128.047 247.752 127.504C246.167 125.839 244.378 124.377 241.924 122.164C241.62 122.952 240.737 124.262 240.664 125.617C240.459 129.396 240.448 133.202 240.637 136.983C240.776 139.781 239.925 141.333 237.024 141.299C236.567 141.227 236.11 141.155 235.189 140.705C234.55 129.905 234.376 119.482 234.201 109.06C234.201 100.368 234.201 91.6758 234.201 81.8301C237.105 82.624 239.153 83.1843 241.267 84.5065C241.292 94.0587 241.21 102.849 241.262 111.639C241.269 112.934 241.912 114.225 242.261 115.519C242.644 115.452 243.028 115.385 243.411 115.318C243.89 113.814 244.369 112.31 244.848 110.806C246.023 110.45 248.213 110.109 248.218 109.734C248.286 105.322 251.395 106.511 253.859 106.072C255.235 105.828 256.454 104.579 257.708 103.727C259.154 102.744 260.56 101.701 262.686 100.182C262.749 99.8908 263.022 98.6214 263.478 96.5003C265.526 97.1819 267.289 97.7685 269.105 99.0483C268.515 100.81 268.047 102.062 267.195 102.913C264.137 105.965 260.949 108.881 257.279 112.351C252.307 109.4 250.755 116.779 246.453 117.805C246.4 117.818 246.448 120.005 247.021 120.547C247.648 121.139 248.942 120.997 249.945 121.175C249.772 121.631 249.599 122.087 249.425 122.543C250.868 123.463 252.311 124.384 253.754 125.304C259.217 124.783 262.251 127.973 264.777 132.386C265.76 134.104 267.671 135.272 269.164 137.37C269.382 141.243 266.882 141.222 264.891 141.804C262.782 139.815 260.673 137.826 258.406 135.219C257.727 129.079 253.67 132.801 251.391 131.874Z" fill="#F3F0E2"/>
<path d="M149.738 101.497C150.024 101.759 150.309 102.022 150.712 102.885C150.519 107.265 153.272 105.9 155.083 106.117C155.173 106.582 155.263 107.047 155.365 108.168C155.385 109.459 155.394 110.094 155.349 111.03C155.465 112.093 155.635 112.855 155.809 113.959C155.816 115.209 155.819 116.118 155.636 117.357C155.432 124.225 155.414 130.763 155.348 137.667C155.636 141.608 152.795 140.806 150.923 141.338C150.307 139.821 149.197 138.317 149.158 136.784C148.97 129.243 148.895 121.688 149.137 114.15C149.251 110.604 148.222 108.354 144.662 106.748C144.314 105.098 144.484 103.692 143.894 103.156C140.868 100.412 132.434 103.336 131.385 107.572C130.24 107.822 128.994 108.093 127.398 108.441C127.398 117.988 127.235 127.344 127.492 136.689C127.575 139.713 126.563 141.099 123.901 141.659C120.34 141.961 121.167 139.27 121.159 137.319C121.101 122.586 121.1 107.851 121.084 92.3025C121.049 89.4089 121.011 87.3303 120.973 85.2516C122.131 80.5104 124.724 81.9511 127.446 84.4687C127.469 89.7431 127.35 94.2545 127.469 98.7594C127.494 99.6968 128.402 100.61 128.903 101.534C129.57 100.627 130.327 99.7715 130.864 98.7907C131.122 98.3199 130.964 97.6123 130.994 97.012C134.794 96.9998 138.598 96.8782 142.39 97.036C143.677 97.0895 144.936 97.8484 146.277 98.9925C147.477 100.299 148.608 100.898 149.738 101.497Z" fill="#F4F3E6"/>
<path d="M158.725 108.203C158.841 106.255 158.956 104.307 159.018 103.277C161.214 101.329 162.86 99.8693 164.507 98.4092C164.3 97.9454 164.093 97.4817 163.886 97.0179C169.923 97.0179 176.036 96.459 181.961 97.2924C184.336 97.6266 186.298 101.023 188.484 103.76C188.489 113.586 188.5 122.676 188.401 131.765C188.373 134.362 188.886 136.016 191.913 135.078C192.232 135.373 192.551 135.668 192.977 136.615C193.605 140.842 191.275 141.205 188.713 141.308C188.457 141.218 188.202 141.128 187.627 140.643C187.107 139.555 186.908 138.862 186.726 137.944C186.745 137.718 186.668 137.271 186.6 137.062C186.35 136.596 186.102 136.47 185.414 136.428C183.781 136.422 182.523 136.464 180.95 136.502C180.233 137.371 179.832 138.245 179.393 139.374C179.345 139.974 179.335 140.318 179.15 140.75C178.976 140.838 178.65 141.053 178.232 141.039C174.475 141.117 171.137 141.209 167.451 141.232C165.65 140.072 164.195 138.98 162.74 137.889C162.964 137.487 163.188 137.085 163.413 136.683C162.015 136.47 160.616 136.258 159.047 136.02C158.939 133.856 158.842 131.933 158.787 129.611C158.8 127.612 158.771 126.013 158.778 124.041C159.561 120.933 165.482 116.236 169.031 115.993C173.537 116.087 177.623 116.087 182.053 116.087C182.053 112.685 182.053 109.859 182.092 106.643C181.592 105.063 181.106 102.874 180.505 102.84C175.519 102.562 170.511 102.683 165.638 102.683C164.195 112.727 164.195 112.727 158.83 112.252C158.781 111.554 158.734 111.157 158.729 110.439C158.756 109.48 158.74 108.842 158.725 108.203ZM182.16 123.696C181.786 123.106 181.424 122.011 181.037 122.002C176.416 121.893 171.788 121.856 167.172 122.051C166.498 122.079 165.374 123.378 165.319 124.153C165.093 127.332 165.077 130.544 165.308 133.72C165.346 134.248 166.993 134.654 168.699 135.247C171.581 135.247 174.463 135.247 177.346 135.247C177.133 134.772 176.921 134.297 176.708 133.823C178.074 132.531 179.622 131.384 180.74 129.899C181.498 128.893 181.65 127.413 182.126 125.586C182.118 125.209 182.11 124.831 182.16 123.696Z" fill="#F4F3E6"/>
<path d="M84.5713 263.757C84.0305 262.102 83.1317 260.443 83.1481 258.794C83.1536 258.236 85.4371 257.398 86.7469 257.228C88.7957 256.962 90.9305 257.368 92.9736 257.08C94.3479 256.887 96.7937 255.858 96.7476 255.427C96.5413 253.501 95.6817 251.623 94.8848 249.807C94.7285 249.451 93.299 249.339 93.3085 249.291C94.5252 243.203 87.2421 240.325 87.957 234.402C88.3918 230.8 87.4171 228.139 84.3692 225.376C82.5493 223.726 83.1775 219.045 83.2018 215.73C83.2056 215.205 85.8085 214.521 87.2695 214.266C87.9392 214.15 89.1361 214.694 89.4389 215.287C91.1377 218.613 92.6368 222.046 94.2307 226.207C94.2573 230.485 94.2573 233.999 94.2573 237.898C95.9872 237.898 97.2554 237.898 98.5236 237.898C98.9503 239.571 99.3771 241.245 99.7576 242.738C101.827 240.582 103.659 238.674 105.491 236.767C105.927 237.004 106.363 237.242 106.799 237.48C106.799 234.785 106.803 232.09 106.797 229.395C106.791 226.871 106.231 224.282 109.86 223.367C110.682 223.159 111.201 220.346 111.286 218.701C111.545 213.617 112.815 212.873 117.571 216.156C117.636 219.447 117.636 221.988 117.636 224.862C112.659 224.572 112.358 227.483 112.246 231.037C112.136 234.517 114.245 239.104 108.722 240.67C108.356 240.773 108.053 241.693 107.998 242.26C107.703 245.368 108.542 248.998 104.003 249.914C103.598 249.996 103.392 251.794 103.331 252.81C103.224 254.596 103.301 256.393 103.301 258.185C103.005 258.023 102.708 257.862 102.412 257.701C100.753 259.386 99.0936 261.072 97.4345 262.757C97.5884 263.09 97.7423 263.423 97.8962 263.757C93.4546 263.757 89.0129 263.757 84.5713 263.757Z" fill="#F4F3E6"/>
<path d="M169.883 259.167C166.67 255.996 163.457 252.824 159.757 249.293C159.086 241.38 158.903 233.829 158.719 226.277C158.719 222.507 158.719 218.738 158.719 213.83C161.306 214.468 163.227 214.942 165.203 216.174C165.259 227.048 165.259 237.165 165.259 247.667C166.783 247.749 168.059 247.819 169.335 247.888C171.616 254.127 176.779 252.278 179.711 252.37C182.34 250.29 184.112 249.184 185.477 247.692C186.246 246.851 186.677 245.378 186.692 244.182C186.796 235.978 186.749 227.772 186.751 219.567C186.752 217.944 186.751 216.321 186.751 213.637C189.333 214.402 191.128 214.934 192.985 216.225C193.046 230.862 193.046 244.739 193.046 258.765C190.6 258.765 189.015 258.765 187.472 258.765C186.873 257.142 186.352 255.731 185.244 252.731C184.087 260.427 179.503 258.806 175.67 258.922C173.74 258.98 171.812 259.084 169.883 259.167Z" fill="#F4F3E6"/>
<path d="M121.18 224.154C123.562 224.262 124.477 222.822 126.121 221.143C128.808 218.399 130.386 213.899 136.089 213.872C143.008 213.84 147.806 215.679 151.182 221.835C152.032 223.385 153.895 224.357 155.312 226.327C155.331 234.178 155.331 241.298 155.331 246.287C150.99 251.263 147.948 254.75 144.118 259.142C141.2 259.142 137.033 259.142 132.865 259.142C129.074 255.687 124.989 252.497 121.652 248.633C120.514 247.315 121.195 244.308 121.154 242.07C121.082 238.158 121.095 234.245 121.063 229.528C121.096 227.2 121.138 225.677 121.18 224.154ZM131.399 248.298C131.73 249.574 132.061 250.85 132.435 252.291C136.333 252.291 140.122 252.291 142.573 252.291C145.056 249.832 146.723 248.181 149.085 245.842C149.085 242.175 148.868 237.329 149.152 232.514C149.391 228.464 148.89 225.204 144.49 223.287C143.65 222.373 142.882 220.77 141.957 220.67C138.887 220.337 135.761 220.544 132.657 220.544C132.821 220.904 132.985 221.264 133.149 221.624C131.686 222.856 130.108 223.976 128.805 225.364C128.095 226.121 127.481 227.323 127.457 228.34C127.328 233.81 127.503 239.289 127.355 244.759C127.281 247.496 128.384 248.321 131.399 248.298Z" fill="#F4F3E6"/>
<path d="M225.242 120.83C225.225 119.843 225.207 118.856 225.461 117.262C225.566 114.689 225.399 112.723 225.232 110.757C223.908 109.787 222.584 108.818 220.928 107.555C220.384 106.873 220.172 106.485 219.994 105.713C219.729 104.537 219.652 103.331 219.093 103.017C214.805 100.606 208.565 103.27 207.248 107.974C207.261 107.999 207.219 107.963 206.833 107.94C203.347 107.428 202.728 109.07 202.763 111.871C202.886 121.567 202.818 131.266 202.581 141.138C199.067 141.39 195.972 141.245 196.522 136.507C196.656 124.545 196.791 112.583 196.923 100.621C196.934 99.6063 196.924 98.5909 196.924 96.5571C199.686 97.2759 202.022 97.884 205.087 98.6816C208.967 95.1732 214.7 96.996 219.943 97.3259C222.1 97.4615 224.067 100.743 226.117 102.598C227.21 103.587 228.295 104.585 229.567 106.111C230.227 107.096 230.703 107.549 231.179 108.001C231.229 108.179 231.28 108.357 231.362 109.109C231.316 110.09 231.24 110.496 230.978 111.165C230.912 113.587 231.03 115.744 231.196 118.261C231.212 119.102 231.181 119.583 230.958 120.359C230.705 122.913 230.793 125.189 230.55 127.429C230.06 131.944 229.389 136.439 228.515 140.989C227.864 141.069 227.491 141.102 227.038 140.74C226.673 136.617 226.413 132.888 226.091 129.163C225.85 126.382 225.528 123.607 225.242 120.83Z" fill="#F4F3E6"/>
<path d="M98.9822 141.743C98.3322 140.086 97.137 138.435 97.1176 136.77C96.9485 122.25 96.9898 107.728 96.9758 92.3932C96.0562 90.643 95.2017 89.0115 94.1889 88.902C91.3235 88.5921 88.3934 88.9056 85.4888 88.9736C81.1992 88.4689 83.1305 85.4035 82.8881 82.4123C88.763 82.4123 94.3741 82.412 99.9852 82.4123C104.609 82.4125 109.241 82.2693 113.853 82.5078C115.122 82.5734 116.334 83.7803 117.576 85.2093C116.51 86.8893 115.539 88.4262 114.348 88.6316C111.891 89.0553 109.308 88.9092 106.794 88.7359C104.034 88.5456 103.216 89.6997 103.243 92.4312C103.351 103.644 103.277 114.858 103.272 126.071C103.27 130.883 103.271 135.695 103.271 140.369C101.512 140.932 100.247 141.338 98.9822 141.743Z" fill="#F4F3E6"/>
<path d="M121.178 223.81C121.138 225.677 121.096 227.2 121.009 229.09C117.464 229.055 116.114 230.579 116.541 234.172C116.808 236.414 117.437 239.286 116.413 240.875C114.093 244.47 113.124 249.175 110.833 251.899C108.446 254.737 107.871 257.438 106.548 260.38C105.308 263.136 102.315 265.637 99.5088 266.931C96.8463 268.158 93.3593 268.179 90.3615 267.769C88.3278 267.49 86.5128 265.55 84.5856 264.055C89.0128 263.757 93.4545 263.757 97.8961 263.757C97.7422 263.423 97.5883 263.09 97.4344 262.757C99.0935 261.071 100.753 259.386 102.412 257.701C102.708 257.862 103.005 258.023 103.301 258.184C103.301 256.392 103.224 254.596 103.331 252.81C103.392 251.794 103.598 249.996 104.003 249.914C108.542 248.998 107.702 245.368 107.998 242.26C108.052 241.693 108.356 240.773 108.722 240.669C114.245 239.104 112.135 234.517 112.245 231.037C112.358 227.483 112.659 224.572 117.636 224.862C117.636 221.987 117.636 219.447 117.673 216.51C121.835 217.108 122.245 219.924 121.178 223.81Z" fill="#D7A794"/>
<path d="M211.941 244.448C211.571 243.067 210.887 241.688 210.88 240.305C210.806 226.686 210.83 213.066 210.86 199.447C210.87 194.469 212.452 193.666 217.115 196.979C217.183 213.143 217.183 228.549 217.183 244.047C214.885 244.223 213.413 244.335 211.941 244.448Z" fill="#F4F3E6"/>
<path d="M249.621 244.489C249.276 243.858 248.632 243.228 248.629 242.596C248.573 227.004 248.586 211.411 248.586 194.71C250.973 195.294 252.888 195.763 254.86 196.991C254.918 213.159 254.918 228.568 254.918 244.012C252.571 244.223 251.096 244.356 249.621 244.489Z" fill="#F4F3E6"/>
<path d="M169.87 259.475C171.812 259.083 173.74 258.98 175.67 258.921C179.503 258.805 184.087 260.427 185.244 252.731C186.352 255.731 186.873 257.141 187.472 258.764C189.015 258.764 190.6 258.764 193.046 258.764C193.046 244.739 193.046 230.862 193.098 216.586C196.355 215.945 197.3 217.868 197.3 220.694C197.302 233.275 197.339 245.856 197.284 258.437C197.265 262.859 195.371 264.001 191.316 262.635C189.749 262.108 187.949 262.178 186.257 262.188C181.874 262.216 177.484 262.544 173.115 262.333C171.992 262.279 170.941 260.676 169.87 259.475Z" fill="#D7A794"/>
<path d="M98.9694 142.084C100.247 141.338 101.512 140.933 103.272 140.369C103.272 135.696 103.27 130.883 103.272 126.071C103.277 114.858 103.351 103.644 103.243 92.4313C103.216 89.6997 104.034 88.5456 106.794 88.7359C109.308 88.9092 111.892 89.0553 114.348 88.6317C115.539 88.4262 116.51 86.8893 117.616 85.5923C118.539 85.2249 119.427 85.2205 120.644 85.2339C121.011 87.3303 121.049 89.4089 121.029 91.8636C117.992 92.2822 114.979 92.6368 112.045 92.2931C107.768 91.792 106.887 94.293 106.853 97.6765C106.781 104.664 106.822 111.653 106.824 118.642C106.826 125.934 106.967 133.23 106.746 140.515C106.696 142.141 105.755 144.643 104.579 145.134C102.358 146.06 99.7979 145.555 98.9694 142.084Z" fill="#D7A794"/>
<path d="M249.575 244.778C251.096 244.356 252.571 244.223 254.918 244.011C254.918 228.567 254.918 213.158 254.978 197.348C256.116 198.002 258.135 199.062 258.131 200.113C258.069 216.143 257.676 232.171 257.531 248.202C257.5 251.741 258.427 255.296 258.319 258.825C258.273 260.347 256.716 261.82 255.845 263.316C254.049 262.139 252.253 260.962 250.847 259.41C255.136 258.32 255.975 255.226 254.055 247.899C252.385 247.899 250.615 247.899 248.844 247.899C249.072 246.954 249.301 246.01 249.575 244.778Z" fill="#D7A794"/>
<path d="M211.901 244.779C213.413 244.335 214.885 244.223 217.184 244.047C217.184 228.548 217.184 213.143 217.224 197.332C222.117 198.038 221.366 202.104 221.383 205.507C221.444 217.695 221.772 229.911 221.05 242.058C220.737 247.323 220.46 252.404 221.504 257.552C222.167 260.82 220.196 262.245 217.593 263.126C214.586 264.143 213.638 262.053 213.171 259.398C214.387 259.024 215.293 259.011 216.216 259.325C216.939 259.982 217.643 260.313 218.348 260.644C218.707 258.101 220.538 255.303 217.117 253.02C218.094 248.037 215.318 247.602 211.975 247.789C211.937 246.896 211.899 246.003 211.901 244.779Z" fill="#CCA798"/>
<path d="M123.909 142.033C126.563 141.099 127.575 139.714 127.492 136.689C127.235 127.344 127.398 117.988 127.398 108.442C128.994 108.094 130.239 107.822 131.385 107.573C132.434 103.336 140.868 100.412 143.894 103.157C144.484 103.692 144.314 105.098 144.473 106.469C142.817 106.891 141.181 106.996 139.546 106.99C137.586 106.984 135.526 106.679 135.334 109.627C135.308 110.029 134.989 110.688 134.701 110.754C129.246 112.005 131.082 116.426 131.008 119.837C130.855 126.97 131.124 134.116 130.818 141.239C130.756 142.675 129.126 144.815 127.831 145.173C126.844 145.446 125.244 143.413 123.909 142.033Z" fill="#D7A794"/>
<path d="M132.879 259.488C137.033 259.142 141.2 259.142 144.118 259.142C147.949 254.75 150.99 251.264 155.331 246.287C155.331 241.298 155.331 234.178 155.394 226.663C156.328 226.229 157.2 226.191 158.396 226.215C158.903 233.829 159.086 241.38 159.424 249.251C159.285 250.402 159.189 251.784 158.667 251.979C154.405 253.569 153.284 258.252 150.051 260.787C149.152 261.491 148.066 262.337 147.028 262.394C143.312 262.598 139.565 262.685 135.864 262.38C134.814 262.294 133.88 260.724 132.879 259.488Z" fill="#D7A794"/>
<path d="M253.629 125.022C252.311 124.383 250.868 123.463 249.425 122.543C249.599 122.087 249.772 121.631 249.945 121.175C248.942 120.997 247.648 121.139 247.021 120.547C246.448 120.005 246.4 117.818 246.453 117.805C250.755 116.779 252.307 109.4 257.279 112.351C260.949 108.881 264.137 105.965 267.195 102.913C268.047 102.062 268.515 100.81 269.188 99.4138C273.41 100.977 273.87 104.145 270.684 107.171C268.086 109.639 266.03 112.718 263.349 115.07C262.24 116.044 260.141 115.983 258.47 116.128C254.483 116.473 251.594 121.391 253.629 125.022Z" fill="#D7A794"/>
<path d="M196.186 136.483C195.972 141.245 199.067 141.39 202.951 141.114C204.199 139.633 205.354 138.363 205.388 137.062C205.571 130.077 205.315 123.078 205.555 116.096C205.648 113.369 206.637 110.673 207.219 107.963C207.219 107.963 207.261 107.999 207.528 108.03C208.52 108.098 209.33 108.362 209.953 108.121C211.227 107.629 212.4 106.865 213.615 106.214C211.888 108.731 210.124 111.223 208.457 113.78C207.913 114.615 207.278 115.615 207.268 116.546C207.192 123.665 207.409 130.79 207.202 137.902C207.13 140.353 206.683 144.379 205.403 144.852C203.216 145.658 200.236 144.228 197.389 143.7C196.758 146.347 193.685 145.656 191.205 145.228C190.179 145.051 189.448 143.101 188.648 141.633C191.275 141.205 193.605 140.842 193.136 136.906C194.075 136.515 194.962 136.487 196.186 136.483Z" fill="#CCA798"/>
<path d="M237.006 141.608C239.925 141.333 240.776 139.781 240.637 136.982C240.448 133.202 240.459 129.396 240.664 125.617C240.737 124.262 241.62 122.952 241.924 122.164C244.378 124.376 246.167 125.839 247.752 127.504C248.269 128.047 248.256 129.117 248.461 130.289C245.862 130.694 244.671 131.974 244.831 134.654C244.949 136.618 245.279 138.715 244.763 140.53C244.263 142.287 243.129 144.567 241.69 145.173C239.392 146.139 237.383 144.794 237.006 141.608Z" fill="#D7A794"/>
<path d="M169.342 247.516C168.059 247.819 166.783 247.749 165.259 247.667C165.259 237.165 165.259 227.048 165.336 216.528C170.372 216.625 169.465 220.531 169.412 223.669C169.309 229.86 168.864 236.045 168.698 242.237C168.655 243.865 169.118 245.508 169.342 247.516Z" fill="#D7A794"/>
<path d="M227.117 141.136C227.491 141.102 227.864 141.069 228.874 140.971C230.125 139.848 231.25 138.8 231.27 137.731C231.379 131.845 231.218 125.953 231.15 120.064C231.181 119.583 231.212 119.102 231.278 117.884C231.263 115.065 231.213 112.984 231.163 110.902C231.24 110.496 231.316 110.09 231.429 109.378C232.149 109.052 232.833 109.03 233.859 109.035C234.376 119.482 234.55 129.905 234.841 140.697C233.771 142.513 232.799 144.704 231.321 145.15C230.284 145.462 228.558 143.395 227.112 141.909C227.085 141.428 227.117 141.136 227.117 141.136Z" fill="#D7A794"/>
<path d="M191.931 134.684C188.886 136.016 188.373 134.362 188.401 131.765C188.5 122.676 188.489 113.586 188.559 104.098C192.076 103.255 191.968 105.695 191.966 108.054C191.959 116.8 191.954 125.545 191.931 134.684Z" fill="#D7A794"/>
<path d="M244.857 110.372C244.369 112.31 243.89 113.814 243.411 115.318C243.028 115.385 242.644 115.452 242.261 115.519C241.912 114.225 241.269 112.934 241.262 111.638C241.21 102.849 241.292 94.0586 241.36 84.8672C244.776 83.9835 244.882 86.278 244.877 88.7138C244.862 95.7883 244.868 102.863 244.857 110.372Z" fill="#D7A794"/>
<path d="M158.746 130.01C158.842 131.933 158.939 133.856 159.047 136.02C160.616 136.258 162.015 136.47 163.413 136.682C163.188 137.085 162.964 137.487 162.74 137.889C164.195 138.98 165.65 140.072 167.463 141.509C168.418 142.771 169.013 143.687 169.608 144.603C167.509 144.603 165.409 144.603 163.322 144.603C162.692 142.813 162.189 141.385 161.606 139.73C154.393 147.81 154.046 147.87 150.95 141.625C152.795 140.806 155.636 141.608 155.694 137.645C156.708 136.272 157.524 135.357 157.897 134.283C158.368 132.927 158.479 131.441 158.746 130.01Z" fill="#CCA798"/>
<path d="M211.661 248.038C215.318 247.602 218.094 248.037 217.083 253.391C216.783 255.769 216.491 257.384 216.199 258.999C215.293 259.011 214.387 259.024 213.149 259.082C208.815 256.009 211.349 251.969 211.661 248.038Z" fill="#F4F3E6"/>
<path d="M248.74 248.315C250.615 247.899 252.385 247.899 254.055 247.899C255.975 255.226 255.136 258.32 250.871 259.081C249.847 257.576 248.886 256.08 248.614 254.463C248.302 252.608 248.602 250.646 248.74 248.315Z" fill="#F4F3E6"/>
<path d="M169.897 144.624C169.013 143.687 168.418 142.771 167.81 141.578C171.137 141.209 174.475 141.117 178.334 141.167C179.01 141.093 179.167 140.878 179.324 140.663C179.335 140.319 179.345 139.974 179.65 139.253C180.385 138.086 180.825 137.296 181.265 136.506C182.523 136.464 183.781 136.423 185.512 136.609C186.167 137.055 186.395 137.2 186.668 137.271C186.668 137.271 186.745 137.718 186.412 138.079C184.734 139.497 183.424 140.605 182.034 141.596C180.568 142.642 179.136 144.014 177.489 144.445C175.552 144.952 173.399 144.599 171.34 144.62C170.955 144.628 170.57 144.636 169.897 144.624Z" fill="#D7A794"/>
<path d="M130.992 96.594C130.964 97.6124 131.122 98.32 130.864 98.7908C130.327 99.7716 129.57 100.627 128.903 101.534C128.402 100.61 127.494 99.6969 127.469 98.7595C127.35 94.2546 127.469 89.7432 127.54 84.8286C128.698 85.9074 130.389 87.2447 130.803 88.9117C131.372 91.2023 130.974 93.7426 130.992 96.594Z" fill="#D7A794"/>
<path d="M213.939 106.228C212.4 106.865 211.227 107.629 209.953 108.121C209.33 108.361 208.52 108.098 207.515 108.005C208.565 103.27 214.805 100.606 219.093 103.017C219.652 103.331 219.729 104.537 219.618 105.737C218.21 106.158 217.213 106.172 216.216 106.187C215.565 106.205 214.915 106.223 213.939 106.228Z" fill="#D7A794"/>
<path d="M264.84 142.177C266.882 141.222 269.382 141.243 269.209 137.715C272.908 137.152 273.039 139.829 272.492 142.185C272.201 143.441 270.578 145.019 269.34 145.251C267.516 145.593 264.532 146.474 264.84 142.177Z" fill="#D7A794"/>
<path d="M98.5276 237.524C97.2554 237.898 95.9872 237.898 94.2573 237.898C94.2573 233.999 94.2573 230.486 94.3079 226.567C96.8601 225.863 97.7997 227.089 97.867 229.555C97.9362 232.091 98.298 234.619 98.5276 237.524Z" fill="#CCA798"/>
<path d="M85.4578 89.3094C88.3935 88.9057 91.3237 88.5921 94.189 88.902C95.2018 89.0115 96.0564 90.6431 96.947 91.9578C94.3975 92.351 91.8312 92.6834 89.391 92.2599C87.9654 92.0124 86.7413 90.5571 85.4578 89.3094Z" fill="#D7A794"/>
<path d="M171.453 144.951C173.399 144.599 175.552 144.951 177.488 144.445C179.136 144.014 180.568 142.642 182.034 141.596C183.424 140.605 184.734 139.496 186.394 138.305C186.908 138.862 187.107 139.555 187.24 140.521C185.888 141.277 184.134 141.375 183.402 142.307C180.388 146.148 176.286 147.333 171.453 144.951Z" fill="#CCA798"/>
<path d="M251.348 132.215C253.67 132.801 257.727 129.079 258.182 134.964C256.931 135.42 255.677 135.291 254.575 135.647C251.543 136.627 251.279 134.807 251.348 132.215Z" fill="#CCA798"/>
<path d="M227.039 140.74C227.117 141.136 227.085 141.428 227.078 141.573C226.437 140.45 225.304 139.202 225.256 137.91C225.052 132.507 225.174 127.091 225.209 121.255C225.528 123.607 225.85 126.382 226.091 129.163C226.413 132.887 226.673 136.617 227.039 140.74Z" fill="#F3F0E2"/>
<path d="M155.076 105.81C153.272 105.9 150.519 107.265 150.847 103.147C152.267 103.707 153.668 104.604 155.076 105.81Z" fill="#CCA798"/>
<path d="M158.401 108.167C158.74 108.842 158.755 109.48 158.402 110.436C157.156 110.745 156.28 110.737 155.404 110.729C155.394 110.094 155.385 109.459 155.434 108.517C156.354 108.183 157.216 108.157 158.401 108.167Z" fill="#CCA798"/>
<path d="M149.725 101.194C148.608 100.898 147.477 100.299 146.377 99.3699C147.508 99.6562 148.61 100.273 149.725 101.194Z" fill="#CCA798"/>
<path d="M216.422 106.415C217.213 106.172 218.21 106.158 219.583 106.12C220.172 106.484 220.384 106.873 220.609 107.48C219.289 107.348 217.958 106.996 216.422 106.415Z" fill="#CCA798"/>
<path d="M225.2 111.154C225.399 112.723 225.566 114.689 225.491 116.893C225.223 115.271 225.196 113.412 225.2 111.154Z" fill="#F3F0E2"/>
<path d="M231.229 107.719C230.703 107.548 230.227 107.096 229.74 106.362C230.246 106.533 230.762 106.985 231.229 107.719Z" fill="#F3F0E2"/>
<path d="M147.023 560.165C141 559.059 135.092 558.311 128.228 557.442C128.228 553.953 128.22 549.291 128.229 544.63C128.262 527.111 128.186 509.59 128.362 492.073C128.633 465.057 152.253 441.682 178.653 440.69C205.231 439.691 229.571 460.045 233.03 487.823C234.98 503.482 231.257 518.524 220.017 529.364C210.59 538.455 211.097 548.534 212.2 559.45C214.048 577.726 218.907 595.21 226.284 611.97C226.584 612.652 226.761 613.4 226.914 614.135C226.968 614.393 226.778 614.704 226.525 615.627C225.119 615.627 223.54 615.627 221.961 615.627C197.911 615.629 173.862 615.562 149.814 615.712C146.493 615.733 144.581 614.753 143.317 611.619C140.936 605.715 138.234 599.947 135.787 594.07C135.114 592.455 134.871 590.654 134.273 588.322C137.187 588.322 139.512 588.477 141.803 588.259C143.005 588.144 144.147 587.376 145.316 586.903C144.563 585.767 143.891 583.73 143.043 583.651C139.565 583.325 135.892 582.977 132.55 583.771C124.593 585.661 116.898 588.958 108.876 590.218C102.867 591.163 96.4192 590.384 90.3398 589.331C84.6842 588.352 81.5823 582.693 82.8819 577.772C84.3147 572.347 89.3443 569.193 94.9588 570.242C101.851 571.53 108.549 570.95 115.247 568.762C121.754 566.636 128.367 564.787 135.03 563.251C137.533 562.674 140.307 563.329 142.957 563.408C145.021 563.469 147.459 564.068 147.023 560.165ZM180.109 482.167C178.633 481.998 177.118 481.994 175.689 481.632C168.907 479.915 162.13 478.173 155.388 476.302C148.564 474.408 143.645 476.242 142.937 481.656C141.063 495.979 145.479 512.018 158.438 520.578C174.805 531.391 192.072 527.99 209.205 522.47C209.888 522.25 210.783 520.644 210.57 520.077C210.229 519.164 208.949 517.875 208.234 517.976C205.052 518.429 204.094 516.338 203.072 514.043C198.301 503.336 198.376 504.107 189.431 509.721C186.489 511.568 184.926 511.156 182.674 508.793C175.962 501.75 178.08 502.182 170.192 507.47C169.197 508.137 168.306 508.984 167.266 509.557C166.543 509.956 165.358 510.491 164.873 510.176C159.44 506.649 154.103 502.969 148.068 498.873C150.655 497.333 152.541 496.452 154.143 495.196C156.326 493.485 158.079 493.692 160.098 495.493C161.652 496.879 163.648 497.742 165.246 499.085C168.309 501.662 171.294 502.094 174.536 499.467C178.488 496.265 182.457 495.172 186.87 498.913C189.753 501.357 192.377 500.465 194.318 497.257C195.805 494.799 197.204 492.26 198.941 489.995C200.059 488.538 201.79 487.588 203.112 486.271C204.253 485.135 205.204 483.8 206.24 482.553C204.801 482.094 203.351 481.21 201.924 481.246C194.934 481.423 187.95 481.846 180.109 482.167ZM162.668 466.663C163.07 467.806 163.258 469.717 163.925 469.911C164.899 470.194 166.272 469.355 167.378 468.795C169.479 467.732 171.592 466.652 173.545 465.339C174.962 464.387 176.128 463.048 177.406 461.881C175.685 461.101 173.464 459.216 172.337 459.747C168.971 461.333 166.035 463.865 162.668 466.663ZM208.847 461.587C206.454 460.925 204.086 460.011 201.652 459.753C200.92 459.675 199.751 461.311 199.293 462.387C199.106 462.825 200.122 464.146 200.864 464.581C203.703 466.249 206.619 467.795 209.584 469.22C210.532 469.675 211.72 469.615 212.798 469.79C212.946 468.654 213.588 467.223 213.14 466.442C212.188 464.782 210.669 463.46 208.847 461.587Z" fill="black"/>
<path d="M224.811 588.513C223.954 588.528 223.005 588.541 222.947 588.314C221.55 582.891 220.157 577.462 219.031 571.976C218.87 571.189 219.875 569.57 220.69 569.244C233.183 564.239 245.871 560.584 259.441 564.388C264.183 565.717 267.427 570.157 267.045 574.879C266.652 579.726 262.52 584.417 257.818 583.548C246.255 581.409 235.692 584.469 224.811 588.513Z" fill="black"/>
<path d="M177.971 436.068C174.538 436.402 171.472 436.644 167.41 436.965C170.388 431.764 173.06 427.096 176.438 421.193C179.467 426.486 181.903 430.744 184.696 435.625C181.973 435.776 180.155 435.876 177.971 436.068Z" fill="black"/>
<path d="M123.743 536.646C123.641 538.036 123.541 539.038 123.37 540.749C119.954 538.784 116.981 537.075 113.036 534.806C116.791 532.521 119.782 530.701 123.746 528.289C123.746 531.606 123.746 533.932 123.743 536.646Z" fill="black"/>
<path d="M118.194 493.327C116.87 492.631 115.789 492.165 114.707 491.699C115.06 491.075 115.413 490.452 115.765 489.828C118.291 488.906 120.817 487.983 123.463 487.016C123.463 490.51 123.463 493.442 123.463 497.514C121.279 495.795 119.857 494.676 118.194 493.327Z" fill="black"/>
<path d="M141.608 451.682C140.193 453.457 139.006 455.012 137.819 456.566C137.379 456.363 136.94 456.161 136.501 455.958C135.928 452.815 135.355 449.673 134.61 445.582C137.847 446.708 140.519 447.637 143.632 448.72C142.899 449.839 142.367 450.65 141.608 451.682Z" fill="black"/>
<path d="M276.302 507.787C270.65 507.781 265.441 507.875 260.242 507.678C259.306 507.643 258.413 506.416 257.5 505.739C258.404 505.202 259.301 504.213 260.213 504.198C267.945 504.073 275.682 504.056 283.413 504.213C284.335 504.232 285.233 505.485 286.142 506.166C285.241 506.701 284.377 507.599 283.433 507.699C281.225 507.932 278.978 507.782 276.302 507.787Z" fill="black"/>
<path d="M295.658 532.529C298.239 535.879 297.908 538.599 295.116 538.613C293.719 538.619 291.323 537.07 291.108 535.895C290.577 533.009 292.699 532.093 295.658 532.529Z" fill="black"/>
<path d="M263.599 536.696C261.889 537.479 260.248 538.174 258.628 538.128C258.242 538.117 257.341 535.387 257.749 534.344C258.12 533.396 260.41 532.228 261.035 532.598C262.224 533.301 262.828 535.032 263.599 536.696Z" fill="black"/>
<path d="M93.5601 444.737C95.0691 444.337 96.2476 444.036 97.426 443.734C97.653 444.357 97.88 444.979 98.107 445.602C90.8525 448.715 83.5981 451.827 76.3437 454.94C76.0194 454.23 75.6951 453.521 75.3708 452.811C81.3237 450.153 87.2766 447.494 93.5601 444.737Z" fill="black"/>
<path d="M270.058 470.15C271.157 473.412 270.247 475.905 267.337 476.351C265.539 476.627 262.564 475.668 261.804 474.293C261.074 472.972 261.891 469.714 263.142 468.531C265.376 466.419 268.075 467.068 270.058 470.15Z" fill="black"/>
<path d="M264.674 438.203C266.943 433.872 271.041 432.152 276.609 433.605C273.739 438.013 268.757 436.235 265.018 438.19C264.666 438.196 264.674 438.203 264.674 438.203Z" fill="black"/>
<path d="M264.663 438.193C264.576 438.215 264.491 438.241 264.54 438.235C264.674 438.203 264.666 438.196 264.663 438.193Z" fill="#F3FBFB"/>
<path d="M158.832 112.552C164.195 112.728 164.195 112.728 165.638 102.683C170.511 102.683 175.519 102.562 180.505 102.84C181.106 102.874 181.592 105.063 181.723 106.653C180.428 107.041 179.539 107.059 178.653 107.014C168.492 106.49 168.914 106.752 168.61 115.899C165.482 116.236 159.561 120.933 158.54 123.785C156.939 121.799 159.808 118.145 155.821 117.027C155.819 116.118 155.816 115.209 156.135 113.912C157.249 113.2 158.041 112.876 158.832 112.552Z" fill="#CCA798"/>
<path d="M155.636 117.357C159.808 118.145 156.939 121.799 158.504 124.157C158.771 126.013 158.799 127.612 158.787 129.611C158.479 131.441 158.368 132.927 157.897 134.283C157.524 135.357 156.708 136.272 155.743 137.279C155.414 130.763 155.432 124.225 155.636 117.357Z" fill="#D7A794"/>
<path d="M158.829 112.252C158.041 112.876 157.249 113.2 156.131 113.571C155.635 112.856 155.465 112.093 155.349 111.03C156.28 110.737 157.156 110.745 158.36 110.756C158.734 111.157 158.781 111.554 158.829 112.252Z" fill="#D7A794"/>
<path d="M169.031 115.993C168.914 106.752 168.492 106.49 178.653 107.013C179.539 107.059 180.428 107.041 181.684 107.043C182.053 109.859 182.053 112.685 182.053 116.087C177.623 116.087 173.537 116.087 169.031 115.993Z" fill="#98CAC3"/>
<path d="M182.074 126.145C181.65 127.413 181.498 128.893 180.74 129.899C179.622 131.384 178.074 132.531 176.708 133.823C176.921 134.297 177.133 134.772 177.346 135.247C174.463 135.247 171.581 135.247 168.285 135.045C167.871 134.842 167.859 134.563 168.155 134.491C168.261 133.191 168.071 131.961 167.891 130.421C167.889 129.488 167.877 128.866 168.199 128.148C173.046 127.416 177.56 126.781 182.074 126.145Z" fill="#98CAC3"/>
<path d="M167.859 134.562C167.859 134.562 167.871 134.842 167.884 134.979C166.993 134.654 165.346 134.248 165.307 133.72C165.077 130.544 165.093 127.332 165.319 124.153C165.374 123.378 166.498 122.079 167.172 122.051C171.788 121.856 176.416 121.892 181.037 122.002C181.424 122.011 181.786 123.106 181.718 124.077C178.014 124.463 174.751 124.53 171.49 124.454C168.867 124.394 167.566 125.479 167.866 128.244C167.877 128.866 167.889 129.488 167.864 130.807C167.837 132.523 167.848 133.543 167.859 134.562Z" fill="#D7A794"/>
<path d="M168.199 128.148C167.565 125.479 168.867 124.394 171.49 124.455C174.751 124.53 178.014 124.463 181.689 124.456C182.11 124.831 182.118 125.209 182.1 125.866C177.56 126.781 173.046 127.417 168.199 128.148Z" fill="#CCA798"/>
<path d="M180.95 136.502C180.825 137.296 180.385 138.085 179.688 138.996C179.832 138.244 180.233 137.371 180.95 136.502Z" fill="#CCA798"/>
<path d="M186.6 137.062C186.395 137.2 186.167 137.055 185.887 136.656C186.102 136.47 186.35 136.596 186.6 137.062Z" fill="#CCA798"/>
<path d="M179.15 140.75C179.167 140.878 179.01 141.093 178.751 141.18C178.65 141.052 178.976 140.837 179.15 140.75Z" fill="#CCA798"/>
<path d="M144.437 224.037C148.89 225.204 149.391 228.464 149.152 232.514C148.869 237.329 149.086 242.175 149.086 245.842C146.723 248.181 145.056 249.832 142.573 252.291C140.122 252.291 136.333 252.291 132.435 252.291C132.061 250.85 131.73 249.574 131.167 247.694C130.71 242.316 130.368 237.542 130.345 232.766C130.339 231.613 131.209 230.305 131.992 229.332C133.155 227.887 134.531 226.59 135.954 225.402C136.691 224.787 137.699 224.286 138.631 224.184C140.55 223.975 142.5 224.068 144.437 224.037Z" fill="#98CAC3"/>
<path d="M144.463 223.662C142.5 224.069 140.55 223.975 138.631 224.184C137.699 224.286 136.691 224.787 135.954 225.402C134.531 226.59 133.155 227.887 131.992 229.332C131.209 230.305 130.339 231.613 130.345 232.766C130.368 237.542 130.71 242.316 130.882 247.465C128.384 248.321 127.281 247.496 127.355 244.759C127.503 239.289 127.329 233.81 127.458 228.34C127.482 227.323 128.095 226.121 128.805 225.364C130.108 223.976 131.686 222.856 133.149 221.624C132.985 221.264 132.821 220.904 132.657 220.544C135.761 220.544 138.887 220.337 141.957 220.67C142.882 220.77 143.65 222.373 144.463 223.662Z" fill="#D7A794"/>
<path d="M206.833 107.94C206.638 110.673 205.648 113.369 205.555 116.096C205.316 123.078 205.571 130.077 205.388 137.062C205.354 138.363 204.2 139.633 203.192 140.94C202.818 131.266 202.886 121.567 202.763 111.871C202.728 109.07 203.347 107.428 206.833 107.94Z" fill="#D7A794"/>
<path d="M230.958 120.358C231.218 125.953 231.379 131.845 231.27 137.731C231.25 138.8 230.125 139.848 229.151 140.924C229.389 136.439 230.06 131.944 230.55 127.429C230.793 125.189 230.705 122.913 230.958 120.358Z" fill="#F3F0E2"/>
<path d="M230.978 111.165C231.213 112.984 231.263 115.065 231.231 117.524C231.03 115.744 230.912 113.586 230.978 111.165Z" fill="#F3F0E2"/>
<path d="M216.216 259.325C216.491 257.384 216.783 255.769 217.109 253.782C220.538 255.303 218.707 258.101 218.348 260.644C217.643 260.313 216.938 259.982 216.216 259.325Z" fill="#D7A794"/>
<path d="M180.537 482.175C187.951 481.846 194.934 481.424 201.924 481.246C203.351 481.21 204.801 482.094 206.24 482.554C205.205 483.801 204.253 485.135 203.112 486.272C201.79 487.589 200.059 488.538 198.942 489.995C197.204 492.26 195.805 494.8 194.318 497.258C192.378 500.466 189.753 501.357 186.87 498.913C182.457 495.172 178.488 496.265 174.537 499.467C171.294 502.095 168.309 501.662 165.246 499.086C163.648 497.742 161.652 496.88 160.098 495.494C158.079 493.692 156.326 493.486 154.144 495.196C152.541 496.452 150.655 497.333 148.068 498.874C154.103 502.969 159.44 506.649 164.873 510.176C165.359 510.491 166.543 509.956 167.266 509.558C168.306 508.984 169.197 508.138 170.192 507.47C178.08 502.183 175.962 501.75 182.674 508.793C184.926 511.157 186.489 511.568 189.431 509.722C198.376 504.107 198.302 503.337 203.072 514.044C204.094 516.338 205.052 518.429 208.234 517.977C208.949 517.875 210.229 519.164 210.57 520.077C210.783 520.644 209.888 522.25 209.205 522.47C192.072 527.99 174.805 531.391 158.438 520.579C145.48 512.019 141.063 495.979 142.937 481.656C143.646 476.243 148.564 474.408 155.388 476.302C162.13 478.174 168.907 479.916 175.689 481.632C177.118 481.994 178.633 481.998 180.537 482.175ZM171.828 485.845C165.196 484.157 158.54 482.559 151.944 480.738C149.293 480.006 147.657 480.939 147.376 483.444C147.033 486.493 147.294 489.613 147.294 492.702C147.504 493.12 147.713 493.537 147.923 493.954C155.403 485.061 161.461 490.012 167.546 494.741C167.78 494.923 168.067 495.152 168.332 495.155C169.718 495.172 171.517 495.691 172.423 495.005C177.8 490.931 183.077 489.618 188.685 494.445C188.949 494.672 189.516 494.534 190.312 494.594C191.468 492.513 192.658 490.372 193.899 488.137C186.404 487.384 179.494 486.69 171.828 485.845ZM199.631 517.948C198.559 515.836 197.486 513.725 196.026 510.85C188.597 518.365 181.762 518.591 176.342 509.14C173.133 511.43 170.797 514.024 167.967 514.847C165.292 515.625 162.097 514.542 158.111 514.188C160.557 515.988 162.324 517.794 164.456 518.773C175.565 523.876 187.027 523.244 198.533 520.417C199.102 520.277 199.454 519.217 199.631 517.948Z" fill="#9FCEC8"/>
<path d="M162.799 466.346C166.035 463.866 168.971 461.333 172.337 459.747C173.464 459.216 175.685 461.101 177.407 461.882C176.128 463.048 174.962 464.387 173.545 465.34C171.592 466.653 169.479 467.732 167.378 468.796C166.272 469.355 164.899 470.194 163.925 469.911C163.258 469.718 163.07 467.806 162.799 466.346Z" fill="#A0CEC8"/>
<path d="M209.115 461.794C210.669 463.46 212.188 464.782 213.14 466.442C213.588 467.223 212.946 468.654 212.798 469.79C211.72 469.615 210.533 469.675 209.584 469.22C206.619 467.795 203.704 466.249 200.864 464.582C200.122 464.146 199.107 462.825 199.293 462.388C199.751 461.311 200.92 459.675 201.652 459.753C204.086 460.011 206.454 460.925 209.115 461.794Z" fill="#A0CEC8"/>
<path d="M168.155 134.492C167.848 133.543 167.837 132.523 167.854 131.118C168.071 131.962 168.261 133.191 168.155 134.492Z" fill="#CCA798"/>
<path d="M172.206 485.92C179.494 486.69 186.404 487.384 193.899 488.137C192.658 490.371 191.468 492.513 190.312 494.594C189.515 494.534 188.949 494.672 188.685 494.444C183.077 489.617 177.8 490.931 172.423 495.004C171.517 495.69 169.718 495.172 168.332 495.155C168.067 495.151 167.78 494.923 167.546 494.741C161.461 490.012 155.403 485.061 147.922 493.954C147.713 493.536 147.504 493.119 147.294 492.702C147.294 489.613 147.033 486.493 147.376 483.444C147.657 480.938 149.293 480.006 151.944 480.738C158.54 482.558 165.196 484.157 172.206 485.92Z" fill="black"/>
<path d="M199.769 518.267C199.454 519.217 199.102 520.277 198.533 520.417C187.027 523.244 175.565 523.875 164.456 518.773C162.324 517.793 160.557 515.988 158.111 514.187C162.097 514.542 165.292 515.625 167.967 514.847C170.797 514.024 173.133 511.43 176.342 509.14C181.762 518.591 188.597 518.364 196.026 510.85C197.486 513.725 198.559 515.836 199.769 518.267Z" fill="black"/>
</svg>
