<svg width="40" height="41" viewBox="0 0 40 41" fill="none" xmlns="http://www.w3.org/2000/svg">
<rect y="0.5" width="40" height="40" rx="15" fill="black"/>
<path d="M10.7692 30.2435L12.1674 25.0495C11.0398 23.0261 10.6816 20.665 11.1584 18.3995C11.6352 16.1339 12.9152 14.1158 14.7633 12.7156C16.6114 11.3154 18.9038 10.6269 21.2198 10.7765C23.5358 10.9261 25.7201 11.9037 27.3717 13.53C29.0234 15.1563 30.0317 17.3221 30.2116 19.6301C30.3916 21.9381 29.731 24.2333 28.3513 26.0947C26.9715 27.9562 24.965 29.2588 22.7 29.7637C20.4351 30.2686 18.0635 29.9419 16.0206 28.8434L10.7692 30.2435ZM16.2738 26.8998L16.5986 27.0919C18.0783 27.9668 19.8066 28.3288 21.5142 28.1216C23.2217 27.9144 24.8126 27.1496 26.0389 25.9464C27.2652 24.7431 28.058 23.1691 28.2938 21.4695C28.5295 19.7699 28.1951 18.0403 27.3424 16.5502C26.4898 15.06 25.1669 13.893 23.5799 13.2311C21.9929 12.5692 20.231 12.4495 18.5687 12.8906C16.9064 13.3318 15.4371 14.3091 14.3897 15.6701C13.3424 17.0312 12.7758 18.6996 12.7784 20.4154C12.777 21.8381 13.1715 23.2332 13.9178 24.4455L14.1215 24.7804L13.3399 27.6794L16.2738 26.8998Z" fill="#93CCC6"/>
<path fill-rule="evenodd" clip-rule="evenodd" d="M24.1562 21.7491C23.9658 21.5959 23.7429 21.4881 23.5044 21.4339C23.2659 21.3797 23.0182 21.3804 22.7801 21.4362C22.4223 21.5844 22.1911 22.1444 21.9599 22.4245C21.9111 22.4916 21.8395 22.5387 21.7584 22.5569C21.6773 22.5751 21.5924 22.5631 21.5195 22.5233C20.2096 22.0115 19.1116 21.0731 18.4039 19.8604C18.3436 19.7847 18.315 19.6886 18.3242 19.5923C18.3335 19.4961 18.3798 19.4071 18.4535 19.3442C18.7113 19.0896 18.9006 18.7743 19.0039 18.4273C19.0268 18.0446 18.939 17.6634 18.7507 17.3292C18.6052 16.8606 18.3282 16.4434 17.9525 16.1268C17.7588 16.0399 17.5439 16.0107 17.3339 16.0429C17.124 16.075 16.9278 16.1671 16.7691 16.308C16.4935 16.5451 16.2748 16.8408 16.1291 17.1734C15.9833 17.506 15.9142 17.8669 15.9269 18.2297C15.9277 18.4334 15.9536 18.6362 16.0039 18.8336C16.1317 19.308 16.3283 19.7611 16.5874 20.1788C16.7743 20.4988 16.9783 20.8085 17.1984 21.1067C17.9138 22.0862 18.813 22.9179 19.8461 23.5555C20.3646 23.8795 20.9187 24.143 21.4975 24.3407C22.0988 24.6125 22.7626 24.7169 23.4186 24.6426C23.7923 24.5862 24.1464 24.439 24.4497 24.214C24.7531 23.989 24.9963 23.6931 25.158 23.3524C25.2531 23.1465 25.2819 22.9164 25.2406 22.6935C25.1415 22.2378 24.5305 21.9687 24.1562 21.7491Z" fill="#93CCC6"/>
</svg>
